<?xml version="1.0" encoding="UTF-8" standalone="no"?><svg xmlns="http://www.w3.org/2000/svg" xmlns:xlink="http://www.w3.org/1999/xlink" contentScriptType="application/ecmascript" contentStyleType="text/css" height="341px" preserveAspectRatio="none" style="width:291px;height:341px;" version="1.1" viewBox="0 0 291 341" width="291px" zoomAndPan="magnify"><defs><filter height="300%" id="fgn2fao" width="300%" x="-1" y="-1"><feGaussianBlur result="blurOut" stdDeviation="2.0"/><feColorMatrix in="blurOut" result="blurOut2" type="matrix" values="0 0 0 0 0 0 0 0 0 0 0 0 0 0 0 0 0 0 .4 0"/><feOffset dx="4.0" dy="4.0" in="blurOut2" result="blurOut3"/><feBlend in="SourceGraphic" in2="blurOut3" mode="normal"/></filter></defs><g><!--class AudioTask--><rect fill="#FEFECE" filter="url(#fgn2fao)" height="151.6406" style="stroke: #A80036; stroke-width: 1.5;" width="158" x="76.5" y="181"/><ellipse cx="120.75" cy="197" fill="#ADD1B2" rx="11" ry="11" style="stroke: #A80036; stroke-width: 1.0;"/><path d="M123.2231,203.1431 Q122.6421,203.4419 122.0029,203.5913 Q121.3638,203.7407 120.6582,203.7407 Q118.1514,203.7407 116.8315,202.0889 Q115.5117,200.437 115.5117,197.3159 Q115.5117,194.1865 116.8315,192.5347 Q118.1514,190.8828 120.6582,190.8828 Q121.3638,190.8828 122.0112,191.0322 Q122.6587,191.1816 123.2231,191.4805 L123.2231,194.2031 Q122.5923,193.6221 121.9988,193.3523 Q121.4053,193.0825 120.7744,193.0825 Q119.4297,193.0825 118.7449,194.1492 Q118.0601,195.2158 118.0601,197.3159 Q118.0601,199.4077 118.7449,200.4744 Q119.4297,201.541 120.7744,201.541 Q121.4053,201.541 121.9988,201.2712 Q122.5923,201.0015 123.2231,200.4204 Z "/><text fill="#000000" font-family="sans-serif" font-size="12" lengthAdjust="spacingAndGlyphs" textLength="61" x="141.25" y="201.5352">AudioTask</text><line style="stroke: #A80036; stroke-width: 1.5;" x1="77.5" x2="233.5" y1="213" y2="213"/><ellipse cx="87.5" cy="224.9775" fill="none" rx="3" ry="3" style="stroke: #038048; stroke-width: 1.0;"/><text fill="#000000" font-family="sans-serif" font-size="11" lengthAdjust="spacingAndGlyphs" textLength="132" x="96.5" y="227.6348">content : MediaTaskType</text><ellipse cx="87.5" cy="237.9326" fill="none" rx="3" ry="3" style="stroke: #038048; stroke-width: 1.0;"/><text fill="#000000" font-family="sans-serif" font-size="11" lengthAdjust="spacingAndGlyphs" textLength="117" x="96.5" y="240.5898">finishDate : Date | null</text><ellipse cx="87.5" cy="250.8877" fill="none" rx="3" ry="3" style="stroke: #038048; stroke-width: 1.0;"/><text fill="#000000" font-family="sans-serif" font-size="11" lengthAdjust="spacingAndGlyphs" textLength="51" x="96.5" y="253.5449">id : string</text><ellipse cx="87.5" cy="263.8428" fill="none" rx="3" ry="3" style="stroke: #038048; stroke-width: 1.0;"/><text fill="#000000" font-family="sans-serif" font-size="11" lengthAdjust="spacingAndGlyphs" textLength="106" x="96.5" y="266.5">status : ETaskStatus</text><line style="stroke: #A80036; stroke-width: 1.5;" x1="77.5" x2="233.5" y1="272.8203" y2="272.8203"/><ellipse cx="87.5" cy="284.7979" fill="#84BE84" rx="3" ry="3" style="stroke: #038048; stroke-width: 1.0;"/><text fill="#000000" font-family="sans-serif" font-size="11" lengthAdjust="spacingAndGlyphs" textLength="72" x="96.5" y="287.4551">pause() : void</text><ellipse cx="87.5" cy="297.7529" fill="#84BE84" rx="3" ry="3" style="stroke: #038048; stroke-width: 1.0;"/><text fill="#000000" font-family="sans-serif" font-size="11" lengthAdjust="spacingAndGlyphs" textLength="62" x="96.5" y="300.4102">play() : void</text><ellipse cx="87.5" cy="310.708" fill="#84BE84" rx="3" ry="3" style="stroke: #038048; stroke-width: 1.0;"/><text fill="#000000" font-family="sans-serif" font-size="11" lengthAdjust="spacingAndGlyphs" textLength="64" x="96.5" y="313.3652">stop() : void</text><ellipse cx="87.5" cy="323.6631" fill="#84BE84" rx="3" ry="3" style="stroke: #038048; stroke-width: 1.0;"/><text fill="#000000" font-family="sans-serif" font-size="11" lengthAdjust="spacingAndGlyphs" textLength="74" x="96.5" y="326.3203">toggle() : void</text><!--class PeriodTask--><rect fill="#FEFECE" filter="url(#fgn2fao)" height="112.7754" style="stroke: #A80036; stroke-width: 1.5;" width="143" x="6" y="8"/><ellipse cx="41.7" cy="24" fill="#ADD1B2" rx="11" ry="11" style="stroke: #A80036; stroke-width: 1.0;"/><path d="M44.1731,30.1431 Q43.5921,30.4419 42.9529,30.5913 Q42.3138,30.7407 41.6082,30.7407 Q39.1014,30.7407 37.7815,29.0889 Q36.4617,27.437 36.4617,24.3159 Q36.4617,21.1865 37.7815,19.5347 Q39.1014,17.8828 41.6082,17.8828 Q42.3138,17.8828 42.9612,18.0322 Q43.6087,18.1816 44.1731,18.4805 L44.1731,21.2031 Q43.5423,20.6221 42.9488,20.3523 Q42.3553,20.0825 41.7244,20.0825 Q40.3797,20.0825 39.6949,21.1492 Q39.0101,22.2158 39.0101,24.3159 Q39.0101,26.4077 39.6949,27.4744 Q40.3797,28.541 41.7244,28.541 Q42.3553,28.541 42.9488,28.2712 Q43.5423,28.0015 44.1731,27.4204 Z "/><text fill="#000000" font-family="sans-serif" font-size="12" lengthAdjust="spacingAndGlyphs" textLength="65" x="60.3" y="28.5352">PeriodTask</text><line style="stroke: #A80036; stroke-width: 1.5;" x1="7" x2="148" y1="40" y2="40"/><ellipse cx="17" cy="51.9775" fill="none" rx="3" ry="3" style="stroke: #038048; stroke-width: 1.0;"/><text fill="#000000" font-family="sans-serif" font-size="11" lengthAdjust="spacingAndGlyphs" textLength="57" x="26" y="54.6348">content : T</text><ellipse cx="17" cy="64.9326" fill="none" rx="3" ry="3" style="stroke: #038048; stroke-width: 1.0;"/><text fill="#000000" font-family="sans-serif" font-size="11" lengthAdjust="spacingAndGlyphs" textLength="117" x="26" y="67.5898">finishDate : Date | null</text><ellipse cx="17" cy="77.8877" fill="none" rx="3" ry="3" style="stroke: #038048; stroke-width: 1.0;"/><text fill="#000000" font-family="sans-serif" font-size="11" lengthAdjust="spacingAndGlyphs" textLength="51" x="26" y="80.5449">id : string</text><ellipse cx="17" cy="90.8428" fill="none" rx="3" ry="3" style="stroke: #038048; stroke-width: 1.0;"/><text fill="#000000" font-family="sans-serif" font-size="11" lengthAdjust="spacingAndGlyphs" textLength="106" x="26" y="93.5">status : ETaskStatus</text><line style="stroke: #A80036; stroke-width: 1.5;" x1="7" x2="148" y1="99.8203" y2="99.8203"/><ellipse cx="17" cy="111.7979" fill="#84BE84" rx="3" ry="3" style="stroke: #038048; stroke-width: 1.0;"/><text fill="#000000" font-family="sans-serif" font-size="11" lengthAdjust="spacingAndGlyphs" textLength="74" x="26" y="114.4551">toggle() : void</text><!--class IPlayable--><rect fill="#FEFECE" filter="url(#fgn2fao)" height="78.8652" style="stroke: #A80036; stroke-width: 1.5;" width="98" x="184.5" y="25"/><ellipse cx="206.25" cy="41" fill="#B4A7E5" rx="11" ry="11" style="stroke: #A80036; stroke-width: 1.0;"/><path d="M202.6777,37.2651 L202.6777,35.1069 L210.0571,35.1069 L210.0571,37.2651 L207.5918,37.2651 L207.5918,45.3418 L210.0571,45.3418 L210.0571,47.5 L202.6777,47.5 L202.6777,45.3418 L205.1431,45.3418 L205.1431,37.2651 Z "/><text fill="#000000" font-family="sans-serif" font-size="12" font-style="italic" lengthAdjust="spacingAndGlyphs" textLength="51" x="221.75" y="45.5352">IPlayable</text><line style="stroke: #A80036; stroke-width: 1.5;" x1="185.5" x2="281.5" y1="57" y2="57"/><ellipse cx="195.5" cy="68.9775" fill="#84BE84" rx="3" ry="3" style="stroke: #038048; stroke-width: 1.0;"/><text fill="#000000" font-family="sans-serif" font-size="11" lengthAdjust="spacingAndGlyphs" textLength="72" x="204.5" y="71.6348">pause() : void</text><ellipse cx="195.5" cy="81.9326" fill="#84BE84" rx="3" ry="3" style="stroke: #038048; stroke-width: 1.0;"/><text fill="#000000" font-family="sans-serif" font-size="11" lengthAdjust="spacingAndGlyphs" textLength="62" x="204.5" y="84.5898">play() : void</text><ellipse cx="195.5" cy="94.8877" fill="#84BE84" rx="3" ry="3" style="stroke: #038048; stroke-width: 1.0;"/><text fill="#000000" font-family="sans-serif" font-size="11" lengthAdjust="spacingAndGlyphs" textLength="64" x="204.5" y="97.5449">stop() : void</text><path d="M107.88,139.69 C113.41,153.2 119.18,167.3 124.73,180.84 " fill="none" style="stroke: #A80036; stroke-width: 1.0;"/><polygon fill="none" points="101.37,142.27,100.27,121.11,114.33,136.97,101.37,142.27" style="stroke: #A80036; stroke-width: 1.0;"/><path d="M210.03,122.83 C202.55,141.09 194.17,161.56 186.26,180.88 " fill="none" style="stroke: #A80036; stroke-width: 1.0; stroke-dasharray: 7.0,7.0;"/><polygon fill="none" points="203.66,119.91,217.72,104.05,216.62,125.21,203.66,119.91" style="stroke: #A80036; stroke-width: 1.0;"/></g></svg>