<?xml version="1.0" encoding="UTF-8" standalone="no"?><svg xmlns="http://www.w3.org/2000/svg" xmlns:xlink="http://www.w3.org/1999/xlink" contentScriptType="application/ecmascript" contentStyleType="text/css" height="367px" preserveAspectRatio="none" style="width:309px;height:367px;" version="1.1" viewBox="0 0 309 367" width="309px" zoomAndPan="magnify"><defs><filter height="300%" id="fas8093" width="300%" x="-1" y="-1"><feGaussianBlur result="blurOut" stdDeviation="2.0"/><feColorMatrix in="blurOut" result="blurOut2" type="matrix" values="0 0 0 0 0 0 0 0 0 0 0 0 0 0 0 0 0 0 .4 0"/><feOffset dx="4.0" dy="4.0" in="blurOut2" result="blurOut3"/><feBlend in="SourceGraphic" in2="blurOut3" mode="normal"/></filter></defs><g><!--class AudioTask--><rect fill="#FEFECE" filter="url(#fas8093)" height="164.5957" style="stroke: #A80036; stroke-width: 1.5;" width="161" x="88" y="194"/><ellipse cx="133.75" cy="210" fill="#ADD1B2" rx="11" ry="11" style="stroke: #A80036; stroke-width: 1.0;"/><path d="M136.2231,216.1431 Q135.6421,216.4419 135.0029,216.5913 Q134.3638,216.7407 133.6582,216.7407 Q131.1514,216.7407 129.8315,215.0889 Q128.5117,213.437 128.5117,210.3159 Q128.5117,207.1865 129.8315,205.5347 Q131.1514,203.8828 133.6582,203.8828 Q134.3638,203.8828 135.0112,204.0322 Q135.6587,204.1816 136.2231,204.4805 L136.2231,207.2031 Q135.5923,206.6221 134.9988,206.3523 Q134.4053,206.0825 133.7744,206.0825 Q132.4297,206.0825 131.7449,207.1492 Q131.0601,208.2158 131.0601,210.3159 Q131.0601,212.4077 131.7449,213.4744 Q132.4297,214.541 133.7744,214.541 Q134.4053,214.541 134.9988,214.2712 Q135.5923,214.0015 136.2231,213.4204 Z "/><text fill="#000000" font-family="sans-serif" font-size="12" lengthAdjust="spacingAndGlyphs" textLength="61" x="154.25" y="214.5352">AudioTask</text><line style="stroke: #A80036; stroke-width: 1.5;" x1="89" x2="248" y1="226" y2="226"/><ellipse cx="99" cy="237.9775" fill="none" rx="3" ry="3" style="stroke: #038048; stroke-width: 1.0;"/><text fill="#000000" font-family="sans-serif" font-size="11" lengthAdjust="spacingAndGlyphs" textLength="132" x="108" y="240.6348">content : MediaTaskType</text><ellipse cx="99" cy="250.9326" fill="none" rx="3" ry="3" style="stroke: #038048; stroke-width: 1.0;"/><text fill="#000000" font-family="sans-serif" font-size="11" lengthAdjust="spacingAndGlyphs" textLength="117" x="108" y="253.5898">finishDate : Date | null</text><ellipse cx="99" cy="263.8877" fill="none" rx="3" ry="3" style="stroke: #038048; stroke-width: 1.0;"/><text fill="#000000" font-family="sans-serif" font-size="11" lengthAdjust="spacingAndGlyphs" textLength="51" x="108" y="266.5449">id : string</text><ellipse cx="99" cy="276.8428" fill="none" rx="3" ry="3" style="stroke: #038048; stroke-width: 1.0;"/><text fill="#000000" font-family="sans-serif" font-size="11" lengthAdjust="spacingAndGlyphs" textLength="135" x="108" y="279.5">owner : ITaskOwner | null</text><ellipse cx="99" cy="289.7979" fill="none" rx="3" ry="3" style="stroke: #038048; stroke-width: 1.0;"/><text fill="#000000" font-family="sans-serif" font-size="11" lengthAdjust="spacingAndGlyphs" textLength="106" x="108" y="292.4551">status : ETaskStatus</text><line style="stroke: #A80036; stroke-width: 1.5;" x1="89" x2="248" y1="298.7754" y2="298.7754"/><ellipse cx="99" cy="310.7529" fill="#84BE84" rx="3" ry="3" style="stroke: #038048; stroke-width: 1.0;"/><text fill="#000000" font-family="sans-serif" font-size="11" lengthAdjust="spacingAndGlyphs" textLength="72" x="108" y="313.4102">pause() : void</text><ellipse cx="99" cy="323.708" fill="#84BE84" rx="3" ry="3" style="stroke: #038048; stroke-width: 1.0;"/><text fill="#000000" font-family="sans-serif" font-size="11" lengthAdjust="spacingAndGlyphs" textLength="62" x="108" y="326.3652">play() : void</text><ellipse cx="99" cy="336.6631" fill="#84BE84" rx="3" ry="3" style="stroke: #038048; stroke-width: 1.0;"/><text fill="#000000" font-family="sans-serif" font-size="11" lengthAdjust="spacingAndGlyphs" textLength="64" x="108" y="339.3203">stop() : void</text><ellipse cx="99" cy="349.6182" fill="#84BE84" rx="3" ry="3" style="stroke: #038048; stroke-width: 1.0;"/><text fill="#000000" font-family="sans-serif" font-size="11" lengthAdjust="spacingAndGlyphs" textLength="74" x="108" y="352.2754">toggle() : void</text><!--class PeriodTask--><rect fill="#FEFECE" filter="url(#fas8093)" height="125.7305" style="stroke: #A80036; stroke-width: 1.5;" width="161" x="6" y="8"/><ellipse cx="49.8" cy="24" fill="#ADD1B2" rx="11" ry="11" style="stroke: #A80036; stroke-width: 1.0;"/><path d="M52.2731,30.1431 Q51.6921,30.4419 51.0529,30.5913 Q50.4138,30.7407 49.7082,30.7407 Q47.2014,30.7407 45.8815,29.0889 Q44.5617,27.437 44.5617,24.3159 Q44.5617,21.1865 45.8815,19.5347 Q47.2014,17.8828 49.7082,17.8828 Q50.4138,17.8828 51.0612,18.0322 Q51.7087,18.1816 52.2731,18.4805 L52.2731,21.2031 Q51.6423,20.6221 51.0488,20.3523 Q50.4553,20.0825 49.8244,20.0825 Q48.4797,20.0825 47.7949,21.1492 Q47.1101,22.2158 47.1101,24.3159 Q47.1101,26.4077 47.7949,27.4744 Q48.4797,28.541 49.8244,28.541 Q50.4553,28.541 51.0488,28.2712 Q51.6423,28.0015 52.2731,27.4204 Z "/><text fill="#000000" font-family="sans-serif" font-size="12" lengthAdjust="spacingAndGlyphs" textLength="65" x="70.2" y="28.5352">PeriodTask</text><line style="stroke: #A80036; stroke-width: 1.5;" x1="7" x2="166" y1="40" y2="40"/><ellipse cx="17" cy="51.9775" fill="none" rx="3" ry="3" style="stroke: #038048; stroke-width: 1.0;"/><text fill="#000000" font-family="sans-serif" font-size="11" lengthAdjust="spacingAndGlyphs" textLength="57" x="26" y="54.6348">content : T</text><ellipse cx="17" cy="64.9326" fill="none" rx="3" ry="3" style="stroke: #038048; stroke-width: 1.0;"/><text fill="#000000" font-family="sans-serif" font-size="11" lengthAdjust="spacingAndGlyphs" textLength="117" x="26" y="67.5898">finishDate : Date | null</text><ellipse cx="17" cy="77.8877" fill="none" rx="3" ry="3" style="stroke: #038048; stroke-width: 1.0;"/><text fill="#000000" font-family="sans-serif" font-size="11" lengthAdjust="spacingAndGlyphs" textLength="51" x="26" y="80.5449">id : string</text><ellipse cx="17" cy="90.8428" fill="none" rx="3" ry="3" style="stroke: #038048; stroke-width: 1.0;"/><text fill="#000000" font-family="sans-serif" font-size="11" lengthAdjust="spacingAndGlyphs" textLength="135" x="26" y="93.5">owner : ITaskOwner | null</text><ellipse cx="17" cy="103.7979" fill="none" rx="3" ry="3" style="stroke: #038048; stroke-width: 1.0;"/><text fill="#000000" font-family="sans-serif" font-size="11" lengthAdjust="spacingAndGlyphs" textLength="106" x="26" y="106.4551">status : ETaskStatus</text><line style="stroke: #A80036; stroke-width: 1.5;" x1="7" x2="166" y1="112.7754" y2="112.7754"/><ellipse cx="17" cy="124.7529" fill="#84BE84" rx="3" ry="3" style="stroke: #038048; stroke-width: 1.0;"/><text fill="#000000" font-family="sans-serif" font-size="11" lengthAdjust="spacingAndGlyphs" textLength="74" x="26" y="127.4102">toggle() : void</text><!--class IPlayable--><rect fill="#FEFECE" filter="url(#fas8093)" height="78.8652" style="stroke: #A80036; stroke-width: 1.5;" width="98" x="202.5" y="31.5"/><ellipse cx="224.25" cy="47.5" fill="#B4A7E5" rx="11" ry="11" style="stroke: #A80036; stroke-width: 1.0;"/><path d="M220.6777,43.7651 L220.6777,41.6069 L228.0571,41.6069 L228.0571,43.7651 L225.5918,43.7651 L225.5918,51.8418 L228.0571,51.8418 L228.0571,54 L220.6777,54 L220.6777,51.8418 L223.1431,51.8418 L223.1431,43.7651 Z "/><text fill="#000000" font-family="sans-serif" font-size="12" font-style="italic" lengthAdjust="spacingAndGlyphs" textLength="51" x="239.75" y="52.0352">IPlayable</text><line style="stroke: #A80036; stroke-width: 1.5;" x1="203.5" x2="299.5" y1="63.5" y2="63.5"/><ellipse cx="213.5" cy="75.4775" fill="#84BE84" rx="3" ry="3" style="stroke: #038048; stroke-width: 1.0;"/><text fill="#000000" font-family="sans-serif" font-size="11" lengthAdjust="spacingAndGlyphs" textLength="72" x="222.5" y="78.1348">pause() : void</text><ellipse cx="213.5" cy="88.4326" fill="#84BE84" rx="3" ry="3" style="stroke: #038048; stroke-width: 1.0;"/><text fill="#000000" font-family="sans-serif" font-size="11" lengthAdjust="spacingAndGlyphs" textLength="62" x="222.5" y="91.0898">play() : void</text><ellipse cx="213.5" cy="101.3877" fill="#84BE84" rx="3" ry="3" style="stroke: #038048; stroke-width: 1.0;"/><text fill="#000000" font-family="sans-serif" font-size="11" lengthAdjust="spacingAndGlyphs" textLength="64" x="222.5" y="104.0449">stop() : void</text><path d="M119.06,152.8 C124.5,166.3 130.14,180.31 135.59,193.83 " fill="none" style="stroke: #A80036; stroke-width: 1.0;"/><polygon fill="none" points="112.53,155.33,111.55,134.16,125.52,150.1,112.53,155.33" style="stroke: #A80036; stroke-width: 1.0;"/><path d="M228.12,129.33 C219.94,149.37 210.6,172.28 201.78,193.92 " fill="none" style="stroke: #A80036; stroke-width: 1.0; stroke-dasharray: 7.0,7.0;"/><polygon fill="none" points="221.66,126.63,235.69,110.76,234.62,131.92,221.66,126.63" style="stroke: #A80036; stroke-width: 1.0;"/></g></svg>