<?xml version="1.0" encoding="UTF-8" standalone="no"?><svg xmlns="http://www.w3.org/2000/svg" xmlns:xlink="http://www.w3.org/1999/xlink" contentScriptType="application/ecmascript" contentStyleType="text/css" height="237px" preserveAspectRatio="none" style="width:324px;height:237px;" version="1.1" viewBox="0 0 324 237" width="324px" zoomAndPan="magnify"><defs><filter height="300%" id="fips1ni" width="300%" x="-1" y="-1"><feGaussianBlur result="blurOut" stdDeviation="2.0"/><feColorMatrix in="blurOut" result="blurOut2" type="matrix" values="0 0 0 0 0 0 0 0 0 0 0 0 0 0 0 0 0 0 .4 0"/><feOffset dx="4.0" dy="4.0" in="blurOut2" result="blurOut3"/><feBlend in="SourceGraphic" in2="blurOut3" mode="normal"/></filter></defs><g><!--class FinishDate--><rect fill="#FEFECE" filter="url(#fips1ni)" height="86.8652" style="stroke: #A80036; stroke-width: 1.5;" width="309" x="6" y="142"/><ellipse cx="126.75" cy="158" fill="#ADD1B2" rx="11" ry="11" style="stroke: #A80036; stroke-width: 1.0;"/><path d="M129.2231,164.1431 Q128.6421,164.4419 128.0029,164.5913 Q127.3638,164.7407 126.6582,164.7407 Q124.1514,164.7407 122.8315,163.0889 Q121.5117,161.437 121.5117,158.3159 Q121.5117,155.1865 122.8315,153.5347 Q124.1514,151.8828 126.6582,151.8828 Q127.3638,151.8828 128.0112,152.0322 Q128.6587,152.1816 129.2231,152.4805 L129.2231,155.2031 Q128.5923,154.6221 127.9988,154.3523 Q127.4053,154.0825 126.7744,154.0825 Q125.4297,154.0825 124.7449,155.1492 Q124.0601,156.2158 124.0601,158.3159 Q124.0601,160.4077 124.7449,161.4744 Q125.4297,162.541 126.7744,162.541 Q127.4053,162.541 127.9988,162.2712 Q128.5923,162.0015 129.2231,161.4204 Z "/><text fill="#000000" font-family="sans-serif" font-size="12" lengthAdjust="spacingAndGlyphs" textLength="59" x="147.25" y="162.5352">FinishDate</text><line style="stroke: #A80036; stroke-width: 1.5;" x1="7" x2="314" y1="174" y2="174"/><ellipse cx="17" cy="185.9775" fill="none" rx="3" ry="3" style="stroke: #038048; stroke-width: 1.0;"/><text fill="#000000" font-family="sans-serif" font-size="11" lengthAdjust="spacingAndGlyphs" textLength="128" x="26" y="188.6348">props : FinishDateProps</text><line style="stroke: #A80036; stroke-width: 1.5;" x1="7" x2="314" y1="194.9551" y2="194.9551"/><ellipse cx="17" cy="206.9326" fill="#84BE84" rx="3" ry="3" style="stroke: #038048; stroke-width: 1.0;"/><text fill="#000000" font-family="sans-serif" font-size="11" lengthAdjust="spacingAndGlyphs" textLength="283" x="26" y="209.5898">equals(vo: ValueObject&lt;FinishDateProps&gt;) : boolean</text><ellipse cx="17" cy="219.8877" fill="#84BE84" rx="3" ry="3" style="stroke: #038048; stroke-width: 1.0;"/><text fill="#000000" font-family="sans-serif" font-size="11" lengthAdjust="spacingAndGlyphs" text-decoration="underline" textLength="220" x="26" y="222.5449">create(finishDate: Date | null) : FinishDate</text><line style="stroke: #000000; stroke-width: 1.0;" x1="26" x2="246" y1="224.5449" y2="224.5449"/><!--class ValueObject--><rect fill="#FEFECE" filter="url(#fips1ni)" height="73.9102" style="stroke: #A80036; stroke-width: 1.5;" width="229" x="46" y="8"/><ellipse cx="121.25" cy="24" fill="#A9DCDF" rx="11" ry="11" style="stroke: #A80036; stroke-width: 1.0;"/><path d="M121.3633,19.5981 L120.2095,24.6699 L122.5254,24.6699 Z M119.8691,17.3569 L122.8657,17.3569 L126.2109,29.75 L123.7622,29.75 L122.9985,26.687 L119.7197,26.687 L118.9727,29.75 L116.5239,29.75 Z "/><text fill="#000000" font-family="sans-serif" font-size="12" font-style="italic" lengthAdjust="spacingAndGlyphs" textLength="70" x="141.75" y="28.5352">ValueObject</text><line style="stroke: #A80036; stroke-width: 1.5;" x1="47" x2="274" y1="40" y2="40"/><ellipse cx="57" cy="51.9775" fill="none" rx="3" ry="3" style="stroke: #038048; stroke-width: 1.0;"/><text fill="#000000" font-family="sans-serif" font-size="11" lengthAdjust="spacingAndGlyphs" textLength="48" x="66" y="54.6348">props : T</text><line style="stroke: #A80036; stroke-width: 1.5;" x1="47" x2="274" y1="60.9551" y2="60.9551"/><ellipse cx="57" cy="72.9326" fill="#84BE84" rx="3" ry="3" style="stroke: #038048; stroke-width: 1.0;"/><text fill="#000000" font-family="sans-serif" font-size="11" lengthAdjust="spacingAndGlyphs" textLength="203" x="66" y="75.5898">equals(vo: ValueObject&lt;T&gt;) : boolean</text><path d="M160.5,102.49 C160.5,115.6 160.5,129.35 160.5,141.76 " fill="none" style="stroke: #A80036; stroke-width: 1.0;"/><polygon fill="none" points="153.5,102.03,160.5,82.03,167.5,102.03,153.5,102.03" style="stroke: #A80036; stroke-width: 1.0;"/></g></svg>