<?xml version="1.0" encoding="UTF-8" standalone="no"?><svg xmlns="http://www.w3.org/2000/svg" xmlns:xlink="http://www.w3.org/1999/xlink" contentScriptType="application/ecmascript" contentStyleType="text/css" height="208px" preserveAspectRatio="none" style="width:215px;height:208px;" version="1.1" viewBox="0 0 215 208" width="215px" zoomAndPan="magnify"><defs><filter height="300%" id="fjk89ei" width="300%" x="-1" y="-1"><feGaussianBlur result="blurOut" stdDeviation="2.0"/><feColorMatrix in="blurOut" result="blurOut2" type="matrix" values="0 0 0 0 0 0 0 0 0 0 0 0 0 0 0 0 0 0 .4 0"/><feOffset dx="4.0" dy="4.0" in="blurOut2" result="blurOut3"/><feBlend in="SourceGraphic" in2="blurOut3" mode="normal"/></filter></defs><g><!--class ICustormer--><rect fill="#FEFECE" filter="url(#fjk89ei)" height="52.9551" style="stroke: #A80036; stroke-width: 1.5;" width="95" x="58.5" y="8"/><ellipse cx="73.5" cy="24" fill="#B4A7E5" rx="11" ry="11" style="stroke: #A80036; stroke-width: 1.0;"/><path d="M69.9277,20.2651 L69.9277,18.1069 L77.3071,18.1069 L77.3071,20.2651 L74.8418,20.2651 L74.8418,28.3418 L77.3071,28.3418 L77.3071,30.5 L69.9277,30.5 L69.9277,28.3418 L72.3931,28.3418 L72.3931,20.2651 Z "/><text fill="#000000" font-family="sans-serif" font-size="12" font-style="italic" lengthAdjust="spacingAndGlyphs" textLength="63" x="87.5" y="28.5352">ICustormer</text><line style="stroke: #A80036; stroke-width: 1.5;" x1="59.5" x2="152.5" y1="40" y2="40"/><ellipse cx="69.5" cy="51.9775" fill="none" rx="3" ry="3" style="stroke: #038048; stroke-width: 1.0;"/><text fill="#000000" font-family="sans-serif" font-size="11" lengthAdjust="spacingAndGlyphs" textLength="51" x="78.5" y="54.6348">id : string</text><!--class ITaskOwner--><rect fill="#FEFECE" filter="url(#fjk89ei)" height="78.8652" style="stroke: #A80036; stroke-width: 1.5;" width="200" x="6" y="121"/><ellipse cx="67.75" cy="137" fill="#B4A7E5" rx="11" ry="11" style="stroke: #A80036; stroke-width: 1.0;"/><path d="M64.1777,133.2651 L64.1777,131.1069 L71.5571,131.1069 L71.5571,133.2651 L69.0918,133.2651 L69.0918,141.3418 L71.5571,141.3418 L71.5571,143.5 L64.1777,143.5 L64.1777,141.3418 L66.6431,141.3418 L66.6431,133.2651 Z "/><text fill="#000000" font-family="sans-serif" font-size="12" font-style="italic" lengthAdjust="spacingAndGlyphs" textLength="68" x="88.25" y="141.5352">ITaskOwner</text><line style="stroke: #A80036; stroke-width: 1.5;" x1="7" x2="205" y1="153" y2="153"/><ellipse cx="17" cy="164.9775" fill="none" rx="3" ry="3" style="stroke: #038048; stroke-width: 1.0;"/><text fill="#000000" font-family="sans-serif" font-size="11" lengthAdjust="spacingAndGlyphs" textLength="158" x="26" y="167.6348">friends : Array&lt;ITaskOwner&gt;</text><ellipse cx="17" cy="177.9326" fill="none" rx="3" ry="3" style="stroke: #038048; stroke-width: 1.0;"/><text fill="#000000" font-family="sans-serif" font-size="11" lengthAdjust="spacingAndGlyphs" textLength="51" x="26" y="180.5898">id : string</text><ellipse cx="17" cy="190.8877" fill="none" rx="3" ry="3" style="stroke: #038048; stroke-width: 1.0;"/><text fill="#000000" font-family="sans-serif" font-size="11" lengthAdjust="spacingAndGlyphs" textLength="174" x="26" y="193.5449">ownedTasks : Array&lt;ITaskItem&gt;</text><path d="M106,81.49 C106,94.37 106,108.23 106,120.64 " fill="none" style="stroke: #A80036; stroke-width: 1.0;"/><polygon fill="none" points="99,81.19,106,61.19,113,81.19,99,81.19" style="stroke: #A80036; stroke-width: 1.0;"/></g></svg>