<?xml version="1.0" encoding="UTF-8" standalone="no"?><svg xmlns="http://www.w3.org/2000/svg" xmlns:xlink="http://www.w3.org/1999/xlink" contentScriptType="application/ecmascript" contentStyleType="text/css" height="255px" preserveAspectRatio="none" style="width:206px;height:255px;" version="1.1" viewBox="0 0 206 255" width="206px" zoomAndPan="magnify"><defs><filter height="300%" id="fp10ywp" width="300%" x="-1" y="-1"><feGaussianBlur result="blurOut" stdDeviation="2.0"/><feColorMatrix in="blurOut" result="blurOut2" type="matrix" values="0 0 0 0 0 0 0 0 0 0 0 0 0 0 0 0 0 0 .4 0"/><feOffset dx="4.0" dy="4.0" in="blurOut2" result="blurOut3"/><feBlend in="SourceGraphic" in2="blurOut3" mode="normal"/></filter></defs><g><!--class IOwnership--><rect fill="#FEFECE" filter="url(#fp10ywp)" height="52.9551" style="stroke: #A80036; stroke-width: 1.5;" width="161" x="21" y="8"/><ellipse cx="65.25" cy="24" fill="#B4A7E5" rx="11" ry="11" style="stroke: #A80036; stroke-width: 1.0;"/><path d="M61.6777,20.2651 L61.6777,18.1069 L69.0571,18.1069 L69.0571,20.2651 L66.5918,20.2651 L66.5918,28.3418 L69.0571,28.3418 L69.0571,30.5 L61.6777,30.5 L61.6777,28.3418 L64.1431,28.3418 L64.1431,20.2651 Z "/><text fill="#000000" font-family="sans-serif" font-size="12" font-style="italic" lengthAdjust="spacingAndGlyphs" textLength="64" x="85.75" y="28.5352">IOwnership</text><line style="stroke: #A80036; stroke-width: 1.5;" x1="22" x2="181" y1="40" y2="40"/><ellipse cx="32" cy="51.9775" fill="none" rx="3" ry="3" style="stroke: #038048; stroke-width: 1.0;"/><text fill="#000000" font-family="sans-serif" font-size="11" lengthAdjust="spacingAndGlyphs" textLength="135" x="41" y="54.6348">owner : ITaskOwner | null</text><!--class Task--><rect fill="#FEFECE" filter="url(#fp10ywp)" height="125.7305" style="stroke: #A80036; stroke-width: 1.5;" width="191" x="6" y="121"/><ellipse cx="83.25" cy="137" fill="#ADD1B2" rx="11" ry="11" style="stroke: #A80036; stroke-width: 1.0;"/><path d="M85.7231,143.1431 Q85.1421,143.4419 84.5029,143.5913 Q83.8638,143.7407 83.1582,143.7407 Q80.6514,143.7407 79.3315,142.0889 Q78.0117,140.437 78.0117,137.3159 Q78.0117,134.1865 79.3315,132.5347 Q80.6514,130.8828 83.1582,130.8828 Q83.8638,130.8828 84.5112,131.0322 Q85.1587,131.1816 85.7231,131.4805 L85.7231,134.2031 Q85.0923,133.6221 84.4988,133.3523 Q83.9053,133.0825 83.2744,133.0825 Q81.9297,133.0825 81.2449,134.1492 Q80.5601,135.2158 80.5601,137.3159 Q80.5601,139.4077 81.2449,140.4744 Q81.9297,141.541 83.2744,141.541 Q83.9053,141.541 84.4988,141.2712 Q85.0923,141.0015 85.7231,140.4204 Z "/><text fill="#000000" font-family="sans-serif" font-size="12" lengthAdjust="spacingAndGlyphs" textLength="28" x="103.75" y="141.5352">Task</text><line style="stroke: #A80036; stroke-width: 1.5;" x1="7" x2="196" y1="153" y2="153"/><ellipse cx="17" cy="164.9775" fill="none" rx="3" ry="3" style="stroke: #038048; stroke-width: 1.0;"/><text fill="#000000" font-family="sans-serif" font-size="11" lengthAdjust="spacingAndGlyphs" textLength="57" x="26" y="167.6348">content : T</text><ellipse cx="17" cy="177.9326" fill="none" rx="3" ry="3" style="stroke: #038048; stroke-width: 1.0;"/><text fill="#000000" font-family="sans-serif" font-size="11" lengthAdjust="spacingAndGlyphs" textLength="51" x="26" y="180.5898">id : string</text><ellipse cx="17" cy="190.8877" fill="none" rx="3" ry="3" style="stroke: #038048; stroke-width: 1.0;"/><text fill="#000000" font-family="sans-serif" font-size="11" lengthAdjust="spacingAndGlyphs" textLength="135" x="26" y="193.5449">owner : ITaskOwner | null</text><ellipse cx="17" cy="203.8428" fill="none" rx="3" ry="3" style="stroke: #038048; stroke-width: 1.0;"/><text fill="#000000" font-family="sans-serif" font-size="11" lengthAdjust="spacingAndGlyphs" textLength="106" x="26" y="206.5">status : ETaskStatus</text><line style="stroke: #A80036; stroke-width: 1.5;" x1="7" x2="196" y1="212.8203" y2="212.8203"/><rect fill="#F24D5C" height="6" style="stroke: #C82930; stroke-width: 1.0;" width="6" x="14" y="221.7979"/><text fill="#000000" font-family="sans-serif" font-size="11" lengthAdjust="spacingAndGlyphs" textLength="165" x="26" y="227.4551">setStatus(s: ETaskStatus) : void</text><ellipse cx="17" cy="237.7529" fill="#84BE84" rx="3" ry="3" style="stroke: #038048; stroke-width: 1.0;"/><text fill="#000000" font-family="sans-serif" font-size="11" lengthAdjust="spacingAndGlyphs" textLength="74" x="26" y="240.4102">toggle() : void</text><path d="M101.5,81.33 C101.5,93.83 101.5,107.58 101.5,120.82 " fill="none" style="stroke: #A80036; stroke-width: 1.0; stroke-dasharray: 7.0,7.0;"/><polygon fill="none" points="94.5,81.19,101.5,61.19,108.5,81.19,94.5,81.19" style="stroke: #A80036; stroke-width: 1.0;"/></g></svg>