<?xml version="1.0" encoding="UTF-8" standalone="no"?><svg xmlns="http://www.w3.org/2000/svg" xmlns:xlink="http://www.w3.org/1999/xlink" contentScriptType="application/ecmascript" contentStyleType="text/css" height="255px" preserveAspectRatio="none" style="width:176px;height:255px;" version="1.1" viewBox="0 0 176 255" width="176px" zoomAndPan="magnify"><defs><filter height="300%" id="fyk1q9y" width="300%" x="-1" y="-1"><feGaussianBlur result="blurOut" stdDeviation="2.0"/><feColorMatrix in="blurOut" result="blurOut2" type="matrix" values="0 0 0 0 0 0 0 0 0 0 0 0 0 0 0 0 0 0 .4 0"/><feOffset dx="4.0" dy="4.0" in="blurOut2" result="blurOut3"/><feBlend in="SourceGraphic" in2="blurOut3" mode="normal"/></filter></defs><g><!--class IPeriodLimit--><rect fill="#FEFECE" filter="url(#fyk1q9y)" height="52.9551" style="stroke: #A80036; stroke-width: 1.5;" width="143" x="15" y="8"/><ellipse cx="49.8" cy="24" fill="#B4A7E5" rx="11" ry="11" style="stroke: #A80036; stroke-width: 1.0;"/><path d="M46.2277,20.2651 L46.2277,18.1069 L53.6071,18.1069 L53.6071,20.2651 L51.1418,20.2651 L51.1418,28.3418 L53.6071,28.3418 L53.6071,30.5 L46.2277,30.5 L46.2277,28.3418 L48.6931,28.3418 L48.6931,20.2651 Z "/><text fill="#000000" font-family="sans-serif" font-size="12" font-style="italic" lengthAdjust="spacingAndGlyphs" textLength="67" x="68.2" y="28.5352">IPeriodLimit</text><line style="stroke: #A80036; stroke-width: 1.5;" x1="16" x2="157" y1="40" y2="40"/><ellipse cx="26" cy="51.9775" fill="none" rx="3" ry="3" style="stroke: #038048; stroke-width: 1.0;"/><text fill="#000000" font-family="sans-serif" font-size="11" lengthAdjust="spacingAndGlyphs" textLength="117" x="35" y="54.6348">finishDate : Date | null</text><!--class PeriodTask--><rect fill="#FEFECE" filter="url(#fyk1q9y)" height="125.7305" style="stroke: #A80036; stroke-width: 1.5;" width="161" x="6" y="121"/><ellipse cx="49.8" cy="137" fill="#ADD1B2" rx="11" ry="11" style="stroke: #A80036; stroke-width: 1.0;"/><path d="M52.2731,143.1431 Q51.6921,143.4419 51.0529,143.5913 Q50.4138,143.7407 49.7082,143.7407 Q47.2014,143.7407 45.8815,142.0889 Q44.5617,140.437 44.5617,137.3159 Q44.5617,134.1865 45.8815,132.5347 Q47.2014,130.8828 49.7082,130.8828 Q50.4138,130.8828 51.0612,131.0322 Q51.7087,131.1816 52.2731,131.4805 L52.2731,134.2031 Q51.6423,133.6221 51.0488,133.3523 Q50.4553,133.0825 49.8244,133.0825 Q48.4797,133.0825 47.7949,134.1492 Q47.1101,135.2158 47.1101,137.3159 Q47.1101,139.4077 47.7949,140.4744 Q48.4797,141.541 49.8244,141.541 Q50.4553,141.541 51.0488,141.2712 Q51.6423,141.0015 52.2731,140.4204 Z "/><text fill="#000000" font-family="sans-serif" font-size="12" lengthAdjust="spacingAndGlyphs" textLength="65" x="70.2" y="141.5352">PeriodTask</text><line style="stroke: #A80036; stroke-width: 1.5;" x1="7" x2="166" y1="153" y2="153"/><ellipse cx="17" cy="164.9775" fill="none" rx="3" ry="3" style="stroke: #038048; stroke-width: 1.0;"/><text fill="#000000" font-family="sans-serif" font-size="11" lengthAdjust="spacingAndGlyphs" textLength="57" x="26" y="167.6348">content : T</text><ellipse cx="17" cy="177.9326" fill="none" rx="3" ry="3" style="stroke: #038048; stroke-width: 1.0;"/><text fill="#000000" font-family="sans-serif" font-size="11" lengthAdjust="spacingAndGlyphs" textLength="117" x="26" y="180.5898">finishDate : Date | null</text><ellipse cx="17" cy="190.8877" fill="none" rx="3" ry="3" style="stroke: #038048; stroke-width: 1.0;"/><text fill="#000000" font-family="sans-serif" font-size="11" lengthAdjust="spacingAndGlyphs" textLength="51" x="26" y="193.5449">id : string</text><ellipse cx="17" cy="203.8428" fill="none" rx="3" ry="3" style="stroke: #038048; stroke-width: 1.0;"/><text fill="#000000" font-family="sans-serif" font-size="11" lengthAdjust="spacingAndGlyphs" textLength="135" x="26" y="206.5">owner : ITaskOwner | null</text><ellipse cx="17" cy="216.7979" fill="none" rx="3" ry="3" style="stroke: #038048; stroke-width: 1.0;"/><text fill="#000000" font-family="sans-serif" font-size="11" lengthAdjust="spacingAndGlyphs" textLength="106" x="26" y="219.4551">status : ETaskStatus</text><line style="stroke: #A80036; stroke-width: 1.5;" x1="7" x2="166" y1="225.7754" y2="225.7754"/><ellipse cx="17" cy="237.7529" fill="#84BE84" rx="3" ry="3" style="stroke: #038048; stroke-width: 1.0;"/><text fill="#000000" font-family="sans-serif" font-size="11" lengthAdjust="spacingAndGlyphs" textLength="74" x="26" y="240.4102">toggle() : void</text><path d="M86.5,81.33 C86.5,93.83 86.5,107.58 86.5,120.82 " fill="none" style="stroke: #A80036; stroke-width: 1.0; stroke-dasharray: 7.0,7.0;"/><polygon fill="none" points="79.5,81.19,86.5,61.19,93.5,81.19,79.5,81.19" style="stroke: #A80036; stroke-width: 1.0;"/></g></svg>