<?xml version="1.0" encoding="UTF-8" standalone="no"?><svg xmlns="http://www.w3.org/2000/svg" xmlns:xlink="http://www.w3.org/1999/xlink" contentScriptType="application/ecmascript" contentStyleType="text/css" height="242px" preserveAspectRatio="none" style="width:158px;height:242px;" version="1.1" viewBox="0 0 158 242" width="158px" zoomAndPan="magnify"><defs><filter height="300%" id="fwd9t0g" width="300%" x="-1" y="-1"><feGaussianBlur result="blurOut" stdDeviation="2.0"/><feColorMatrix in="blurOut" result="blurOut2" type="matrix" values="0 0 0 0 0 0 0 0 0 0 0 0 0 0 0 0 0 0 .4 0"/><feOffset dx="4.0" dy="4.0" in="blurOut2" result="blurOut3"/><feBlend in="SourceGraphic" in2="blurOut3" mode="normal"/></filter></defs><g><!--class IPeriodLimit--><rect fill="#FEFECE" filter="url(#fwd9t0g)" height="52.9551" style="stroke: #A80036; stroke-width: 1.5;" width="143" x="6" y="8"/><ellipse cx="40.8" cy="24" fill="#B4A7E5" rx="11" ry="11" style="stroke: #A80036; stroke-width: 1.0;"/><path d="M37.2277,20.2651 L37.2277,18.1069 L44.6071,18.1069 L44.6071,20.2651 L42.1418,20.2651 L42.1418,28.3418 L44.6071,28.3418 L44.6071,30.5 L37.2277,30.5 L37.2277,28.3418 L39.6931,28.3418 L39.6931,20.2651 Z "/><text fill="#000000" font-family="sans-serif" font-size="12" font-style="italic" lengthAdjust="spacingAndGlyphs" textLength="67" x="59.2" y="28.5352">IPeriodLimit</text><line style="stroke: #A80036; stroke-width: 1.5;" x1="7" x2="148" y1="40" y2="40"/><ellipse cx="17" cy="51.9775" fill="none" rx="3" ry="3" style="stroke: #038048; stroke-width: 1.0;"/><text fill="#000000" font-family="sans-serif" font-size="11" lengthAdjust="spacingAndGlyphs" textLength="117" x="26" y="54.6348">finishDate : Date | null</text><!--class PeriodTask--><rect fill="#FEFECE" filter="url(#fwd9t0g)" height="112.7754" style="stroke: #A80036; stroke-width: 1.5;" width="143" x="6" y="121"/><ellipse cx="41.7" cy="137" fill="#ADD1B2" rx="11" ry="11" style="stroke: #A80036; stroke-width: 1.0;"/><path d="M44.1731,143.1431 Q43.5921,143.4419 42.9529,143.5913 Q42.3138,143.7407 41.6082,143.7407 Q39.1014,143.7407 37.7815,142.0889 Q36.4617,140.437 36.4617,137.3159 Q36.4617,134.1865 37.7815,132.5347 Q39.1014,130.8828 41.6082,130.8828 Q42.3138,130.8828 42.9612,131.0322 Q43.6087,131.1816 44.1731,131.4805 L44.1731,134.2031 Q43.5423,133.6221 42.9488,133.3523 Q42.3553,133.0825 41.7244,133.0825 Q40.3797,133.0825 39.6949,134.1492 Q39.0101,135.2158 39.0101,137.3159 Q39.0101,139.4077 39.6949,140.4744 Q40.3797,141.541 41.7244,141.541 Q42.3553,141.541 42.9488,141.2712 Q43.5423,141.0015 44.1731,140.4204 Z "/><text fill="#000000" font-family="sans-serif" font-size="12" lengthAdjust="spacingAndGlyphs" textLength="65" x="60.3" y="141.5352">PeriodTask</text><line style="stroke: #A80036; stroke-width: 1.5;" x1="7" x2="148" y1="153" y2="153"/><ellipse cx="17" cy="164.9775" fill="none" rx="3" ry="3" style="stroke: #038048; stroke-width: 1.0;"/><text fill="#000000" font-family="sans-serif" font-size="11" lengthAdjust="spacingAndGlyphs" textLength="57" x="26" y="167.6348">content : T</text><ellipse cx="17" cy="177.9326" fill="none" rx="3" ry="3" style="stroke: #038048; stroke-width: 1.0;"/><text fill="#000000" font-family="sans-serif" font-size="11" lengthAdjust="spacingAndGlyphs" textLength="117" x="26" y="180.5898">finishDate : Date | null</text><ellipse cx="17" cy="190.8877" fill="none" rx="3" ry="3" style="stroke: #038048; stroke-width: 1.0;"/><text fill="#000000" font-family="sans-serif" font-size="11" lengthAdjust="spacingAndGlyphs" textLength="51" x="26" y="193.5449">id : string</text><ellipse cx="17" cy="203.8428" fill="none" rx="3" ry="3" style="stroke: #038048; stroke-width: 1.0;"/><text fill="#000000" font-family="sans-serif" font-size="11" lengthAdjust="spacingAndGlyphs" textLength="106" x="26" y="206.5">status : ETaskStatus</text><line style="stroke: #A80036; stroke-width: 1.5;" x1="7" x2="148" y1="212.8203" y2="212.8203"/><ellipse cx="17" cy="224.7979" fill="#84BE84" rx="3" ry="3" style="stroke: #038048; stroke-width: 1.0;"/><text fill="#000000" font-family="sans-serif" font-size="11" lengthAdjust="spacingAndGlyphs" textLength="74" x="26" y="227.4551">toggle() : void</text><path d="M77.5,81.35 C77.5,93.93 77.5,107.7 77.5,120.77 " fill="none" style="stroke: #A80036; stroke-width: 1.0; stroke-dasharray: 7.0,7.0;"/><polygon fill="none" points="70.5,81.03,77.5,61.03,84.5,81.03,70.5,81.03" style="stroke: #A80036; stroke-width: 1.0;"/></g></svg>