<?xml version="1.0" encoding="UTF-8" standalone="no"?><svg xmlns="http://www.w3.org/2000/svg" xmlns:xlink="http://www.w3.org/1999/xlink" contentScriptType="application/ecmascript" contentStyleType="text/css" height="320px" preserveAspectRatio="none" style="width:176px;height:320px;" version="1.1" viewBox="0 0 176 320" width="176px" zoomAndPan="magnify"><defs><filter height="300%" id="f5ncmx0" width="300%" x="-1" y="-1"><feGaussianBlur result="blurOut" stdDeviation="2.0"/><feColorMatrix in="blurOut" result="blurOut2" type="matrix" values="0 0 0 0 0 0 0 0 0 0 0 0 0 0 0 0 0 0 .4 0"/><feOffset dx="4.0" dy="4.0" in="blurOut2" result="blurOut3"/><feBlend in="SourceGraphic" in2="blurOut3" mode="normal"/></filter></defs><g><!--class IPlayable--><rect fill="#FEFECE" filter="url(#f5ncmx0)" height="78.8652" style="stroke: #A80036; stroke-width: 1.5;" width="98" x="37.5" y="8"/><ellipse cx="59.25" cy="24" fill="#B4A7E5" rx="11" ry="11" style="stroke: #A80036; stroke-width: 1.0;"/><path d="M55.6777,20.2651 L55.6777,18.1069 L63.0571,18.1069 L63.0571,20.2651 L60.5918,20.2651 L60.5918,28.3418 L63.0571,28.3418 L63.0571,30.5 L55.6777,30.5 L55.6777,28.3418 L58.1431,28.3418 L58.1431,20.2651 Z "/><text fill="#000000" font-family="sans-serif" font-size="12" font-style="italic" lengthAdjust="spacingAndGlyphs" textLength="51" x="74.75" y="28.5352">IPlayable</text><line style="stroke: #A80036; stroke-width: 1.5;" x1="38.5" x2="134.5" y1="40" y2="40"/><ellipse cx="48.5" cy="51.9775" fill="#84BE84" rx="3" ry="3" style="stroke: #038048; stroke-width: 1.0;"/><text fill="#000000" font-family="sans-serif" font-size="11" lengthAdjust="spacingAndGlyphs" textLength="72" x="57.5" y="54.6348">pause() : void</text><ellipse cx="48.5" cy="64.9326" fill="#84BE84" rx="3" ry="3" style="stroke: #038048; stroke-width: 1.0;"/><text fill="#000000" font-family="sans-serif" font-size="11" lengthAdjust="spacingAndGlyphs" textLength="62" x="57.5" y="67.5898">play() : void</text><ellipse cx="48.5" cy="77.8877" fill="#84BE84" rx="3" ry="3" style="stroke: #038048; stroke-width: 1.0;"/><text fill="#000000" font-family="sans-serif" font-size="11" lengthAdjust="spacingAndGlyphs" textLength="64" x="57.5" y="80.5449">stop() : void</text><!--class AudioTask--><rect fill="#FEFECE" filter="url(#f5ncmx0)" height="164.5957" style="stroke: #A80036; stroke-width: 1.5;" width="161" x="6" y="147"/><ellipse cx="51.75" cy="163" fill="#ADD1B2" rx="11" ry="11" style="stroke: #A80036; stroke-width: 1.0;"/><path d="M54.2231,169.1431 Q53.6421,169.4419 53.0029,169.5913 Q52.3638,169.7407 51.6582,169.7407 Q49.1514,169.7407 47.8315,168.0889 Q46.5117,166.437 46.5117,163.3159 Q46.5117,160.1865 47.8315,158.5347 Q49.1514,156.8828 51.6582,156.8828 Q52.3638,156.8828 53.0112,157.0322 Q53.6587,157.1816 54.2231,157.4805 L54.2231,160.2031 Q53.5923,159.6221 52.9988,159.3523 Q52.4053,159.0825 51.7744,159.0825 Q50.4297,159.0825 49.7449,160.1492 Q49.0601,161.2158 49.0601,163.3159 Q49.0601,165.4077 49.7449,166.4744 Q50.4297,167.541 51.7744,167.541 Q52.4053,167.541 52.9988,167.2712 Q53.5923,167.0015 54.2231,166.4204 Z "/><text fill="#000000" font-family="sans-serif" font-size="12" lengthAdjust="spacingAndGlyphs" textLength="61" x="72.25" y="167.5352">AudioTask</text><line style="stroke: #A80036; stroke-width: 1.5;" x1="7" x2="166" y1="179" y2="179"/><ellipse cx="17" cy="190.9775" fill="none" rx="3" ry="3" style="stroke: #038048; stroke-width: 1.0;"/><text fill="#000000" font-family="sans-serif" font-size="11" lengthAdjust="spacingAndGlyphs" textLength="132" x="26" y="193.6348">content : MediaTaskType</text><ellipse cx="17" cy="203.9326" fill="none" rx="3" ry="3" style="stroke: #038048; stroke-width: 1.0;"/><text fill="#000000" font-family="sans-serif" font-size="11" lengthAdjust="spacingAndGlyphs" textLength="119" x="26" y="206.5898">finishDate : FinishDate</text><ellipse cx="17" cy="216.8877" fill="none" rx="3" ry="3" style="stroke: #038048; stroke-width: 1.0;"/><text fill="#000000" font-family="sans-serif" font-size="11" lengthAdjust="spacingAndGlyphs" textLength="51" x="26" y="219.5449">id : string</text><ellipse cx="17" cy="229.8428" fill="none" rx="3" ry="3" style="stroke: #038048; stroke-width: 1.0;"/><text fill="#000000" font-family="sans-serif" font-size="11" lengthAdjust="spacingAndGlyphs" textLength="135" x="26" y="232.5">owner : ITaskOwner | null</text><ellipse cx="17" cy="242.7979" fill="none" rx="3" ry="3" style="stroke: #038048; stroke-width: 1.0;"/><text fill="#000000" font-family="sans-serif" font-size="11" lengthAdjust="spacingAndGlyphs" textLength="106" x="26" y="245.4551">status : ETaskStatus</text><line style="stroke: #A80036; stroke-width: 1.5;" x1="7" x2="166" y1="251.7754" y2="251.7754"/><ellipse cx="17" cy="263.7529" fill="#84BE84" rx="3" ry="3" style="stroke: #038048; stroke-width: 1.0;"/><text fill="#000000" font-family="sans-serif" font-size="11" lengthAdjust="spacingAndGlyphs" textLength="72" x="26" y="266.4102">pause() : void</text><ellipse cx="17" cy="276.708" fill="#84BE84" rx="3" ry="3" style="stroke: #038048; stroke-width: 1.0;"/><text fill="#000000" font-family="sans-serif" font-size="11" lengthAdjust="spacingAndGlyphs" textLength="62" x="26" y="279.3652">play() : void</text><ellipse cx="17" cy="289.6631" fill="#84BE84" rx="3" ry="3" style="stroke: #038048; stroke-width: 1.0;"/><text fill="#000000" font-family="sans-serif" font-size="11" lengthAdjust="spacingAndGlyphs" textLength="64" x="26" y="292.3203">stop() : void</text><ellipse cx="17" cy="302.6182" fill="#84BE84" rx="3" ry="3" style="stroke: #038048; stroke-width: 1.0;"/><text fill="#000000" font-family="sans-serif" font-size="11" lengthAdjust="spacingAndGlyphs" textLength="74" x="26" y="305.2754">toggle() : void</text><path d="M86.5,107.23 C86.5,119.83 86.5,133.37 86.5,146.66 " fill="none" style="stroke: #A80036; stroke-width: 1.0; stroke-dasharray: 7.0,7.0;"/><polygon fill="none" points="79.5,107.11,86.5,87.11,93.5,107.11,79.5,107.11" style="stroke: #A80036; stroke-width: 1.0;"/></g></svg>