<?xml version="1.0" encoding="UTF-8" standalone="no"?><svg xmlns="http://www.w3.org/2000/svg" xmlns:xlink="http://www.w3.org/1999/xlink" contentScriptType="application/ecmascript" contentStyleType="text/css" height="307px" preserveAspectRatio="none" style="width:173px;height:307px;" version="1.1" viewBox="0 0 173 307" width="173px" zoomAndPan="magnify"><defs><filter height="300%" id="fenun4n" width="300%" x="-1" y="-1"><feGaussianBlur result="blurOut" stdDeviation="2.0"/><feColorMatrix in="blurOut" result="blurOut2" type="matrix" values="0 0 0 0 0 0 0 0 0 0 0 0 0 0 0 0 0 0 .4 0"/><feOffset dx="4.0" dy="4.0" in="blurOut2" result="blurOut3"/><feBlend in="SourceGraphic" in2="blurOut3" mode="normal"/></filter></defs><g><!--class IPlayable--><rect fill="#FEFECE" filter="url(#fenun4n)" height="78.8652" style="stroke: #A80036; stroke-width: 1.5;" width="98" x="36" y="8"/><ellipse cx="57.75" cy="24" fill="#B4A7E5" rx="11" ry="11" style="stroke: #A80036; stroke-width: 1.0;"/><path d="M54.1777,20.2651 L54.1777,18.1069 L61.5571,18.1069 L61.5571,20.2651 L59.0918,20.2651 L59.0918,28.3418 L61.5571,28.3418 L61.5571,30.5 L54.1777,30.5 L54.1777,28.3418 L56.6431,28.3418 L56.6431,20.2651 Z "/><text fill="#000000" font-family="sans-serif" font-size="12" font-style="italic" lengthAdjust="spacingAndGlyphs" textLength="51" x="73.25" y="28.5352">IPlayable</text><line style="stroke: #A80036; stroke-width: 1.5;" x1="37" x2="133" y1="40" y2="40"/><ellipse cx="47" cy="51.9775" fill="#84BE84" rx="3" ry="3" style="stroke: #038048; stroke-width: 1.0;"/><text fill="#000000" font-family="sans-serif" font-size="11" lengthAdjust="spacingAndGlyphs" textLength="72" x="56" y="54.6348">pause() : void</text><ellipse cx="47" cy="64.9326" fill="#84BE84" rx="3" ry="3" style="stroke: #038048; stroke-width: 1.0;"/><text fill="#000000" font-family="sans-serif" font-size="11" lengthAdjust="spacingAndGlyphs" textLength="62" x="56" y="67.5898">play() : void</text><ellipse cx="47" cy="77.8877" fill="#84BE84" rx="3" ry="3" style="stroke: #038048; stroke-width: 1.0;"/><text fill="#000000" font-family="sans-serif" font-size="11" lengthAdjust="spacingAndGlyphs" textLength="64" x="56" y="80.5449">stop() : void</text><!--class AudioTask--><rect fill="#FEFECE" filter="url(#fenun4n)" height="151.6406" style="stroke: #A80036; stroke-width: 1.5;" width="158" x="6" y="147"/><ellipse cx="50.25" cy="163" fill="#ADD1B2" rx="11" ry="11" style="stroke: #A80036; stroke-width: 1.0;"/><path d="M52.7231,169.1431 Q52.1421,169.4419 51.5029,169.5913 Q50.8638,169.7407 50.1582,169.7407 Q47.6514,169.7407 46.3315,168.0889 Q45.0117,166.437 45.0117,163.3159 Q45.0117,160.1865 46.3315,158.5347 Q47.6514,156.8828 50.1582,156.8828 Q50.8638,156.8828 51.5112,157.0322 Q52.1587,157.1816 52.7231,157.4805 L52.7231,160.2031 Q52.0923,159.6221 51.4988,159.3523 Q50.9053,159.0825 50.2744,159.0825 Q48.9297,159.0825 48.2449,160.1492 Q47.5601,161.2158 47.5601,163.3159 Q47.5601,165.4077 48.2449,166.4744 Q48.9297,167.541 50.2744,167.541 Q50.9053,167.541 51.4988,167.2712 Q52.0923,167.0015 52.7231,166.4204 Z "/><text fill="#000000" font-family="sans-serif" font-size="12" lengthAdjust="spacingAndGlyphs" textLength="61" x="70.75" y="167.5352">AudioTask</text><line style="stroke: #A80036; stroke-width: 1.5;" x1="7" x2="163" y1="179" y2="179"/><ellipse cx="17" cy="190.9775" fill="none" rx="3" ry="3" style="stroke: #038048; stroke-width: 1.0;"/><text fill="#000000" font-family="sans-serif" font-size="11" lengthAdjust="spacingAndGlyphs" textLength="132" x="26" y="193.6348">content : MediaTaskType</text><ellipse cx="17" cy="203.9326" fill="none" rx="3" ry="3" style="stroke: #038048; stroke-width: 1.0;"/><text fill="#000000" font-family="sans-serif" font-size="11" lengthAdjust="spacingAndGlyphs" textLength="117" x="26" y="206.5898">finishDate : Date | null</text><ellipse cx="17" cy="216.8877" fill="none" rx="3" ry="3" style="stroke: #038048; stroke-width: 1.0;"/><text fill="#000000" font-family="sans-serif" font-size="11" lengthAdjust="spacingAndGlyphs" textLength="51" x="26" y="219.5449">id : string</text><ellipse cx="17" cy="229.8428" fill="none" rx="3" ry="3" style="stroke: #038048; stroke-width: 1.0;"/><text fill="#000000" font-family="sans-serif" font-size="11" lengthAdjust="spacingAndGlyphs" textLength="106" x="26" y="232.5">status : ETaskStatus</text><line style="stroke: #A80036; stroke-width: 1.5;" x1="7" x2="163" y1="238.8203" y2="238.8203"/><ellipse cx="17" cy="250.7979" fill="#84BE84" rx="3" ry="3" style="stroke: #038048; stroke-width: 1.0;"/><text fill="#000000" font-family="sans-serif" font-size="11" lengthAdjust="spacingAndGlyphs" textLength="72" x="26" y="253.4551">pause() : void</text><ellipse cx="17" cy="263.7529" fill="#84BE84" rx="3" ry="3" style="stroke: #038048; stroke-width: 1.0;"/><text fill="#000000" font-family="sans-serif" font-size="11" lengthAdjust="spacingAndGlyphs" textLength="62" x="26" y="266.4102">play() : void</text><ellipse cx="17" cy="276.708" fill="#84BE84" rx="3" ry="3" style="stroke: #038048; stroke-width: 1.0;"/><text fill="#000000" font-family="sans-serif" font-size="11" lengthAdjust="spacingAndGlyphs" textLength="64" x="26" y="279.3652">stop() : void</text><ellipse cx="17" cy="289.6631" fill="#84BE84" rx="3" ry="3" style="stroke: #038048; stroke-width: 1.0;"/><text fill="#000000" font-family="sans-serif" font-size="11" lengthAdjust="spacingAndGlyphs" textLength="74" x="26" y="292.3203">toggle() : void</text><path d="M85,107.35 C85,120.07 85,133.69 85,146.94 " fill="none" style="stroke: #A80036; stroke-width: 1.0; stroke-dasharray: 7.0,7.0;"/><polygon fill="none" points="78,107.01,85,87.01,92,107.01,78,107.01" style="stroke: #A80036; stroke-width: 1.0;"/></g></svg>