<?xml version="1.0" encoding="UTF-8" standalone="no"?><svg xmlns="http://www.w3.org/2000/svg" xmlns:xlink="http://www.w3.org/1999/xlink" contentScriptType="application/ecmascript" contentStyleType="text/css" height="182px" preserveAspectRatio="none" style="width:620px;height:182px;" version="1.1" viewBox="0 0 620 182" width="620px" zoomAndPan="magnify"><defs><filter height="300%" id="ftzlpnd" width="300%" x="-1" y="-1"><feGaussianBlur result="blurOut" stdDeviation="2.0"/><feColorMatrix in="blurOut" result="blurOut2" type="matrix" values="0 0 0 0 0 0 0 0 0 0 0 0 0 0 0 0 0 0 .4 0"/><feOffset dx="4.0" dy="4.0" in="blurOut2" result="blurOut3"/><feBlend in="SourceGraphic" in2="blurOut3" mode="normal"/></filter></defs><g><!--class ITaskRepository--><rect fill="#FEFECE" filter="url(#ftzlpnd)" height="52.9551" style="stroke: #A80036; stroke-width: 1.5;" width="605" x="6" y="8"/><ellipse cx="258.25" cy="24" fill="#B4A7E5" rx="11" ry="11" style="stroke: #A80036; stroke-width: 1.0;"/><path d="M254.6777,20.2651 L254.6777,18.1069 L262.0571,18.1069 L262.0571,20.2651 L259.5918,20.2651 L259.5918,28.3418 L262.0571,28.3418 L262.0571,30.5 L254.6777,30.5 L254.6777,28.3418 L257.1431,28.3418 L257.1431,20.2651 Z "/><text fill="#000000" font-family="sans-serif" font-size="12" font-style="italic" lengthAdjust="spacingAndGlyphs" textLength="92" x="278.75" y="28.5352">ITaskRepository</text><line style="stroke: #A80036; stroke-width: 1.5;" x1="7" x2="610" y1="40" y2="40"/><ellipse cx="17" cy="51.9775" fill="#84BE84" rx="3" ry="3" style="stroke: #038048; stroke-width: 1.0;"/><text fill="#000000" font-family="sans-serif" font-size="11" lengthAdjust="spacingAndGlyphs" textLength="579" x="26" y="54.6348">createTask(id: string, content: TaskContentType, finishDate: Date | null, owner: ITaskOwner | null) : ITaskItem</text><!--class TaskRepository--><rect fill="#FEFECE" filter="url(#ftzlpnd)" height="52.9551" style="stroke: #A80036; stroke-width: 1.5;" width="605" x="6" y="121"/><ellipse cx="259.75" cy="137" fill="#ADD1B2" rx="11" ry="11" style="stroke: #A80036; stroke-width: 1.0;"/><path d="M262.2231,143.1431 Q261.6421,143.4419 261.0029,143.5913 Q260.3638,143.7407 259.6582,143.7407 Q257.1514,143.7407 255.8315,142.0889 Q254.5117,140.437 254.5117,137.3159 Q254.5117,134.1865 255.8315,132.5347 Q257.1514,130.8828 259.6582,130.8828 Q260.3638,130.8828 261.0112,131.0322 Q261.6587,131.1816 262.2231,131.4805 L262.2231,134.2031 Q261.5923,133.6221 260.9988,133.3523 Q260.4053,133.0825 259.7744,133.0825 Q258.4297,133.0825 257.7449,134.1492 Q257.0601,135.2158 257.0601,137.3159 Q257.0601,139.4077 257.7449,140.4744 Q258.4297,141.541 259.7744,141.541 Q260.4053,141.541 260.9988,141.2712 Q261.5923,141.0015 262.2231,140.4204 Z "/><text fill="#000000" font-family="sans-serif" font-size="12" lengthAdjust="spacingAndGlyphs" textLength="89" x="280.25" y="141.5352">TaskRepository</text><line style="stroke: #A80036; stroke-width: 1.5;" x1="7" x2="610" y1="153" y2="153"/><ellipse cx="17" cy="164.9775" fill="#84BE84" rx="3" ry="3" style="stroke: #038048; stroke-width: 1.0;"/><text fill="#000000" font-family="sans-serif" font-size="11" lengthAdjust="spacingAndGlyphs" textLength="579" x="26" y="167.6348">createTask(id: string, content: TaskContentType, finishDate: Date | null, owner: ITaskOwner | null) : ITaskItem</text><path d="M308.5,81.34 C308.5,94.85 308.5,109.15 308.5,120.89 " fill="none" style="stroke: #A80036; stroke-width: 1.0; stroke-dasharray: 7.0,7.0;"/><polygon fill="none" points="301.5,81.24,308.5,61.24,315.5,81.24,301.5,81.24" style="stroke: #A80036; stroke-width: 1.0;"/></g></svg>