<?xml version="1.0" encoding="UTF-8" standalone="no"?><svg xmlns="http://www.w3.org/2000/svg" xmlns:xlink="http://www.w3.org/1999/xlink" contentScriptType="application/ecmascript" contentStyleType="text/css" height="328px" preserveAspectRatio="none" style="width:344px;height:328px;" version="1.1" viewBox="0 0 344 328" width="344px" zoomAndPan="magnify"><defs><filter height="300%" id="fro32rd" width="300%" x="-1" y="-1"><feGaussianBlur result="blurOut" stdDeviation="2.0"/><feColorMatrix in="blurOut" result="blurOut2" type="matrix" values="0 0 0 0 0 0 0 0 0 0 0 0 0 0 0 0 0 0 .4 0"/><feOffset dx="4.0" dy="4.0" in="blurOut2" result="blurOut3"/><feBlend in="SourceGraphic" in2="blurOut3" mode="normal"/></filter></defs><g><!--class ITaskListRepository--><rect fill="#FEFECE" filter="url(#fro32rd)" height="125.7305" style="stroke: #A80036; stroke-width: 1.5;" width="325" x="8" y="8"/><ellipse cx="110.75" cy="24" fill="#B4A7E5" rx="11" ry="11" style="stroke: #A80036; stroke-width: 1.0;"/><path d="M107.1777,20.2651 L107.1777,18.1069 L114.5571,18.1069 L114.5571,20.2651 L112.0918,20.2651 L112.0918,28.3418 L114.5571,28.3418 L114.5571,30.5 L107.1777,30.5 L107.1777,28.3418 L109.6431,28.3418 L109.6431,20.2651 Z "/><text fill="#000000" font-family="sans-serif" font-size="12" font-style="italic" lengthAdjust="spacingAndGlyphs" textLength="111" x="131.25" y="28.5352">ITaskListRepository</text><line style="stroke: #A80036; stroke-width: 1.5;" x1="9" x2="332" y1="40" y2="40"/><ellipse cx="19" cy="51.9775" fill="none" rx="3" ry="3" style="stroke: #038048; stroke-width: 1.0;"/><text fill="#000000" font-family="sans-serif" font-size="11" lengthAdjust="spacingAndGlyphs" textLength="149" x="28" y="54.6348">taskList : Array&lt;ITaskItem&gt;</text><line style="stroke: #A80036; stroke-width: 1.5;" x1="9" x2="332" y1="60.9551" y2="60.9551"/><ellipse cx="19" cy="72.9326" fill="#84BE84" rx="3" ry="3" style="stroke: #038048; stroke-width: 1.0;"/><text fill="#000000" font-family="sans-serif" font-size="11" lengthAdjust="spacingAndGlyphs" textLength="228" x="28" y="75.5898">addTask(t: ITaskItem) : ITaskListRepository</text><ellipse cx="19" cy="85.8877" fill="#84BE84" rx="3" ry="3" style="stroke: #038048; stroke-width: 1.0;"/><text fill="#000000" font-family="sans-serif" font-size="11" lengthAdjust="spacingAndGlyphs" textLength="211" x="28" y="88.5449">delTask(id: string) : ITaskListRepository</text><ellipse cx="19" cy="98.8428" fill="#84BE84" rx="3" ry="3" style="stroke: #038048; stroke-width: 1.0;"/><text fill="#000000" font-family="sans-serif" font-size="11" lengthAdjust="spacingAndGlyphs" textLength="188" x="28" y="101.5">getTask(id: string) : ITaskItem | null</text><ellipse cx="19" cy="111.7979" fill="#84BE84" rx="3" ry="3" style="stroke: #038048; stroke-width: 1.0;"/><text fill="#000000" font-family="sans-serif" font-size="11" lengthAdjust="spacingAndGlyphs" textLength="288" x="28" y="114.4551">instance(list: Array&lt;ITaskItem&gt;) : ITaskListRepository</text><ellipse cx="19" cy="124.7529" fill="#84BE84" rx="3" ry="3" style="stroke: #038048; stroke-width: 1.0;"/><text fill="#000000" font-family="sans-serif" font-size="11" lengthAdjust="spacingAndGlyphs" textLength="299" x="28" y="127.4102">updateTask(id: string, t: ITaskItem) : ITaskListRepository</text><!--class TaskListRepository--><rect fill="#FEFECE" filter="url(#fro32rd)" height="125.7305" style="stroke: #A80036; stroke-width: 1.5;" width="329" x="6" y="194"/><ellipse cx="112.25" cy="210" fill="#ADD1B2" rx="11" ry="11" style="stroke: #A80036; stroke-width: 1.0;"/><path d="M114.7231,216.1431 Q114.1421,216.4419 113.5029,216.5913 Q112.8638,216.7407 112.1582,216.7407 Q109.6514,216.7407 108.3315,215.0889 Q107.0117,213.437 107.0117,210.3159 Q107.0117,207.1865 108.3315,205.5347 Q109.6514,203.8828 112.1582,203.8828 Q112.8638,203.8828 113.5112,204.0322 Q114.1587,204.1816 114.7231,204.4805 L114.7231,207.2031 Q114.0923,206.6221 113.4988,206.3523 Q112.9053,206.0825 112.2744,206.0825 Q110.9297,206.0825 110.2449,207.1492 Q109.5601,208.2158 109.5601,210.3159 Q109.5601,212.4077 110.2449,213.4744 Q110.9297,214.541 112.2744,214.541 Q112.9053,214.541 113.4988,214.2712 Q114.0923,214.0015 114.7231,213.4204 Z "/><text fill="#000000" font-family="sans-serif" font-size="12" lengthAdjust="spacingAndGlyphs" textLength="108" x="132.75" y="214.5352">TaskListRepository</text><line style="stroke: #A80036; stroke-width: 1.5;" x1="7" x2="334" y1="226" y2="226"/><rect fill="none" height="6" style="stroke: #C82930; stroke-width: 1.0;" width="6" x="14" y="234.9775"/><text fill="#000000" font-family="sans-serif" font-size="11" lengthAdjust="spacingAndGlyphs" textLength="155" x="26" y="240.6348">_taskList : Array&lt;ITaskItem&gt;</text><line style="stroke: #A80036; stroke-width: 1.5;" x1="7" x2="334" y1="246.9551" y2="246.9551"/><ellipse cx="17" cy="258.9326" fill="#84BE84" rx="3" ry="3" style="stroke: #038048; stroke-width: 1.0;"/><text fill="#000000" font-family="sans-serif" font-size="11" lengthAdjust="spacingAndGlyphs" textLength="143" x="26" y="261.5898">addTask(t: ITaskItem) : this</text><ellipse cx="17" cy="271.8877" fill="#84BE84" rx="3" ry="3" style="stroke: #038048; stroke-width: 1.0;"/><text fill="#000000" font-family="sans-serif" font-size="11" lengthAdjust="spacingAndGlyphs" textLength="126" x="26" y="274.5449">delTask(id: string) : this</text><ellipse cx="17" cy="284.8428" fill="#84BE84" rx="3" ry="3" style="stroke: #038048; stroke-width: 1.0;"/><text fill="#000000" font-family="sans-serif" font-size="11" lengthAdjust="spacingAndGlyphs" textLength="188" x="26" y="287.5">getTask(id: string) : ITaskItem | null</text><ellipse cx="17" cy="297.7979" fill="#84BE84" rx="3" ry="3" style="stroke: #038048; stroke-width: 1.0;"/><text fill="#000000" font-family="sans-serif" font-size="11" lengthAdjust="spacingAndGlyphs" textLength="303" x="26" y="300.4551">instance(list: Array&lt;ITaskItem&gt;) : TaskListRepository&lt;&gt;</text><ellipse cx="17" cy="310.7529" fill="#84BE84" rx="3" ry="3" style="stroke: #038048; stroke-width: 1.0;"/><text fill="#000000" font-family="sans-serif" font-size="11" lengthAdjust="spacingAndGlyphs" textLength="214" x="26" y="313.4102">updateTask(id: string, t: ITaskItem) : this</text><path d="M170.5,154.48 C170.5,167.73 170.5,181.25 170.5,193.92 " fill="none" style="stroke: #A80036; stroke-width: 1.0; stroke-dasharray: 7.0,7.0;"/><polygon fill="none" points="163.5,154.04,170.5,134.04,177.5,154.04,163.5,154.04" style="stroke: #A80036; stroke-width: 1.0;"/></g></svg>