<?xml version="1.0" encoding="UTF-8" standalone="no"?><svg xmlns="http://www.w3.org/2000/svg" xmlns:xlink="http://www.w3.org/1999/xlink" contentScriptType="application/ecmascript" contentStyleType="text/css" height="289px" preserveAspectRatio="none" style="width:206px;height:289px;" version="1.1" viewBox="0 0 206 289" width="206px" zoomAndPan="magnify"><defs><filter height="300%" id="fytdn8w" width="300%" x="-1" y="-1"><feGaussianBlur result="blurOut" stdDeviation="2.0"/><feColorMatrix in="blurOut" result="blurOut2" type="matrix" values="0 0 0 0 0 0 0 0 0 0 0 0 0 0 0 0 0 0 .4 0"/><feOffset dx="4.0" dy="4.0" in="blurOut2" result="blurOut3"/><feBlend in="SourceGraphic" in2="blurOut3" mode="normal"/></filter></defs><g><!--class ITaskItem--><rect fill="#FEFECE" filter="url(#fytdn8w)" height="99.8203" style="stroke: #A80036; stroke-width: 1.5;" width="170" x="16.5" y="8"/><ellipse cx="69.25" cy="24" fill="#B4A7E5" rx="11" ry="11" style="stroke: #A80036; stroke-width: 1.0;"/><path d="M65.6777,20.2651 L65.6777,18.1069 L73.0571,18.1069 L73.0571,20.2651 L70.5918,20.2651 L70.5918,28.3418 L73.0571,28.3418 L73.0571,30.5 L65.6777,30.5 L65.6777,28.3418 L68.1431,28.3418 L68.1431,20.2651 Z "/><text fill="#000000" font-family="sans-serif" font-size="12" font-style="italic" lengthAdjust="spacingAndGlyphs" textLength="56" x="89.75" y="28.5352">ITaskItem</text><line style="stroke: #A80036; stroke-width: 1.5;" x1="17.5" x2="185.5" y1="40" y2="40"/><ellipse cx="27.5" cy="51.9775" fill="none" rx="3" ry="3" style="stroke: #038048; stroke-width: 1.0;"/><text fill="#000000" font-family="sans-serif" font-size="11" lengthAdjust="spacingAndGlyphs" textLength="144" x="36.5" y="54.6348">content : TaskContentType</text><ellipse cx="27.5" cy="64.9326" fill="none" rx="3" ry="3" style="stroke: #038048; stroke-width: 1.0;"/><text fill="#000000" font-family="sans-serif" font-size="11" lengthAdjust="spacingAndGlyphs" textLength="51" x="36.5" y="67.5898">id : string</text><ellipse cx="27.5" cy="77.8877" fill="none" rx="3" ry="3" style="stroke: #038048; stroke-width: 1.0;"/><text fill="#000000" font-family="sans-serif" font-size="11" lengthAdjust="spacingAndGlyphs" textLength="106" x="36.5" y="80.5449">status : ETaskStatus</text><line style="stroke: #A80036; stroke-width: 1.5;" x1="17.5" x2="185.5" y1="86.8652" y2="86.8652"/><ellipse cx="27.5" cy="98.8428" fill="#84BE84" rx="3" ry="3" style="stroke: #038048; stroke-width: 1.0;"/><text fill="#000000" font-family="sans-serif" font-size="11" lengthAdjust="spacingAndGlyphs" textLength="74" x="36.5" y="101.5">toggle() : void</text><!--class Task--><rect fill="#FEFECE" filter="url(#fytdn8w)" height="112.7754" style="stroke: #A80036; stroke-width: 1.5;" width="191" x="6" y="168"/><ellipse cx="83.25" cy="184" fill="#ADD1B2" rx="11" ry="11" style="stroke: #A80036; stroke-width: 1.0;"/><path d="M85.7231,190.1431 Q85.1421,190.4419 84.5029,190.5913 Q83.8638,190.7407 83.1582,190.7407 Q80.6514,190.7407 79.3315,189.0889 Q78.0117,187.437 78.0117,184.3159 Q78.0117,181.1865 79.3315,179.5347 Q80.6514,177.8828 83.1582,177.8828 Q83.8638,177.8828 84.5112,178.0322 Q85.1587,178.1816 85.7231,178.4805 L85.7231,181.2031 Q85.0923,180.6221 84.4988,180.3523 Q83.9053,180.0825 83.2744,180.0825 Q81.9297,180.0825 81.2449,181.1492 Q80.5601,182.2158 80.5601,184.3159 Q80.5601,186.4077 81.2449,187.4744 Q81.9297,188.541 83.2744,188.541 Q83.9053,188.541 84.4988,188.2712 Q85.0923,188.0015 85.7231,187.4204 Z "/><text fill="#000000" font-family="sans-serif" font-size="12" lengthAdjust="spacingAndGlyphs" textLength="28" x="103.75" y="188.5352">Task</text><line style="stroke: #A80036; stroke-width: 1.5;" x1="7" x2="196" y1="200" y2="200"/><ellipse cx="17" cy="211.9775" fill="none" rx="3" ry="3" style="stroke: #038048; stroke-width: 1.0;"/><text fill="#000000" font-family="sans-serif" font-size="11" lengthAdjust="spacingAndGlyphs" textLength="57" x="26" y="214.6348">content : T</text><ellipse cx="17" cy="224.9326" fill="none" rx="3" ry="3" style="stroke: #038048; stroke-width: 1.0;"/><text fill="#000000" font-family="sans-serif" font-size="11" lengthAdjust="spacingAndGlyphs" textLength="51" x="26" y="227.5898">id : string</text><ellipse cx="17" cy="237.8877" fill="none" rx="3" ry="3" style="stroke: #038048; stroke-width: 1.0;"/><text fill="#000000" font-family="sans-serif" font-size="11" lengthAdjust="spacingAndGlyphs" textLength="106" x="26" y="240.5449">status : ETaskStatus</text><line style="stroke: #A80036; stroke-width: 1.5;" x1="7" x2="196" y1="246.8652" y2="246.8652"/><rect fill="#F24D5C" height="6" style="stroke: #C82930; stroke-width: 1.0;" width="6" x="14" y="255.8428"/><text fill="#000000" font-family="sans-serif" font-size="11" lengthAdjust="spacingAndGlyphs" textLength="165" x="26" y="261.5">setStatus(s: ETaskStatus) : void</text><ellipse cx="17" cy="271.7979" fill="#84BE84" rx="3" ry="3" style="stroke: #038048; stroke-width: 1.0;"/><text fill="#000000" font-family="sans-serif" font-size="11" lengthAdjust="spacingAndGlyphs" textLength="74" x="26" y="274.4551">toggle() : void</text><path d="M101.5,128.45 C101.5,141.59 101.5,155.19 101.5,167.84 " fill="none" style="stroke: #A80036; stroke-width: 1.0; stroke-dasharray: 7.0,7.0;"/><polygon fill="none" points="94.5,128.36,101.5,108.36,108.5,128.36,94.5,128.36" style="stroke: #A80036; stroke-width: 1.0;"/></g></svg>