<?xml version="1.0" encoding="UTF-8" standalone="no"?><svg xmlns="http://www.w3.org/2000/svg" xmlns:xlink="http://www.w3.org/1999/xlink" contentScriptType="application/ecmascript" contentStyleType="text/css" height="203px" preserveAspectRatio="none" style="width:278px;height:203px;" version="1.1" viewBox="0 0 278 203" width="278px" zoomAndPan="magnify"><defs><filter height="300%" id="fxz6guo" width="300%" x="-1" y="-1"><feGaussianBlur result="blurOut" stdDeviation="2.0"/><feColorMatrix in="blurOut" result="blurOut2" type="matrix" values="0 0 0 0 0 0 0 0 0 0 0 0 0 0 0 0 0 0 .4 0"/><feOffset dx="4.0" dy="4.0" in="blurOut2" result="blurOut3"/><feBlend in="SourceGraphic" in2="blurOut3" mode="normal"/></filter></defs><g><!--class ITaskTransfer--><rect fill="#FEFECE" filter="url(#fxz6guo)" height="52.9551" style="stroke: #A80036; stroke-width: 1.5;" width="263" x="6" y="8"/><ellipse cx="93.25" cy="24" fill="#B4A7E5" rx="11" ry="11" style="stroke: #A80036; stroke-width: 1.0;"/><path d="M89.6777,20.2651 L89.6777,18.1069 L97.0571,18.1069 L97.0571,20.2651 L94.5918,20.2651 L94.5918,28.3418 L97.0571,28.3418 L97.0571,30.5 L89.6777,30.5 L89.6777,28.3418 L92.1431,28.3418 L92.1431,20.2651 Z "/><text fill="#000000" font-family="sans-serif" font-size="12" font-style="italic" lengthAdjust="spacingAndGlyphs" textLength="80" x="113.75" y="28.5352">ITaskTransfer</text><line style="stroke: #A80036; stroke-width: 1.5;" x1="7" x2="268" y1="40" y2="40"/><ellipse cx="17" cy="51.9775" fill="#84BE84" rx="3" ry="3" style="stroke: #038048; stroke-width: 1.0;"/><text fill="#000000" font-family="sans-serif" font-size="11" lengthAdjust="spacingAndGlyphs" textLength="237" x="26" y="54.6348">transfer(t: IPeriodTask, o: ITaskOwner) : void</text><!--class TaskTransfer--><rect fill="#FEFECE" filter="url(#fxz6guo)" height="73.9102" style="stroke: #A80036; stroke-width: 1.5;" width="263" x="6" y="121"/><ellipse cx="94.75" cy="137" fill="#ADD1B2" rx="11" ry="11" style="stroke: #A80036; stroke-width: 1.0;"/><path d="M97.2231,143.1431 Q96.6421,143.4419 96.0029,143.5913 Q95.3638,143.7407 94.6582,143.7407 Q92.1514,143.7407 90.8315,142.0889 Q89.5117,140.437 89.5117,137.3159 Q89.5117,134.1865 90.8315,132.5347 Q92.1514,130.8828 94.6582,130.8828 Q95.3638,130.8828 96.0112,131.0322 Q96.6587,131.1816 97.2231,131.4805 L97.2231,134.2031 Q96.5923,133.6221 95.9988,133.3523 Q95.4053,133.0825 94.7744,133.0825 Q93.4297,133.0825 92.7449,134.1492 Q92.0601,135.2158 92.0601,137.3159 Q92.0601,139.4077 92.7449,140.4744 Q93.4297,141.541 94.7744,141.541 Q95.4053,141.541 95.9988,141.2712 Q96.5923,141.0015 97.2231,140.4204 Z "/><text fill="#000000" font-family="sans-serif" font-size="12" lengthAdjust="spacingAndGlyphs" textLength="77" x="115.25" y="141.5352">TaskTransfer</text><line style="stroke: #A80036; stroke-width: 1.5;" x1="7" x2="268" y1="153" y2="153"/><rect fill="none" height="6" style="stroke: #C82930; stroke-width: 1.0;" width="6" x="14" y="161.9775"/><text fill="#000000" font-family="sans-serif" font-size="11" lengthAdjust="spacingAndGlyphs" textLength="139" x="26" y="167.6348">repo : ITaskListRepository</text><line style="stroke: #A80036; stroke-width: 1.5;" x1="7" x2="268" y1="173.9551" y2="173.9551"/><ellipse cx="17" cy="185.9326" fill="#84BE84" rx="3" ry="3" style="stroke: #038048; stroke-width: 1.0;"/><text fill="#000000" font-family="sans-serif" font-size="11" lengthAdjust="spacingAndGlyphs" textLength="237" x="26" y="188.5898">transfer(t: IPeriodTask, o: ITaskOwner) : void</text><path d="M137.5,81.66 C137.5,94.57 137.5,108.42 137.5,120.67 " fill="none" style="stroke: #A80036; stroke-width: 1.0; stroke-dasharray: 7.0,7.0;"/><polygon fill="none" points="130.5,81.27,137.5,61.27,144.5,81.27,130.5,81.27" style="stroke: #A80036; stroke-width: 1.0;"/></g></svg>