<?xml version="1.0" encoding="UTF-8" standalone="no"?><svg xmlns="http://www.w3.org/2000/svg" xmlns:xlink="http://www.w3.org/1999/xlink" contentScriptType="application/ecmascript" contentStyleType="text/css" height="216px" preserveAspectRatio="none" style="width:627px;height:216px;" version="1.1" viewBox="0 0 627 216" width="627px" zoomAndPan="magnify"><defs><filter height="300%" id="fe5bnzc" width="300%" x="-1" y="-1"><feGaussianBlur result="blurOut" stdDeviation="2.0"/><feColorMatrix in="blurOut" result="blurOut2" type="matrix" values="0 0 0 0 0 0 0 0 0 0 0 0 0 0 0 0 0 0 .4 0"/><feOffset dx="4.0" dy="4.0" in="blurOut2" result="blurOut3"/><feBlend in="SourceGraphic" in2="blurOut3" mode="normal"/></filter></defs><g><!--class ITaskUsecase--><rect fill="#FEFECE" filter="url(#fe5bnzc)" height="52.9551" style="stroke: #A80036; stroke-width: 1.5;" width="612" x="6" y="8"/><ellipse cx="268.75" cy="24" fill="#B4A7E5" rx="11" ry="11" style="stroke: #A80036; stroke-width: 1.0;"/><path d="M265.1777,20.2651 L265.1777,18.1069 L272.5571,18.1069 L272.5571,20.2651 L270.0918,20.2651 L270.0918,28.3418 L272.5571,28.3418 L272.5571,30.5 L265.1777,30.5 L265.1777,28.3418 L267.6431,28.3418 L267.6431,20.2651 Z "/><text fill="#000000" font-family="sans-serif" font-size="12" font-style="italic" lengthAdjust="spacingAndGlyphs" textLength="78" x="289.25" y="28.5352">ITaskUsecase</text><line style="stroke: #A80036; stroke-width: 1.5;" x1="7" x2="617" y1="40" y2="40"/><ellipse cx="17" cy="51.9775" fill="#84BE84" rx="3" ry="3" style="stroke: #038048; stroke-width: 1.0;"/><text fill="#000000" font-family="sans-serif" font-size="11" lengthAdjust="spacingAndGlyphs" textLength="586" x="26" y="54.6348">createTask(content: TaskContentType, finishDate: Date | null, owner: ITaskOwner | null) : Promise&lt;ITaskItem&gt;</text><!--class TaskUsecase--><rect fill="#FEFECE" filter="url(#fe5bnzc)" height="86.8652" style="stroke: #A80036; stroke-width: 1.5;" width="612" x="6" y="121"/><ellipse cx="270.25" cy="137" fill="#ADD1B2" rx="11" ry="11" style="stroke: #A80036; stroke-width: 1.0;"/><path d="M272.7231,143.1431 Q272.1421,143.4419 271.5029,143.5913 Q270.8638,143.7407 270.1582,143.7407 Q267.6514,143.7407 266.3315,142.0889 Q265.0117,140.437 265.0117,137.3159 Q265.0117,134.1865 266.3315,132.5347 Q267.6514,130.8828 270.1582,130.8828 Q270.8638,130.8828 271.5112,131.0322 Q272.1587,131.1816 272.7231,131.4805 L272.7231,134.2031 Q272.0923,133.6221 271.4988,133.3523 Q270.9053,133.0825 270.2744,133.0825 Q268.9297,133.0825 268.2449,134.1492 Q267.5601,135.2158 267.5601,137.3159 Q267.5601,139.4077 268.2449,140.4744 Q268.9297,141.541 270.2744,141.541 Q270.9053,141.541 271.4988,141.2712 Q272.0923,141.0015 272.7231,140.4204 Z "/><text fill="#000000" font-family="sans-serif" font-size="12" lengthAdjust="spacingAndGlyphs" textLength="75" x="290.75" y="141.5352">TaskUsecase</text><line style="stroke: #A80036; stroke-width: 1.5;" x1="7" x2="617" y1="153" y2="153"/><rect fill="none" height="6" style="stroke: #C82930; stroke-width: 1.0;" width="6" x="14" y="161.9775"/><text fill="#000000" font-family="sans-serif" font-size="11" lengthAdjust="spacingAndGlyphs" textLength="120" x="26" y="167.6348">repo : ITaskRepository</text><rect fill="none" height="6" style="stroke: #C82930; stroke-width: 1.0;" width="6" x="14" y="174.9326"/><text fill="#000000" font-family="sans-serif" font-size="11" lengthAdjust="spacingAndGlyphs" textLength="81" x="26" y="180.5898">s : ITaskService</text><line style="stroke: #A80036; stroke-width: 1.5;" x1="7" x2="617" y1="186.9102" y2="186.9102"/><ellipse cx="17" cy="198.8877" fill="#84BE84" rx="3" ry="3" style="stroke: #038048; stroke-width: 1.0;"/><text fill="#000000" font-family="sans-serif" font-size="11" lengthAdjust="spacingAndGlyphs" textLength="586" x="26" y="201.5449">createTask(content: TaskContentType, finishDate: Date | null, owner: ITaskOwner | null) : Promise&lt;ITaskItem&gt;</text><path d="M312,81.33 C312,94.2 312,108.14 312,120.81 " fill="none" style="stroke: #A80036; stroke-width: 1.0; stroke-dasharray: 7.0,7.0;"/><polygon fill="none" points="305,81.1,312,61.1,319,81.1,305,81.1" style="stroke: #A80036; stroke-width: 1.0;"/></g></svg>