<?xml version="1.0" encoding="UTF-8" standalone="no"?><svg xmlns="http://www.w3.org/2000/svg" xmlns:xlink="http://www.w3.org/1999/xlink" contentScriptType="application/ecmascript" contentStyleType="text/css" height="540px" preserveAspectRatio="none" style="width:582px;height:540px;" version="1.1" viewBox="0 0 582 540" width="582px" zoomAndPan="magnify"><defs><filter height="300%" id="f6gyv7v" width="300%" x="-1" y="-1"><feGaussianBlur result="blurOut" stdDeviation="2.0"/><feColorMatrix in="blurOut" result="blurOut2" type="matrix" values="0 0 0 0 0 0 0 0 0 0 0 0 0 0 0 0 0 0 .4 0"/><feOffset dx="4.0" dy="4.0" in="blurOut2" result="blurOut3"/><feBlend in="SourceGraphic" in2="blurOut3" mode="normal"/></filter></defs><g><!--class PeriodTask--><rect fill="#FEFECE" filter="url(#f6gyv7v)" height="125.7305" style="stroke: #A80036; stroke-width: 1.5;" width="161" x="224" y="181"/><ellipse cx="267.8" cy="197" fill="#ADD1B2" rx="11" ry="11" style="stroke: #A80036; stroke-width: 1.0;"/><path d="M270.2731,203.1431 Q269.6921,203.4419 269.0529,203.5913 Q268.4138,203.7407 267.7082,203.7407 Q265.2014,203.7407 263.8815,202.0889 Q262.5617,200.437 262.5617,197.3159 Q262.5617,194.1865 263.8815,192.5347 Q265.2014,190.8828 267.7082,190.8828 Q268.4138,190.8828 269.0612,191.0322 Q269.7087,191.1816 270.2731,191.4805 L270.2731,194.2031 Q269.6423,193.6221 269.0488,193.3523 Q268.4553,193.0825 267.8244,193.0825 Q266.4797,193.0825 265.7949,194.1492 Q265.1101,195.2158 265.1101,197.3159 Q265.1101,199.4077 265.7949,200.4744 Q266.4797,201.541 267.8244,201.541 Q268.4553,201.541 269.0488,201.2712 Q269.6423,201.0015 270.2731,200.4204 Z "/><text fill="#000000" font-family="sans-serif" font-size="12" lengthAdjust="spacingAndGlyphs" textLength="65" x="288.2" y="201.5352">PeriodTask</text><line style="stroke: #A80036; stroke-width: 1.5;" x1="225" x2="384" y1="213" y2="213"/><ellipse cx="235" cy="224.9775" fill="none" rx="3" ry="3" style="stroke: #038048; stroke-width: 1.0;"/><text fill="#000000" font-family="sans-serif" font-size="11" lengthAdjust="spacingAndGlyphs" textLength="57" x="244" y="227.6348">content : T</text><ellipse cx="235" cy="237.9326" fill="none" rx="3" ry="3" style="stroke: #038048; stroke-width: 1.0;"/><text fill="#000000" font-family="sans-serif" font-size="11" lengthAdjust="spacingAndGlyphs" textLength="119" x="244" y="240.5898">finishDate : FinishDate</text><ellipse cx="235" cy="250.8877" fill="none" rx="3" ry="3" style="stroke: #038048; stroke-width: 1.0;"/><text fill="#000000" font-family="sans-serif" font-size="11" lengthAdjust="spacingAndGlyphs" textLength="51" x="244" y="253.5449">id : string</text><ellipse cx="235" cy="263.8428" fill="none" rx="3" ry="3" style="stroke: #038048; stroke-width: 1.0;"/><text fill="#000000" font-family="sans-serif" font-size="11" lengthAdjust="spacingAndGlyphs" textLength="135" x="244" y="266.5">owner : ITaskOwner | null</text><ellipse cx="235" cy="276.7979" fill="none" rx="3" ry="3" style="stroke: #038048; stroke-width: 1.0;"/><text fill="#000000" font-family="sans-serif" font-size="11" lengthAdjust="spacingAndGlyphs" textLength="106" x="244" y="279.4551">status : ETaskStatus</text><line style="stroke: #A80036; stroke-width: 1.5;" x1="225" x2="384" y1="285.7754" y2="285.7754"/><ellipse cx="235" cy="297.7529" fill="#84BE84" rx="3" ry="3" style="stroke: #038048; stroke-width: 1.0;"/><text fill="#000000" font-family="sans-serif" font-size="11" lengthAdjust="spacingAndGlyphs" textLength="74" x="244" y="300.4102">toggle() : void</text><!--class Task--><rect fill="#FEFECE" filter="url(#f6gyv7v)" height="112.7754" style="stroke: #A80036; stroke-width: 1.5;" width="191" x="6" y="8"/><ellipse cx="83.25" cy="24" fill="#ADD1B2" rx="11" ry="11" style="stroke: #A80036; stroke-width: 1.0;"/><path d="M85.7231,30.1431 Q85.1421,30.4419 84.5029,30.5913 Q83.8638,30.7407 83.1582,30.7407 Q80.6514,30.7407 79.3315,29.0889 Q78.0117,27.437 78.0117,24.3159 Q78.0117,21.1865 79.3315,19.5347 Q80.6514,17.8828 83.1582,17.8828 Q83.8638,17.8828 84.5112,18.0322 Q85.1587,18.1816 85.7231,18.4805 L85.7231,21.2031 Q85.0923,20.6221 84.4988,20.3523 Q83.9053,20.0825 83.2744,20.0825 Q81.9297,20.0825 81.2449,21.1492 Q80.5601,22.2158 80.5601,24.3159 Q80.5601,26.4077 81.2449,27.4744 Q81.9297,28.541 83.2744,28.541 Q83.9053,28.541 84.4988,28.2712 Q85.0923,28.0015 85.7231,27.4204 Z "/><text fill="#000000" font-family="sans-serif" font-size="12" lengthAdjust="spacingAndGlyphs" textLength="28" x="103.75" y="28.5352">Task</text><line style="stroke: #A80036; stroke-width: 1.5;" x1="7" x2="196" y1="40" y2="40"/><ellipse cx="17" cy="51.9775" fill="none" rx="3" ry="3" style="stroke: #038048; stroke-width: 1.0;"/><text fill="#000000" font-family="sans-serif" font-size="11" lengthAdjust="spacingAndGlyphs" textLength="57" x="26" y="54.6348">content : T</text><ellipse cx="17" cy="64.9326" fill="none" rx="3" ry="3" style="stroke: #038048; stroke-width: 1.0;"/><text fill="#000000" font-family="sans-serif" font-size="11" lengthAdjust="spacingAndGlyphs" textLength="51" x="26" y="67.5898">id : string</text><ellipse cx="17" cy="77.8877" fill="none" rx="3" ry="3" style="stroke: #038048; stroke-width: 1.0;"/><text fill="#000000" font-family="sans-serif" font-size="11" lengthAdjust="spacingAndGlyphs" textLength="106" x="26" y="80.5449">status : ETaskStatus</text><line style="stroke: #A80036; stroke-width: 1.5;" x1="7" x2="196" y1="86.8652" y2="86.8652"/><rect fill="#F24D5C" height="6" style="stroke: #C82930; stroke-width: 1.0;" width="6" x="14" y="95.8428"/><text fill="#000000" font-family="sans-serif" font-size="11" lengthAdjust="spacingAndGlyphs" textLength="165" x="26" y="101.5">setStatus(s: ETaskStatus) : void</text><ellipse cx="17" cy="111.7979" fill="#84BE84" rx="3" ry="3" style="stroke: #038048; stroke-width: 1.0;"/><text fill="#000000" font-family="sans-serif" font-size="11" lengthAdjust="spacingAndGlyphs" textLength="74" x="26" y="114.4551">toggle() : void</text><!--class IPeriodLimit--><rect fill="#FEFECE" filter="url(#f6gyv7v)" height="52.9551" style="stroke: #A80036; stroke-width: 1.5;" width="145" x="232" y="38"/><ellipse cx="267.7" cy="54" fill="#B4A7E5" rx="11" ry="11" style="stroke: #A80036; stroke-width: 1.0;"/><path d="M264.1277,50.2651 L264.1277,48.1069 L271.5071,48.1069 L271.5071,50.2651 L269.0418,50.2651 L269.0418,58.3418 L271.5071,58.3418 L271.5071,60.5 L264.1277,60.5 L264.1277,58.3418 L266.5931,58.3418 L266.5931,50.2651 Z "/><text fill="#000000" font-family="sans-serif" font-size="12" font-style="italic" lengthAdjust="spacingAndGlyphs" textLength="67" x="286.3" y="58.5352">IPeriodLimit</text><line style="stroke: #A80036; stroke-width: 1.5;" x1="233" x2="376" y1="70" y2="70"/><ellipse cx="243" cy="81.9775" fill="none" rx="3" ry="3" style="stroke: #038048; stroke-width: 1.0;"/><text fill="#000000" font-family="sans-serif" font-size="11" lengthAdjust="spacingAndGlyphs" textLength="119" x="252" y="84.6348">finishDate : FinishDate</text><!--class IOwnership--><rect fill="#FEFECE" filter="url(#f6gyv7v)" height="52.9551" style="stroke: #A80036; stroke-width: 1.5;" width="161" x="412" y="38"/><ellipse cx="456.25" cy="54" fill="#B4A7E5" rx="11" ry="11" style="stroke: #A80036; stroke-width: 1.0;"/><path d="M452.6777,50.2651 L452.6777,48.1069 L460.0571,48.1069 L460.0571,50.2651 L457.5918,50.2651 L457.5918,58.3418 L460.0571,58.3418 L460.0571,60.5 L452.6777,60.5 L452.6777,58.3418 L455.1431,58.3418 L455.1431,50.2651 Z "/><text fill="#000000" font-family="sans-serif" font-size="12" font-style="italic" lengthAdjust="spacingAndGlyphs" textLength="64" x="476.75" y="58.5352">IOwnership</text><line style="stroke: #A80036; stroke-width: 1.5;" x1="413" x2="572" y1="70" y2="70"/><ellipse cx="423" cy="81.9775" fill="none" rx="3" ry="3" style="stroke: #038048; stroke-width: 1.0;"/><text fill="#000000" font-family="sans-serif" font-size="11" lengthAdjust="spacingAndGlyphs" textLength="135" x="432" y="84.6348">owner : ITaskOwner | null</text><!--class TextTask--><rect fill="#FEFECE" filter="url(#f6gyv7v)" height="125.7305" style="stroke: #A80036; stroke-width: 1.5;" width="161" x="126" y="386.5"/><ellipse cx="175.25" cy="402.5" fill="#ADD1B2" rx="11" ry="11" style="stroke: #A80036; stroke-width: 1.0;"/><path d="M177.7231,408.6431 Q177.1421,408.9419 176.5029,409.0913 Q175.8638,409.2407 175.1582,409.2407 Q172.6514,409.2407 171.3315,407.5889 Q170.0117,405.937 170.0117,402.8159 Q170.0117,399.6865 171.3315,398.0347 Q172.6514,396.3828 175.1582,396.3828 Q175.8638,396.3828 176.5112,396.5322 Q177.1587,396.6816 177.7231,396.9805 L177.7231,399.7031 Q177.0923,399.1221 176.4988,398.8523 Q175.9053,398.5825 175.2744,398.5825 Q173.9297,398.5825 173.2449,399.6492 Q172.5601,400.7158 172.5601,402.8159 Q172.5601,404.9077 173.2449,405.9744 Q173.9297,407.041 175.2744,407.041 Q175.9053,407.041 176.4988,406.7712 Q177.0923,406.5015 177.7231,405.9204 Z "/><text fill="#000000" font-family="sans-serif" font-size="12" lengthAdjust="spacingAndGlyphs" textLength="54" x="195.75" y="407.0352">TextTask</text><line style="stroke: #A80036; stroke-width: 1.5;" x1="127" x2="286" y1="418.5" y2="418.5"/><ellipse cx="137" cy="430.4775" fill="none" rx="3" ry="3" style="stroke: #038048; stroke-width: 1.0;"/><text fill="#000000" font-family="sans-serif" font-size="11" lengthAdjust="spacingAndGlyphs" textLength="125" x="146" y="433.1348">content : TextTaskType</text><ellipse cx="137" cy="443.4326" fill="none" rx="3" ry="3" style="stroke: #038048; stroke-width: 1.0;"/><text fill="#000000" font-family="sans-serif" font-size="11" lengthAdjust="spacingAndGlyphs" textLength="119" x="146" y="446.0898">finishDate : FinishDate</text><ellipse cx="137" cy="456.3877" fill="none" rx="3" ry="3" style="stroke: #038048; stroke-width: 1.0;"/><text fill="#000000" font-family="sans-serif" font-size="11" lengthAdjust="spacingAndGlyphs" textLength="51" x="146" y="459.0449">id : string</text><ellipse cx="137" cy="469.3428" fill="none" rx="3" ry="3" style="stroke: #038048; stroke-width: 1.0;"/><text fill="#000000" font-family="sans-serif" font-size="11" lengthAdjust="spacingAndGlyphs" textLength="135" x="146" y="472">owner : ITaskOwner | null</text><ellipse cx="137" cy="482.2979" fill="none" rx="3" ry="3" style="stroke: #038048; stroke-width: 1.0;"/><text fill="#000000" font-family="sans-serif" font-size="11" lengthAdjust="spacingAndGlyphs" textLength="106" x="146" y="484.9551">status : ETaskStatus</text><line style="stroke: #A80036; stroke-width: 1.5;" x1="127" x2="286" y1="491.2754" y2="491.2754"/><ellipse cx="137" cy="503.2529" fill="#84BE84" rx="3" ry="3" style="stroke: #038048; stroke-width: 1.0;"/><text fill="#000000" font-family="sans-serif" font-size="11" lengthAdjust="spacingAndGlyphs" textLength="74" x="146" y="505.9102">toggle() : void</text><!--class AudioTask--><rect fill="#FEFECE" filter="url(#f6gyv7v)" height="164.5957" style="stroke: #A80036; stroke-width: 1.5;" width="161" x="322" y="367"/><ellipse cx="367.75" cy="383" fill="#ADD1B2" rx="11" ry="11" style="stroke: #A80036; stroke-width: 1.0;"/><path d="M370.2231,389.1431 Q369.6421,389.4419 369.0029,389.5913 Q368.3638,389.7407 367.6582,389.7407 Q365.1514,389.7407 363.8315,388.0889 Q362.5117,386.437 362.5117,383.3159 Q362.5117,380.1865 363.8315,378.5347 Q365.1514,376.8828 367.6582,376.8828 Q368.3638,376.8828 369.0112,377.0322 Q369.6587,377.1816 370.2231,377.4805 L370.2231,380.2031 Q369.5923,379.6221 368.9988,379.3523 Q368.4053,379.0825 367.7744,379.0825 Q366.4297,379.0825 365.7449,380.1492 Q365.0601,381.2158 365.0601,383.3159 Q365.0601,385.4077 365.7449,386.4744 Q366.4297,387.541 367.7744,387.541 Q368.4053,387.541 368.9988,387.2712 Q369.5923,387.0015 370.2231,386.4204 Z "/><text fill="#000000" font-family="sans-serif" font-size="12" lengthAdjust="spacingAndGlyphs" textLength="61" x="388.25" y="387.5352">AudioTask</text><line style="stroke: #A80036; stroke-width: 1.5;" x1="323" x2="482" y1="399" y2="399"/><ellipse cx="333" cy="410.9775" fill="none" rx="3" ry="3" style="stroke: #038048; stroke-width: 1.0;"/><text fill="#000000" font-family="sans-serif" font-size="11" lengthAdjust="spacingAndGlyphs" textLength="132" x="342" y="413.6348">content : MediaTaskType</text><ellipse cx="333" cy="423.9326" fill="none" rx="3" ry="3" style="stroke: #038048; stroke-width: 1.0;"/><text fill="#000000" font-family="sans-serif" font-size="11" lengthAdjust="spacingAndGlyphs" textLength="119" x="342" y="426.5898">finishDate : FinishDate</text><ellipse cx="333" cy="436.8877" fill="none" rx="3" ry="3" style="stroke: #038048; stroke-width: 1.0;"/><text fill="#000000" font-family="sans-serif" font-size="11" lengthAdjust="spacingAndGlyphs" textLength="51" x="342" y="439.5449">id : string</text><ellipse cx="333" cy="449.8428" fill="none" rx="3" ry="3" style="stroke: #038048; stroke-width: 1.0;"/><text fill="#000000" font-family="sans-serif" font-size="11" lengthAdjust="spacingAndGlyphs" textLength="135" x="342" y="452.5">owner : ITaskOwner | null</text><ellipse cx="333" cy="462.7979" fill="none" rx="3" ry="3" style="stroke: #038048; stroke-width: 1.0;"/><text fill="#000000" font-family="sans-serif" font-size="11" lengthAdjust="spacingAndGlyphs" textLength="106" x="342" y="465.4551">status : ETaskStatus</text><line style="stroke: #A80036; stroke-width: 1.5;" x1="323" x2="482" y1="471.7754" y2="471.7754"/><ellipse cx="333" cy="483.7529" fill="#84BE84" rx="3" ry="3" style="stroke: #038048; stroke-width: 1.0;"/><text fill="#000000" font-family="sans-serif" font-size="11" lengthAdjust="spacingAndGlyphs" textLength="72" x="342" y="486.4102">pause() : void</text><ellipse cx="333" cy="496.708" fill="#84BE84" rx="3" ry="3" style="stroke: #038048; stroke-width: 1.0;"/><text fill="#000000" font-family="sans-serif" font-size="11" lengthAdjust="spacingAndGlyphs" textLength="62" x="342" y="499.3652">play() : void</text><ellipse cx="333" cy="509.6631" fill="#84BE84" rx="3" ry="3" style="stroke: #038048; stroke-width: 1.0;"/><text fill="#000000" font-family="sans-serif" font-size="11" lengthAdjust="spacingAndGlyphs" textLength="64" x="342" y="512.3203">stop() : void</text><ellipse cx="333" cy="522.6182" fill="#84BE84" rx="3" ry="3" style="stroke: #038048; stroke-width: 1.0;"/><text fill="#000000" font-family="sans-serif" font-size="11" lengthAdjust="spacingAndGlyphs" textLength="74" x="342" y="525.2754">toggle() : void</text><path d="M180.49,134.57 C197.89,149.78 216.21,165.8 233.28,180.73 " fill="none" style="stroke: #A80036; stroke-width: 1.0;"/><polygon fill="none" points="175.62,139.61,165.17,121.18,184.84,129.07,175.62,139.61" style="stroke: #A80036; stroke-width: 1.0;"/><path d="M304.5,111.49 C304.5,132.6 304.5,157.95 304.5,180.73 " fill="none" style="stroke: #A80036; stroke-width: 1.0; stroke-dasharray: 7.0,7.0;"/><polygon fill="none" points="297.5,111.31,304.5,91.31,311.5,111.31,297.5,111.31" style="stroke: #A80036; stroke-width: 1.0;"/><path d="M450.36,105.29 C426.83,127.5 397,155.67 370.45,180.73 " fill="none" style="stroke: #A80036; stroke-width: 1.0; stroke-dasharray: 7.0,7.0;"/><polygon fill="none" points="445.82,99.95,465.16,91.31,455.43,110.13,445.82,99.95" style="stroke: #A80036; stroke-width: 1.0;"/><path d="M265.8,325.36 C256.03,345.65 245.69,367.13 236.42,386.37 " fill="none" style="stroke: #A80036; stroke-width: 1.0;"/><polygon fill="none" points="259.58,322.14,274.56,307.16,272.19,328.22,259.58,322.14" style="stroke: #A80036; stroke-width: 1.0;"/><path d="M343.19,325.33 C349.76,338.98 356.59,353.16 363.17,366.83 " fill="none" style="stroke: #A80036; stroke-width: 1.0;"/><polygon fill="none" points="336.81,328.22,334.44,307.16,349.42,322.14,336.81,328.22" style="stroke: #A80036; stroke-width: 1.0;"/></g></svg>