<?xml version="1.0" encoding="UTF-8" standalone="no"?><svg xmlns="http://www.w3.org/2000/svg" xmlns:xlink="http://www.w3.org/1999/xlink" contentScriptType="application/ecmascript" contentStyleType="text/css" height="514px" preserveAspectRatio="none" style="width:385px;height:514px;" version="1.1" viewBox="0 0 385 514" width="385px" zoomAndPan="magnify"><defs><filter height="300%" id="f3y7idb" width="300%" x="-1" y="-1"><feGaussianBlur result="blurOut" stdDeviation="2.0"/><feColorMatrix in="blurOut" result="blurOut2" type="matrix" values="0 0 0 0 0 0 0 0 0 0 0 0 0 0 0 0 0 0 .4 0"/><feOffset dx="4.0" dy="4.0" in="blurOut2" result="blurOut3"/><feBlend in="SourceGraphic" in2="blurOut3" mode="normal"/></filter></defs><g><!--class PeriodTask--><rect fill="#FEFECE" filter="url(#f3y7idb)" height="112.7754" style="stroke: #A80036; stroke-width: 1.5;" width="143" x="131" y="181"/><ellipse cx="166.7" cy="197" fill="#ADD1B2" rx="11" ry="11" style="stroke: #A80036; stroke-width: 1.0;"/><path d="M169.1731,203.1431 Q168.5921,203.4419 167.9529,203.5913 Q167.3138,203.7407 166.6082,203.7407 Q164.1014,203.7407 162.7815,202.0889 Q161.4617,200.437 161.4617,197.3159 Q161.4617,194.1865 162.7815,192.5347 Q164.1014,190.8828 166.6082,190.8828 Q167.3138,190.8828 167.9612,191.0322 Q168.6087,191.1816 169.1731,191.4805 L169.1731,194.2031 Q168.5423,193.6221 167.9488,193.3523 Q167.3553,193.0825 166.7244,193.0825 Q165.3797,193.0825 164.6949,194.1492 Q164.0101,195.2158 164.0101,197.3159 Q164.0101,199.4077 164.6949,200.4744 Q165.3797,201.541 166.7244,201.541 Q167.3553,201.541 167.9488,201.2712 Q168.5423,201.0015 169.1731,200.4204 Z "/><text fill="#000000" font-family="sans-serif" font-size="12" lengthAdjust="spacingAndGlyphs" textLength="65" x="185.3" y="201.5352">PeriodTask</text><line style="stroke: #A80036; stroke-width: 1.5;" x1="132" x2="273" y1="213" y2="213"/><ellipse cx="142" cy="224.9775" fill="none" rx="3" ry="3" style="stroke: #038048; stroke-width: 1.0;"/><text fill="#000000" font-family="sans-serif" font-size="11" lengthAdjust="spacingAndGlyphs" textLength="57" x="151" y="227.6348">content : T</text><ellipse cx="142" cy="237.9326" fill="none" rx="3" ry="3" style="stroke: #038048; stroke-width: 1.0;"/><text fill="#000000" font-family="sans-serif" font-size="11" lengthAdjust="spacingAndGlyphs" textLength="117" x="151" y="240.5898">finishDate : Date | null</text><ellipse cx="142" cy="250.8877" fill="none" rx="3" ry="3" style="stroke: #038048; stroke-width: 1.0;"/><text fill="#000000" font-family="sans-serif" font-size="11" lengthAdjust="spacingAndGlyphs" textLength="51" x="151" y="253.5449">id : string</text><ellipse cx="142" cy="263.8428" fill="none" rx="3" ry="3" style="stroke: #038048; stroke-width: 1.0;"/><text fill="#000000" font-family="sans-serif" font-size="11" lengthAdjust="spacingAndGlyphs" textLength="106" x="151" y="266.5">status : ETaskStatus</text><line style="stroke: #A80036; stroke-width: 1.5;" x1="132" x2="273" y1="272.8203" y2="272.8203"/><ellipse cx="142" cy="284.7979" fill="#84BE84" rx="3" ry="3" style="stroke: #038048; stroke-width: 1.0;"/><text fill="#000000" font-family="sans-serif" font-size="11" lengthAdjust="spacingAndGlyphs" textLength="74" x="151" y="287.4551">toggle() : void</text><!--class Task--><rect fill="#FEFECE" filter="url(#f3y7idb)" height="112.7754" style="stroke: #A80036; stroke-width: 1.5;" width="191" x="6" y="8"/><ellipse cx="83.25" cy="24" fill="#ADD1B2" rx="11" ry="11" style="stroke: #A80036; stroke-width: 1.0;"/><path d="M85.7231,30.1431 Q85.1421,30.4419 84.5029,30.5913 Q83.8638,30.7407 83.1582,30.7407 Q80.6514,30.7407 79.3315,29.0889 Q78.0117,27.437 78.0117,24.3159 Q78.0117,21.1865 79.3315,19.5347 Q80.6514,17.8828 83.1582,17.8828 Q83.8638,17.8828 84.5112,18.0322 Q85.1587,18.1816 85.7231,18.4805 L85.7231,21.2031 Q85.0923,20.6221 84.4988,20.3523 Q83.9053,20.0825 83.2744,20.0825 Q81.9297,20.0825 81.2449,21.1492 Q80.5601,22.2158 80.5601,24.3159 Q80.5601,26.4077 81.2449,27.4744 Q81.9297,28.541 83.2744,28.541 Q83.9053,28.541 84.4988,28.2712 Q85.0923,28.0015 85.7231,27.4204 Z "/><text fill="#000000" font-family="sans-serif" font-size="12" lengthAdjust="spacingAndGlyphs" textLength="28" x="103.75" y="28.5352">Task</text><line style="stroke: #A80036; stroke-width: 1.5;" x1="7" x2="196" y1="40" y2="40"/><ellipse cx="17" cy="51.9775" fill="none" rx="3" ry="3" style="stroke: #038048; stroke-width: 1.0;"/><text fill="#000000" font-family="sans-serif" font-size="11" lengthAdjust="spacingAndGlyphs" textLength="57" x="26" y="54.6348">content : T</text><ellipse cx="17" cy="64.9326" fill="none" rx="3" ry="3" style="stroke: #038048; stroke-width: 1.0;"/><text fill="#000000" font-family="sans-serif" font-size="11" lengthAdjust="spacingAndGlyphs" textLength="51" x="26" y="67.5898">id : string</text><ellipse cx="17" cy="77.8877" fill="none" rx="3" ry="3" style="stroke: #038048; stroke-width: 1.0;"/><text fill="#000000" font-family="sans-serif" font-size="11" lengthAdjust="spacingAndGlyphs" textLength="106" x="26" y="80.5449">status : ETaskStatus</text><line style="stroke: #A80036; stroke-width: 1.5;" x1="7" x2="196" y1="86.8652" y2="86.8652"/><rect fill="#F24D5C" height="6" style="stroke: #C82930; stroke-width: 1.0;" width="6" x="14" y="95.8428"/><text fill="#000000" font-family="sans-serif" font-size="11" lengthAdjust="spacingAndGlyphs" textLength="165" x="26" y="101.5">setStatus(s: ETaskStatus) : void</text><ellipse cx="17" cy="111.7979" fill="#84BE84" rx="3" ry="3" style="stroke: #038048; stroke-width: 1.0;"/><text fill="#000000" font-family="sans-serif" font-size="11" lengthAdjust="spacingAndGlyphs" textLength="74" x="26" y="114.4551">toggle() : void</text><!--class IPeriodLimit--><rect fill="#FEFECE" filter="url(#f3y7idb)" height="52.9551" style="stroke: #A80036; stroke-width: 1.5;" width="143" x="232" y="38"/><ellipse cx="266.8" cy="54" fill="#B4A7E5" rx="11" ry="11" style="stroke: #A80036; stroke-width: 1.0;"/><path d="M263.2277,50.2651 L263.2277,48.1069 L270.6071,48.1069 L270.6071,50.2651 L268.1418,50.2651 L268.1418,58.3418 L270.6071,58.3418 L270.6071,60.5 L263.2277,60.5 L263.2277,58.3418 L265.6931,58.3418 L265.6931,50.2651 Z "/><text fill="#000000" font-family="sans-serif" font-size="12" font-style="italic" lengthAdjust="spacingAndGlyphs" textLength="67" x="285.2" y="58.5352">IPeriodLimit</text><line style="stroke: #A80036; stroke-width: 1.5;" x1="233" x2="374" y1="70" y2="70"/><ellipse cx="243" cy="81.9775" fill="none" rx="3" ry="3" style="stroke: #038048; stroke-width: 1.0;"/><text fill="#000000" font-family="sans-serif" font-size="11" lengthAdjust="spacingAndGlyphs" textLength="117" x="252" y="84.6348">finishDate : Date | null</text><!--class TextTask--><rect fill="#FEFECE" filter="url(#f3y7idb)" height="112.7754" style="stroke: #A80036; stroke-width: 1.5;" width="151" x="32" y="373.5"/><ellipse cx="76.25" cy="389.5" fill="#ADD1B2" rx="11" ry="11" style="stroke: #A80036; stroke-width: 1.0;"/><path d="M78.7231,395.6431 Q78.1421,395.9419 77.5029,396.0913 Q76.8638,396.2407 76.1582,396.2407 Q73.6514,396.2407 72.3315,394.5889 Q71.0117,392.937 71.0117,389.8159 Q71.0117,386.6865 72.3315,385.0347 Q73.6514,383.3828 76.1582,383.3828 Q76.8638,383.3828 77.5112,383.5322 Q78.1587,383.6816 78.7231,383.9805 L78.7231,386.7031 Q78.0923,386.1221 77.4988,385.8523 Q76.9053,385.5825 76.2744,385.5825 Q74.9297,385.5825 74.2449,386.6492 Q73.5601,387.7158 73.5601,389.8159 Q73.5601,391.9077 74.2449,392.9744 Q74.9297,394.041 76.2744,394.041 Q76.9053,394.041 77.4988,393.7712 Q78.0923,393.5015 78.7231,392.9204 Z "/><text fill="#000000" font-family="sans-serif" font-size="12" lengthAdjust="spacingAndGlyphs" textLength="54" x="96.75" y="394.0352">TextTask</text><line style="stroke: #A80036; stroke-width: 1.5;" x1="33" x2="182" y1="405.5" y2="405.5"/><ellipse cx="43" cy="417.4775" fill="none" rx="3" ry="3" style="stroke: #038048; stroke-width: 1.0;"/><text fill="#000000" font-family="sans-serif" font-size="11" lengthAdjust="spacingAndGlyphs" textLength="125" x="52" y="420.1348">content : TextTaskType</text><ellipse cx="43" cy="430.4326" fill="none" rx="3" ry="3" style="stroke: #038048; stroke-width: 1.0;"/><text fill="#000000" font-family="sans-serif" font-size="11" lengthAdjust="spacingAndGlyphs" textLength="117" x="52" y="433.0898">finishDate : Date | null</text><ellipse cx="43" cy="443.3877" fill="none" rx="3" ry="3" style="stroke: #038048; stroke-width: 1.0;"/><text fill="#000000" font-family="sans-serif" font-size="11" lengthAdjust="spacingAndGlyphs" textLength="51" x="52" y="446.0449">id : string</text><ellipse cx="43" cy="456.3428" fill="none" rx="3" ry="3" style="stroke: #038048; stroke-width: 1.0;"/><text fill="#000000" font-family="sans-serif" font-size="11" lengthAdjust="spacingAndGlyphs" textLength="106" x="52" y="459">status : ETaskStatus</text><line style="stroke: #A80036; stroke-width: 1.5;" x1="33" x2="182" y1="465.3203" y2="465.3203"/><ellipse cx="43" cy="477.2979" fill="#84BE84" rx="3" ry="3" style="stroke: #038048; stroke-width: 1.0;"/><text fill="#000000" font-family="sans-serif" font-size="11" lengthAdjust="spacingAndGlyphs" textLength="74" x="52" y="479.9551">toggle() : void</text><!--class AudioTask--><rect fill="#FEFECE" filter="url(#f3y7idb)" height="151.6406" style="stroke: #A80036; stroke-width: 1.5;" width="158" x="218.5" y="354"/><ellipse cx="262.75" cy="370" fill="#ADD1B2" rx="11" ry="11" style="stroke: #A80036; stroke-width: 1.0;"/><path d="M265.2231,376.1431 Q264.6421,376.4419 264.0029,376.5913 Q263.3638,376.7407 262.6582,376.7407 Q260.1514,376.7407 258.8315,375.0889 Q257.5117,373.437 257.5117,370.3159 Q257.5117,367.1865 258.8315,365.5347 Q260.1514,363.8828 262.6582,363.8828 Q263.3638,363.8828 264.0112,364.0322 Q264.6587,364.1816 265.2231,364.4805 L265.2231,367.2031 Q264.5923,366.6221 263.9988,366.3523 Q263.4053,366.0825 262.7744,366.0825 Q261.4297,366.0825 260.7449,367.1492 Q260.0601,368.2158 260.0601,370.3159 Q260.0601,372.4077 260.7449,373.4744 Q261.4297,374.541 262.7744,374.541 Q263.4053,374.541 263.9988,374.2712 Q264.5923,374.0015 265.2231,373.4204 Z "/><text fill="#000000" font-family="sans-serif" font-size="12" lengthAdjust="spacingAndGlyphs" textLength="61" x="283.25" y="374.5352">AudioTask</text><line style="stroke: #A80036; stroke-width: 1.5;" x1="219.5" x2="375.5" y1="386" y2="386"/><ellipse cx="229.5" cy="397.9775" fill="none" rx="3" ry="3" style="stroke: #038048; stroke-width: 1.0;"/><text fill="#000000" font-family="sans-serif" font-size="11" lengthAdjust="spacingAndGlyphs" textLength="132" x="238.5" y="400.6348">content : MediaTaskType</text><ellipse cx="229.5" cy="410.9326" fill="none" rx="3" ry="3" style="stroke: #038048; stroke-width: 1.0;"/><text fill="#000000" font-family="sans-serif" font-size="11" lengthAdjust="spacingAndGlyphs" textLength="117" x="238.5" y="413.5898">finishDate : Date | null</text><ellipse cx="229.5" cy="423.8877" fill="none" rx="3" ry="3" style="stroke: #038048; stroke-width: 1.0;"/><text fill="#000000" font-family="sans-serif" font-size="11" lengthAdjust="spacingAndGlyphs" textLength="51" x="238.5" y="426.5449">id : string</text><ellipse cx="229.5" cy="436.8428" fill="none" rx="3" ry="3" style="stroke: #038048; stroke-width: 1.0;"/><text fill="#000000" font-family="sans-serif" font-size="11" lengthAdjust="spacingAndGlyphs" textLength="106" x="238.5" y="439.5">status : ETaskStatus</text><line style="stroke: #A80036; stroke-width: 1.5;" x1="219.5" x2="375.5" y1="445.8203" y2="445.8203"/><ellipse cx="229.5" cy="457.7979" fill="#84BE84" rx="3" ry="3" style="stroke: #038048; stroke-width: 1.0;"/><text fill="#000000" font-family="sans-serif" font-size="11" lengthAdjust="spacingAndGlyphs" textLength="72" x="238.5" y="460.4551">pause() : void</text><ellipse cx="229.5" cy="470.7529" fill="#84BE84" rx="3" ry="3" style="stroke: #038048; stroke-width: 1.0;"/><text fill="#000000" font-family="sans-serif" font-size="11" lengthAdjust="spacingAndGlyphs" textLength="62" x="238.5" y="473.4102">play() : void</text><ellipse cx="229.5" cy="483.708" fill="#84BE84" rx="3" ry="3" style="stroke: #038048; stroke-width: 1.0;"/><text fill="#000000" font-family="sans-serif" font-size="11" lengthAdjust="spacingAndGlyphs" textLength="64" x="238.5" y="486.3652">stop() : void</text><ellipse cx="229.5" cy="496.6631" fill="#84BE84" rx="3" ry="3" style="stroke: #038048; stroke-width: 1.0;"/><text fill="#000000" font-family="sans-serif" font-size="11" lengthAdjust="spacingAndGlyphs" textLength="74" x="238.5" y="499.3203">toggle() : void</text><path d="M144.69,138.62 C153.07,152.81 161.72,167.46 169.7,180.97 " fill="none" style="stroke: #A80036; stroke-width: 1.0;"/><polygon fill="none" points="138.44,141.8,134.29,121.02,150.49,134.68,138.44,141.8" style="stroke: #A80036; stroke-width: 1.0;"/><path d="M278.08,108.54 C265.11,130.5 249.18,157.47 235.3,180.98 " fill="none" style="stroke: #A80036; stroke-width: 1.0; stroke-dasharray: 7.0,7.0;"/><polygon fill="none" points="272.18,104.76,288.38,91.1,284.24,111.88,272.18,104.76" style="stroke: #A80036; stroke-width: 1.0;"/><path d="M165.72,312.25 C155.6,332.55 144.79,354.23 135.27,373.32 " fill="none" style="stroke: #A80036; stroke-width: 1.0;"/><polygon fill="none" points="159.58,308.89,174.77,294.11,172.11,315.13,159.58,308.89" style="stroke: #A80036; stroke-width: 1.0;"/><path d="M239.27,312.23 C246.07,325.88 253.19,340.15 260.02,353.84 " fill="none" style="stroke: #A80036; stroke-width: 1.0;"/><polygon fill="none" points="232.89,315.13,230.23,294.11,245.42,308.89,232.89,315.13" style="stroke: #A80036; stroke-width: 1.0;"/></g></svg>