<?xml version="1.0" encoding="UTF-8" standalone="no"?><svg xmlns="http://www.w3.org/2000/svg" xmlns:xlink="http://www.w3.org/1999/xlink" contentScriptType="application/ecmascript" contentStyleType="text/css" height="553px" preserveAspectRatio="none" style="width:390px;height:553px;" version="1.1" viewBox="0 0 390 553" width="390px" zoomAndPan="magnify"><defs><filter height="300%" id="fjgn9ry" width="300%" x="-1" y="-1"><feGaussianBlur result="blurOut" stdDeviation="2.0"/><feColorMatrix in="blurOut" result="blurOut2" type="matrix" values="0 0 0 0 0 0 0 0 0 0 0 0 0 0 0 0 0 0 .4 0"/><feOffset dx="4.0" dy="4.0" in="blurOut2" result="blurOut3"/><feBlend in="SourceGraphic" in2="blurOut3" mode="normal"/></filter></defs><g><!--class PeriodTask--><rect fill="#FEFECE" filter="url(#fjgn9ry)" height="125.7305" style="stroke: #A80036; stroke-width: 1.5;" width="161" x="122" y="194"/><ellipse cx="165.8" cy="210" fill="#ADD1B2" rx="11" ry="11" style="stroke: #A80036; stroke-width: 1.0;"/><path d="M168.2731,216.1431 Q167.6921,216.4419 167.0529,216.5913 Q166.4138,216.7407 165.7082,216.7407 Q163.2014,216.7407 161.8815,215.0889 Q160.5617,213.437 160.5617,210.3159 Q160.5617,207.1865 161.8815,205.5347 Q163.2014,203.8828 165.7082,203.8828 Q166.4138,203.8828 167.0612,204.0322 Q167.7087,204.1816 168.2731,204.4805 L168.2731,207.2031 Q167.6423,206.6221 167.0488,206.3523 Q166.4553,206.0825 165.8244,206.0825 Q164.4797,206.0825 163.7949,207.1492 Q163.1101,208.2158 163.1101,210.3159 Q163.1101,212.4077 163.7949,213.4744 Q164.4797,214.541 165.8244,214.541 Q166.4553,214.541 167.0488,214.2712 Q167.6423,214.0015 168.2731,213.4204 Z "/><text fill="#000000" font-family="sans-serif" font-size="12" lengthAdjust="spacingAndGlyphs" textLength="65" x="186.2" y="214.5352">PeriodTask</text><line style="stroke: #A80036; stroke-width: 1.5;" x1="123" x2="282" y1="226" y2="226"/><ellipse cx="133" cy="237.9775" fill="none" rx="3" ry="3" style="stroke: #038048; stroke-width: 1.0;"/><text fill="#000000" font-family="sans-serif" font-size="11" lengthAdjust="spacingAndGlyphs" textLength="57" x="142" y="240.6348">content : T</text><ellipse cx="133" cy="250.9326" fill="none" rx="3" ry="3" style="stroke: #038048; stroke-width: 1.0;"/><text fill="#000000" font-family="sans-serif" font-size="11" lengthAdjust="spacingAndGlyphs" textLength="117" x="142" y="253.5898">finishDate : Date | null</text><ellipse cx="133" cy="263.8877" fill="none" rx="3" ry="3" style="stroke: #038048; stroke-width: 1.0;"/><text fill="#000000" font-family="sans-serif" font-size="11" lengthAdjust="spacingAndGlyphs" textLength="51" x="142" y="266.5449">id : string</text><ellipse cx="133" cy="276.8428" fill="none" rx="3" ry="3" style="stroke: #038048; stroke-width: 1.0;"/><text fill="#000000" font-family="sans-serif" font-size="11" lengthAdjust="spacingAndGlyphs" textLength="135" x="142" y="279.5">owner : ITaskOwner | null</text><ellipse cx="133" cy="289.7979" fill="none" rx="3" ry="3" style="stroke: #038048; stroke-width: 1.0;"/><text fill="#000000" font-family="sans-serif" font-size="11" lengthAdjust="spacingAndGlyphs" textLength="106" x="142" y="292.4551">status : ETaskStatus</text><line style="stroke: #A80036; stroke-width: 1.5;" x1="123" x2="282" y1="298.7754" y2="298.7754"/><ellipse cx="133" cy="310.7529" fill="#84BE84" rx="3" ry="3" style="stroke: #038048; stroke-width: 1.0;"/><text fill="#000000" font-family="sans-serif" font-size="11" lengthAdjust="spacingAndGlyphs" textLength="74" x="142" y="313.4102">toggle() : void</text><!--class Task--><rect fill="#FEFECE" filter="url(#fjgn9ry)" height="125.7305" style="stroke: #A80036; stroke-width: 1.5;" width="191" x="6" y="8"/><ellipse cx="83.25" cy="24" fill="#ADD1B2" rx="11" ry="11" style="stroke: #A80036; stroke-width: 1.0;"/><path d="M85.7231,30.1431 Q85.1421,30.4419 84.5029,30.5913 Q83.8638,30.7407 83.1582,30.7407 Q80.6514,30.7407 79.3315,29.0889 Q78.0117,27.437 78.0117,24.3159 Q78.0117,21.1865 79.3315,19.5347 Q80.6514,17.8828 83.1582,17.8828 Q83.8638,17.8828 84.5112,18.0322 Q85.1587,18.1816 85.7231,18.4805 L85.7231,21.2031 Q85.0923,20.6221 84.4988,20.3523 Q83.9053,20.0825 83.2744,20.0825 Q81.9297,20.0825 81.2449,21.1492 Q80.5601,22.2158 80.5601,24.3159 Q80.5601,26.4077 81.2449,27.4744 Q81.9297,28.541 83.2744,28.541 Q83.9053,28.541 84.4988,28.2712 Q85.0923,28.0015 85.7231,27.4204 Z "/><text fill="#000000" font-family="sans-serif" font-size="12" lengthAdjust="spacingAndGlyphs" textLength="28" x="103.75" y="28.5352">Task</text><line style="stroke: #A80036; stroke-width: 1.5;" x1="7" x2="196" y1="40" y2="40"/><ellipse cx="17" cy="51.9775" fill="none" rx="3" ry="3" style="stroke: #038048; stroke-width: 1.0;"/><text fill="#000000" font-family="sans-serif" font-size="11" lengthAdjust="spacingAndGlyphs" textLength="57" x="26" y="54.6348">content : T</text><ellipse cx="17" cy="64.9326" fill="none" rx="3" ry="3" style="stroke: #038048; stroke-width: 1.0;"/><text fill="#000000" font-family="sans-serif" font-size="11" lengthAdjust="spacingAndGlyphs" textLength="51" x="26" y="67.5898">id : string</text><ellipse cx="17" cy="77.8877" fill="none" rx="3" ry="3" style="stroke: #038048; stroke-width: 1.0;"/><text fill="#000000" font-family="sans-serif" font-size="11" lengthAdjust="spacingAndGlyphs" textLength="135" x="26" y="80.5449">owner : ITaskOwner | null</text><ellipse cx="17" cy="90.8428" fill="none" rx="3" ry="3" style="stroke: #038048; stroke-width: 1.0;"/><text fill="#000000" font-family="sans-serif" font-size="11" lengthAdjust="spacingAndGlyphs" textLength="106" x="26" y="93.5">status : ETaskStatus</text><line style="stroke: #A80036; stroke-width: 1.5;" x1="7" x2="196" y1="99.8203" y2="99.8203"/><rect fill="#F24D5C" height="6" style="stroke: #C82930; stroke-width: 1.0;" width="6" x="14" y="108.7979"/><text fill="#000000" font-family="sans-serif" font-size="11" lengthAdjust="spacingAndGlyphs" textLength="165" x="26" y="114.4551">setStatus(s: ETaskStatus) : void</text><ellipse cx="17" cy="124.7529" fill="#84BE84" rx="3" ry="3" style="stroke: #038048; stroke-width: 1.0;"/><text fill="#000000" font-family="sans-serif" font-size="11" lengthAdjust="spacingAndGlyphs" textLength="74" x="26" y="127.4102">toggle() : void</text><!--class IPeriodLimit--><rect fill="#FEFECE" filter="url(#fjgn9ry)" height="52.9551" style="stroke: #A80036; stroke-width: 1.5;" width="143" x="232" y="44.5"/><ellipse cx="266.8" cy="60.5" fill="#B4A7E5" rx="11" ry="11" style="stroke: #A80036; stroke-width: 1.0;"/><path d="M263.2277,56.7651 L263.2277,54.6069 L270.6071,54.6069 L270.6071,56.7651 L268.1418,56.7651 L268.1418,64.8418 L270.6071,64.8418 L270.6071,67 L263.2277,67 L263.2277,64.8418 L265.6931,64.8418 L265.6931,56.7651 Z "/><text fill="#000000" font-family="sans-serif" font-size="12" font-style="italic" lengthAdjust="spacingAndGlyphs" textLength="67" x="285.2" y="65.0352">IPeriodLimit</text><line style="stroke: #A80036; stroke-width: 1.5;" x1="233" x2="374" y1="76.5" y2="76.5"/><ellipse cx="243" cy="88.4775" fill="none" rx="3" ry="3" style="stroke: #038048; stroke-width: 1.0;"/><text fill="#000000" font-family="sans-serif" font-size="11" lengthAdjust="spacingAndGlyphs" textLength="117" x="252" y="91.1348">finishDate : Date | null</text><!--class TextTask--><rect fill="#FEFECE" filter="url(#fjgn9ry)" height="125.7305" style="stroke: #A80036; stroke-width: 1.5;" width="161" x="24" y="399.5"/><ellipse cx="73.25" cy="415.5" fill="#ADD1B2" rx="11" ry="11" style="stroke: #A80036; stroke-width: 1.0;"/><path d="M75.7231,421.6431 Q75.1421,421.9419 74.5029,422.0913 Q73.8638,422.2407 73.1582,422.2407 Q70.6514,422.2407 69.3315,420.5889 Q68.0117,418.937 68.0117,415.8159 Q68.0117,412.6865 69.3315,411.0347 Q70.6514,409.3828 73.1582,409.3828 Q73.8638,409.3828 74.5112,409.5322 Q75.1587,409.6816 75.7231,409.9805 L75.7231,412.7031 Q75.0923,412.1221 74.4988,411.8523 Q73.9053,411.5825 73.2744,411.5825 Q71.9297,411.5825 71.2449,412.6492 Q70.5601,413.7158 70.5601,415.8159 Q70.5601,417.9077 71.2449,418.9744 Q71.9297,420.041 73.2744,420.041 Q73.9053,420.041 74.4988,419.7712 Q75.0923,419.5015 75.7231,418.9204 Z "/><text fill="#000000" font-family="sans-serif" font-size="12" lengthAdjust="spacingAndGlyphs" textLength="54" x="93.75" y="420.0352">TextTask</text><line style="stroke: #A80036; stroke-width: 1.5;" x1="25" x2="184" y1="431.5" y2="431.5"/><ellipse cx="35" cy="443.4775" fill="none" rx="3" ry="3" style="stroke: #038048; stroke-width: 1.0;"/><text fill="#000000" font-family="sans-serif" font-size="11" lengthAdjust="spacingAndGlyphs" textLength="125" x="44" y="446.1348">content : TextTaskType</text><ellipse cx="35" cy="456.4326" fill="none" rx="3" ry="3" style="stroke: #038048; stroke-width: 1.0;"/><text fill="#000000" font-family="sans-serif" font-size="11" lengthAdjust="spacingAndGlyphs" textLength="117" x="44" y="459.0898">finishDate : Date | null</text><ellipse cx="35" cy="469.3877" fill="none" rx="3" ry="3" style="stroke: #038048; stroke-width: 1.0;"/><text fill="#000000" font-family="sans-serif" font-size="11" lengthAdjust="spacingAndGlyphs" textLength="51" x="44" y="472.0449">id : string</text><ellipse cx="35" cy="482.3428" fill="none" rx="3" ry="3" style="stroke: #038048; stroke-width: 1.0;"/><text fill="#000000" font-family="sans-serif" font-size="11" lengthAdjust="spacingAndGlyphs" textLength="135" x="44" y="485">owner : ITaskOwner | null</text><ellipse cx="35" cy="495.2979" fill="none" rx="3" ry="3" style="stroke: #038048; stroke-width: 1.0;"/><text fill="#000000" font-family="sans-serif" font-size="11" lengthAdjust="spacingAndGlyphs" textLength="106" x="44" y="497.9551">status : ETaskStatus</text><line style="stroke: #A80036; stroke-width: 1.5;" x1="25" x2="184" y1="504.2754" y2="504.2754"/><ellipse cx="35" cy="516.2529" fill="#84BE84" rx="3" ry="3" style="stroke: #038048; stroke-width: 1.0;"/><text fill="#000000" font-family="sans-serif" font-size="11" lengthAdjust="spacingAndGlyphs" textLength="74" x="44" y="518.9102">toggle() : void</text><!--class AudioTask--><rect fill="#FEFECE" filter="url(#fjgn9ry)" height="164.5957" style="stroke: #A80036; stroke-width: 1.5;" width="161" x="220" y="380"/><ellipse cx="265.75" cy="396" fill="#ADD1B2" rx="11" ry="11" style="stroke: #A80036; stroke-width: 1.0;"/><path d="M268.2231,402.1431 Q267.6421,402.4419 267.0029,402.5913 Q266.3638,402.7407 265.6582,402.7407 Q263.1514,402.7407 261.8315,401.0889 Q260.5117,399.437 260.5117,396.3159 Q260.5117,393.1865 261.8315,391.5347 Q263.1514,389.8828 265.6582,389.8828 Q266.3638,389.8828 267.0112,390.0322 Q267.6587,390.1816 268.2231,390.4805 L268.2231,393.2031 Q267.5923,392.6221 266.9988,392.3523 Q266.4053,392.0825 265.7744,392.0825 Q264.4297,392.0825 263.7449,393.1492 Q263.0601,394.2158 263.0601,396.3159 Q263.0601,398.4077 263.7449,399.4744 Q264.4297,400.541 265.7744,400.541 Q266.4053,400.541 266.9988,400.2712 Q267.5923,400.0015 268.2231,399.4204 Z "/><text fill="#000000" font-family="sans-serif" font-size="12" lengthAdjust="spacingAndGlyphs" textLength="61" x="286.25" y="400.5352">AudioTask</text><line style="stroke: #A80036; stroke-width: 1.5;" x1="221" x2="380" y1="412" y2="412"/><ellipse cx="231" cy="423.9775" fill="none" rx="3" ry="3" style="stroke: #038048; stroke-width: 1.0;"/><text fill="#000000" font-family="sans-serif" font-size="11" lengthAdjust="spacingAndGlyphs" textLength="132" x="240" y="426.6348">content : MediaTaskType</text><ellipse cx="231" cy="436.9326" fill="none" rx="3" ry="3" style="stroke: #038048; stroke-width: 1.0;"/><text fill="#000000" font-family="sans-serif" font-size="11" lengthAdjust="spacingAndGlyphs" textLength="117" x="240" y="439.5898">finishDate : Date | null</text><ellipse cx="231" cy="449.8877" fill="none" rx="3" ry="3" style="stroke: #038048; stroke-width: 1.0;"/><text fill="#000000" font-family="sans-serif" font-size="11" lengthAdjust="spacingAndGlyphs" textLength="51" x="240" y="452.5449">id : string</text><ellipse cx="231" cy="462.8428" fill="none" rx="3" ry="3" style="stroke: #038048; stroke-width: 1.0;"/><text fill="#000000" font-family="sans-serif" font-size="11" lengthAdjust="spacingAndGlyphs" textLength="135" x="240" y="465.5">owner : ITaskOwner | null</text><ellipse cx="231" cy="475.7979" fill="none" rx="3" ry="3" style="stroke: #038048; stroke-width: 1.0;"/><text fill="#000000" font-family="sans-serif" font-size="11" lengthAdjust="spacingAndGlyphs" textLength="106" x="240" y="478.4551">status : ETaskStatus</text><line style="stroke: #A80036; stroke-width: 1.5;" x1="221" x2="380" y1="484.7754" y2="484.7754"/><ellipse cx="231" cy="496.7529" fill="#84BE84" rx="3" ry="3" style="stroke: #038048; stroke-width: 1.0;"/><text fill="#000000" font-family="sans-serif" font-size="11" lengthAdjust="spacingAndGlyphs" textLength="72" x="240" y="499.4102">pause() : void</text><ellipse cx="231" cy="509.708" fill="#84BE84" rx="3" ry="3" style="stroke: #038048; stroke-width: 1.0;"/><text fill="#000000" font-family="sans-serif" font-size="11" lengthAdjust="spacingAndGlyphs" textLength="62" x="240" y="512.3652">play() : void</text><ellipse cx="231" cy="522.6631" fill="#84BE84" rx="3" ry="3" style="stroke: #038048; stroke-width: 1.0;"/><text fill="#000000" font-family="sans-serif" font-size="11" lengthAdjust="spacingAndGlyphs" textLength="64" x="240" y="525.3203">stop() : void</text><ellipse cx="231" cy="535.6182" fill="#84BE84" rx="3" ry="3" style="stroke: #038048; stroke-width: 1.0;"/><text fill="#000000" font-family="sans-serif" font-size="11" lengthAdjust="spacingAndGlyphs" textLength="74" x="240" y="538.2754">toggle() : void</text><path d="M145.22,151.65 C152.99,165.8 160.97,180.35 168.42,193.92 " fill="none" style="stroke: #A80036; stroke-width: 1.0;"/><polygon fill="none" points="139.04,154.94,135.55,134.04,151.31,148.2,139.04,154.94" style="stroke: #A80036; stroke-width: 1.0;"/><path d="M279.75,115.27 C266.9,138.67 250.81,167.99 236.65,193.79 " fill="none" style="stroke: #A80036; stroke-width: 1.0; stroke-dasharray: 7.0,7.0;"/><polygon fill="none" points="273.7,111.75,289.46,97.58,285.97,118.49,273.7,111.75" style="stroke: #A80036; stroke-width: 1.0;"/><path d="M163.8,338.36 C154.03,358.65 143.69,380.13 134.42,399.37 " fill="none" style="stroke: #A80036; stroke-width: 1.0;"/><polygon fill="none" points="157.58,335.14,172.56,320.16,170.19,341.22,157.58,335.14" style="stroke: #A80036; stroke-width: 1.0;"/><path d="M241.19,338.33 C247.76,351.98 254.59,366.16 261.17,379.83 " fill="none" style="stroke: #A80036; stroke-width: 1.0;"/><polygon fill="none" points="234.81,341.22,232.44,320.16,247.42,335.14,234.81,341.22" style="stroke: #A80036; stroke-width: 1.0;"/></g></svg>