<?xml version="1.0" encoding="UTF-8" standalone="no"?><svg xmlns="http://www.w3.org/2000/svg" xmlns:xlink="http://www.w3.org/1999/xlink" contentScriptType="application/ecmascript" contentStyleType="text/css" height="540px" preserveAspectRatio="none" style="width:580px;height:540px;" version="1.1" viewBox="0 0 580 540" width="580px" zoomAndPan="magnify"><defs><filter height="300%" id="fcw5ln8" width="300%" x="-1" y="-1"><feGaussianBlur result="blurOut" stdDeviation="2.0"/><feColorMatrix in="blurOut" result="blurOut2" type="matrix" values="0 0 0 0 0 0 0 0 0 0 0 0 0 0 0 0 0 0 .4 0"/><feOffset dx="4.0" dy="4.0" in="blurOut2" result="blurOut3"/><feBlend in="SourceGraphic" in2="blurOut3" mode="normal"/></filter></defs><g><!--class PeriodTask--><rect fill="#FEFECE" filter="url(#fcw5ln8)" height="125.7305" style="stroke: #A80036; stroke-width: 1.5;" width="161" x="223" y="181"/><ellipse cx="266.8" cy="197" fill="#ADD1B2" rx="11" ry="11" style="stroke: #A80036; stroke-width: 1.0;"/><path d="M269.2731,203.1431 Q268.6921,203.4419 268.0529,203.5913 Q267.4138,203.7407 266.7082,203.7407 Q264.2014,203.7407 262.8815,202.0889 Q261.5617,200.437 261.5617,197.3159 Q261.5617,194.1865 262.8815,192.5347 Q264.2014,190.8828 266.7082,190.8828 Q267.4138,190.8828 268.0612,191.0322 Q268.7087,191.1816 269.2731,191.4805 L269.2731,194.2031 Q268.6423,193.6221 268.0488,193.3523 Q267.4553,193.0825 266.8244,193.0825 Q265.4797,193.0825 264.7949,194.1492 Q264.1101,195.2158 264.1101,197.3159 Q264.1101,199.4077 264.7949,200.4744 Q265.4797,201.541 266.8244,201.541 Q267.4553,201.541 268.0488,201.2712 Q268.6423,201.0015 269.2731,200.4204 Z "/><text fill="#000000" font-family="sans-serif" font-size="12" lengthAdjust="spacingAndGlyphs" textLength="65" x="287.2" y="201.5352">PeriodTask</text><line style="stroke: #A80036; stroke-width: 1.5;" x1="224" x2="383" y1="213" y2="213"/><ellipse cx="234" cy="224.9775" fill="none" rx="3" ry="3" style="stroke: #038048; stroke-width: 1.0;"/><text fill="#000000" font-family="sans-serif" font-size="11" lengthAdjust="spacingAndGlyphs" textLength="57" x="243" y="227.6348">content : T</text><ellipse cx="234" cy="237.9326" fill="none" rx="3" ry="3" style="stroke: #038048; stroke-width: 1.0;"/><text fill="#000000" font-family="sans-serif" font-size="11" lengthAdjust="spacingAndGlyphs" textLength="117" x="243" y="240.5898">finishDate : Date | null</text><ellipse cx="234" cy="250.8877" fill="none" rx="3" ry="3" style="stroke: #038048; stroke-width: 1.0;"/><text fill="#000000" font-family="sans-serif" font-size="11" lengthAdjust="spacingAndGlyphs" textLength="51" x="243" y="253.5449">id : string</text><ellipse cx="234" cy="263.8428" fill="none" rx="3" ry="3" style="stroke: #038048; stroke-width: 1.0;"/><text fill="#000000" font-family="sans-serif" font-size="11" lengthAdjust="spacingAndGlyphs" textLength="135" x="243" y="266.5">owner : ITaskOwner | null</text><ellipse cx="234" cy="276.7979" fill="none" rx="3" ry="3" style="stroke: #038048; stroke-width: 1.0;"/><text fill="#000000" font-family="sans-serif" font-size="11" lengthAdjust="spacingAndGlyphs" textLength="106" x="243" y="279.4551">status : ETaskStatus</text><line style="stroke: #A80036; stroke-width: 1.5;" x1="224" x2="383" y1="285.7754" y2="285.7754"/><ellipse cx="234" cy="297.7529" fill="#84BE84" rx="3" ry="3" style="stroke: #038048; stroke-width: 1.0;"/><text fill="#000000" font-family="sans-serif" font-size="11" lengthAdjust="spacingAndGlyphs" textLength="74" x="243" y="300.4102">toggle() : void</text><!--class Task--><rect fill="#FEFECE" filter="url(#fcw5ln8)" height="112.7754" style="stroke: #A80036; stroke-width: 1.5;" width="191" x="6" y="8"/><ellipse cx="83.25" cy="24" fill="#ADD1B2" rx="11" ry="11" style="stroke: #A80036; stroke-width: 1.0;"/><path d="M85.7231,30.1431 Q85.1421,30.4419 84.5029,30.5913 Q83.8638,30.7407 83.1582,30.7407 Q80.6514,30.7407 79.3315,29.0889 Q78.0117,27.437 78.0117,24.3159 Q78.0117,21.1865 79.3315,19.5347 Q80.6514,17.8828 83.1582,17.8828 Q83.8638,17.8828 84.5112,18.0322 Q85.1587,18.1816 85.7231,18.4805 L85.7231,21.2031 Q85.0923,20.6221 84.4988,20.3523 Q83.9053,20.0825 83.2744,20.0825 Q81.9297,20.0825 81.2449,21.1492 Q80.5601,22.2158 80.5601,24.3159 Q80.5601,26.4077 81.2449,27.4744 Q81.9297,28.541 83.2744,28.541 Q83.9053,28.541 84.4988,28.2712 Q85.0923,28.0015 85.7231,27.4204 Z "/><text fill="#000000" font-family="sans-serif" font-size="12" lengthAdjust="spacingAndGlyphs" textLength="28" x="103.75" y="28.5352">Task</text><line style="stroke: #A80036; stroke-width: 1.5;" x1="7" x2="196" y1="40" y2="40"/><ellipse cx="17" cy="51.9775" fill="none" rx="3" ry="3" style="stroke: #038048; stroke-width: 1.0;"/><text fill="#000000" font-family="sans-serif" font-size="11" lengthAdjust="spacingAndGlyphs" textLength="57" x="26" y="54.6348">content : T</text><ellipse cx="17" cy="64.9326" fill="none" rx="3" ry="3" style="stroke: #038048; stroke-width: 1.0;"/><text fill="#000000" font-family="sans-serif" font-size="11" lengthAdjust="spacingAndGlyphs" textLength="51" x="26" y="67.5898">id : string</text><ellipse cx="17" cy="77.8877" fill="none" rx="3" ry="3" style="stroke: #038048; stroke-width: 1.0;"/><text fill="#000000" font-family="sans-serif" font-size="11" lengthAdjust="spacingAndGlyphs" textLength="106" x="26" y="80.5449">status : ETaskStatus</text><line style="stroke: #A80036; stroke-width: 1.5;" x1="7" x2="196" y1="86.8652" y2="86.8652"/><rect fill="#F24D5C" height="6" style="stroke: #C82930; stroke-width: 1.0;" width="6" x="14" y="95.8428"/><text fill="#000000" font-family="sans-serif" font-size="11" lengthAdjust="spacingAndGlyphs" textLength="165" x="26" y="101.5">setStatus(s: ETaskStatus) : void</text><ellipse cx="17" cy="111.7979" fill="#84BE84" rx="3" ry="3" style="stroke: #038048; stroke-width: 1.0;"/><text fill="#000000" font-family="sans-serif" font-size="11" lengthAdjust="spacingAndGlyphs" textLength="74" x="26" y="114.4551">toggle() : void</text><!--class IPeriodLimit--><rect fill="#FEFECE" filter="url(#fcw5ln8)" height="52.9551" style="stroke: #A80036; stroke-width: 1.5;" width="143" x="232" y="38"/><ellipse cx="266.8" cy="54" fill="#B4A7E5" rx="11" ry="11" style="stroke: #A80036; stroke-width: 1.0;"/><path d="M263.2277,50.2651 L263.2277,48.1069 L270.6071,48.1069 L270.6071,50.2651 L268.1418,50.2651 L268.1418,58.3418 L270.6071,58.3418 L270.6071,60.5 L263.2277,60.5 L263.2277,58.3418 L265.6931,58.3418 L265.6931,50.2651 Z "/><text fill="#000000" font-family="sans-serif" font-size="12" font-style="italic" lengthAdjust="spacingAndGlyphs" textLength="67" x="285.2" y="58.5352">IPeriodLimit</text><line style="stroke: #A80036; stroke-width: 1.5;" x1="233" x2="374" y1="70" y2="70"/><ellipse cx="243" cy="81.9775" fill="none" rx="3" ry="3" style="stroke: #038048; stroke-width: 1.0;"/><text fill="#000000" font-family="sans-serif" font-size="11" lengthAdjust="spacingAndGlyphs" textLength="117" x="252" y="84.6348">finishDate : Date | null</text><!--class IOwnership--><rect fill="#FEFECE" filter="url(#fcw5ln8)" height="52.9551" style="stroke: #A80036; stroke-width: 1.5;" width="161" x="410" y="38"/><ellipse cx="454.25" cy="54" fill="#B4A7E5" rx="11" ry="11" style="stroke: #A80036; stroke-width: 1.0;"/><path d="M450.6777,50.2651 L450.6777,48.1069 L458.0571,48.1069 L458.0571,50.2651 L455.5918,50.2651 L455.5918,58.3418 L458.0571,58.3418 L458.0571,60.5 L450.6777,60.5 L450.6777,58.3418 L453.1431,58.3418 L453.1431,50.2651 Z "/><text fill="#000000" font-family="sans-serif" font-size="12" font-style="italic" lengthAdjust="spacingAndGlyphs" textLength="64" x="474.75" y="58.5352">IOwnership</text><line style="stroke: #A80036; stroke-width: 1.5;" x1="411" x2="570" y1="70" y2="70"/><ellipse cx="421" cy="81.9775" fill="none" rx="3" ry="3" style="stroke: #038048; stroke-width: 1.0;"/><text fill="#000000" font-family="sans-serif" font-size="11" lengthAdjust="spacingAndGlyphs" textLength="135" x="430" y="84.6348">owner : ITaskOwner | null</text><!--class TextTask--><rect fill="#FEFECE" filter="url(#fcw5ln8)" height="125.7305" style="stroke: #A80036; stroke-width: 1.5;" width="161" x="125" y="386.5"/><ellipse cx="174.25" cy="402.5" fill="#ADD1B2" rx="11" ry="11" style="stroke: #A80036; stroke-width: 1.0;"/><path d="M176.7231,408.6431 Q176.1421,408.9419 175.5029,409.0913 Q174.8638,409.2407 174.1582,409.2407 Q171.6514,409.2407 170.3315,407.5889 Q169.0117,405.937 169.0117,402.8159 Q169.0117,399.6865 170.3315,398.0347 Q171.6514,396.3828 174.1582,396.3828 Q174.8638,396.3828 175.5112,396.5322 Q176.1587,396.6816 176.7231,396.9805 L176.7231,399.7031 Q176.0923,399.1221 175.4988,398.8523 Q174.9053,398.5825 174.2744,398.5825 Q172.9297,398.5825 172.2449,399.6492 Q171.5601,400.7158 171.5601,402.8159 Q171.5601,404.9077 172.2449,405.9744 Q172.9297,407.041 174.2744,407.041 Q174.9053,407.041 175.4988,406.7712 Q176.0923,406.5015 176.7231,405.9204 Z "/><text fill="#000000" font-family="sans-serif" font-size="12" lengthAdjust="spacingAndGlyphs" textLength="54" x="194.75" y="407.0352">TextTask</text><line style="stroke: #A80036; stroke-width: 1.5;" x1="126" x2="285" y1="418.5" y2="418.5"/><ellipse cx="136" cy="430.4775" fill="none" rx="3" ry="3" style="stroke: #038048; stroke-width: 1.0;"/><text fill="#000000" font-family="sans-serif" font-size="11" lengthAdjust="spacingAndGlyphs" textLength="125" x="145" y="433.1348">content : TextTaskType</text><ellipse cx="136" cy="443.4326" fill="none" rx="3" ry="3" style="stroke: #038048; stroke-width: 1.0;"/><text fill="#000000" font-family="sans-serif" font-size="11" lengthAdjust="spacingAndGlyphs" textLength="117" x="145" y="446.0898">finishDate : Date | null</text><ellipse cx="136" cy="456.3877" fill="none" rx="3" ry="3" style="stroke: #038048; stroke-width: 1.0;"/><text fill="#000000" font-family="sans-serif" font-size="11" lengthAdjust="spacingAndGlyphs" textLength="51" x="145" y="459.0449">id : string</text><ellipse cx="136" cy="469.3428" fill="none" rx="3" ry="3" style="stroke: #038048; stroke-width: 1.0;"/><text fill="#000000" font-family="sans-serif" font-size="11" lengthAdjust="spacingAndGlyphs" textLength="135" x="145" y="472">owner : ITaskOwner | null</text><ellipse cx="136" cy="482.2979" fill="none" rx="3" ry="3" style="stroke: #038048; stroke-width: 1.0;"/><text fill="#000000" font-family="sans-serif" font-size="11" lengthAdjust="spacingAndGlyphs" textLength="106" x="145" y="484.9551">status : ETaskStatus</text><line style="stroke: #A80036; stroke-width: 1.5;" x1="126" x2="285" y1="491.2754" y2="491.2754"/><ellipse cx="136" cy="503.2529" fill="#84BE84" rx="3" ry="3" style="stroke: #038048; stroke-width: 1.0;"/><text fill="#000000" font-family="sans-serif" font-size="11" lengthAdjust="spacingAndGlyphs" textLength="74" x="145" y="505.9102">toggle() : void</text><!--class AudioTask--><rect fill="#FEFECE" filter="url(#fcw5ln8)" height="164.5957" style="stroke: #A80036; stroke-width: 1.5;" width="161" x="321" y="367"/><ellipse cx="366.75" cy="383" fill="#ADD1B2" rx="11" ry="11" style="stroke: #A80036; stroke-width: 1.0;"/><path d="M369.2231,389.1431 Q368.6421,389.4419 368.0029,389.5913 Q367.3638,389.7407 366.6582,389.7407 Q364.1514,389.7407 362.8315,388.0889 Q361.5117,386.437 361.5117,383.3159 Q361.5117,380.1865 362.8315,378.5347 Q364.1514,376.8828 366.6582,376.8828 Q367.3638,376.8828 368.0112,377.0322 Q368.6587,377.1816 369.2231,377.4805 L369.2231,380.2031 Q368.5923,379.6221 367.9988,379.3523 Q367.4053,379.0825 366.7744,379.0825 Q365.4297,379.0825 364.7449,380.1492 Q364.0601,381.2158 364.0601,383.3159 Q364.0601,385.4077 364.7449,386.4744 Q365.4297,387.541 366.7744,387.541 Q367.4053,387.541 367.9988,387.2712 Q368.5923,387.0015 369.2231,386.4204 Z "/><text fill="#000000" font-family="sans-serif" font-size="12" lengthAdjust="spacingAndGlyphs" textLength="61" x="387.25" y="387.5352">AudioTask</text><line style="stroke: #A80036; stroke-width: 1.5;" x1="322" x2="481" y1="399" y2="399"/><ellipse cx="332" cy="410.9775" fill="none" rx="3" ry="3" style="stroke: #038048; stroke-width: 1.0;"/><text fill="#000000" font-family="sans-serif" font-size="11" lengthAdjust="spacingAndGlyphs" textLength="132" x="341" y="413.6348">content : MediaTaskType</text><ellipse cx="332" cy="423.9326" fill="none" rx="3" ry="3" style="stroke: #038048; stroke-width: 1.0;"/><text fill="#000000" font-family="sans-serif" font-size="11" lengthAdjust="spacingAndGlyphs" textLength="117" x="341" y="426.5898">finishDate : Date | null</text><ellipse cx="332" cy="436.8877" fill="none" rx="3" ry="3" style="stroke: #038048; stroke-width: 1.0;"/><text fill="#000000" font-family="sans-serif" font-size="11" lengthAdjust="spacingAndGlyphs" textLength="51" x="341" y="439.5449">id : string</text><ellipse cx="332" cy="449.8428" fill="none" rx="3" ry="3" style="stroke: #038048; stroke-width: 1.0;"/><text fill="#000000" font-family="sans-serif" font-size="11" lengthAdjust="spacingAndGlyphs" textLength="135" x="341" y="452.5">owner : ITaskOwner | null</text><ellipse cx="332" cy="462.7979" fill="none" rx="3" ry="3" style="stroke: #038048; stroke-width: 1.0;"/><text fill="#000000" font-family="sans-serif" font-size="11" lengthAdjust="spacingAndGlyphs" textLength="106" x="341" y="465.4551">status : ETaskStatus</text><line style="stroke: #A80036; stroke-width: 1.5;" x1="322" x2="481" y1="471.7754" y2="471.7754"/><ellipse cx="332" cy="483.7529" fill="#84BE84" rx="3" ry="3" style="stroke: #038048; stroke-width: 1.0;"/><text fill="#000000" font-family="sans-serif" font-size="11" lengthAdjust="spacingAndGlyphs" textLength="72" x="341" y="486.4102">pause() : void</text><ellipse cx="332" cy="496.708" fill="#84BE84" rx="3" ry="3" style="stroke: #038048; stroke-width: 1.0;"/><text fill="#000000" font-family="sans-serif" font-size="11" lengthAdjust="spacingAndGlyphs" textLength="62" x="341" y="499.3652">play() : void</text><ellipse cx="332" cy="509.6631" fill="#84BE84" rx="3" ry="3" style="stroke: #038048; stroke-width: 1.0;"/><text fill="#000000" font-family="sans-serif" font-size="11" lengthAdjust="spacingAndGlyphs" textLength="64" x="341" y="512.3203">stop() : void</text><ellipse cx="332" cy="522.6182" fill="#84BE84" rx="3" ry="3" style="stroke: #038048; stroke-width: 1.0;"/><text fill="#000000" font-family="sans-serif" font-size="11" lengthAdjust="spacingAndGlyphs" textLength="74" x="341" y="525.2754">toggle() : void</text><path d="M180.1,134.57 C197.41,149.78 215.65,165.8 232.63,180.73 " fill="none" style="stroke: #A80036; stroke-width: 1.0;"/><polygon fill="none" points="175.26,139.64,164.86,121.18,184.5,129.12,175.26,139.64" style="stroke: #A80036; stroke-width: 1.0;"/><path d="M303.5,111.49 C303.5,132.6 303.5,157.95 303.5,180.73 " fill="none" style="stroke: #A80036; stroke-width: 1.0; stroke-dasharray: 7.0,7.0;"/><polygon fill="none" points="296.5,111.31,303.5,91.31,310.5,111.31,296.5,111.31" style="stroke: #A80036; stroke-width: 1.0;"/><path d="M448.58,105.29 C425.18,127.5 395.51,155.67 369.1,180.73 " fill="none" style="stroke: #A80036; stroke-width: 1.0; stroke-dasharray: 7.0,7.0;"/><polygon fill="none" points="443.98,100,463.31,91.31,453.62,110.16,443.98,100" style="stroke: #A80036; stroke-width: 1.0;"/><path d="M264.8,325.36 C255.03,345.65 244.69,367.13 235.42,386.37 " fill="none" style="stroke: #A80036; stroke-width: 1.0;"/><polygon fill="none" points="258.58,322.14,273.56,307.16,271.19,328.22,258.58,322.14" style="stroke: #A80036; stroke-width: 1.0;"/><path d="M342.19,325.33 C348.76,338.98 355.59,353.16 362.17,366.83 " fill="none" style="stroke: #A80036; stroke-width: 1.0;"/><polygon fill="none" points="335.81,328.22,333.44,307.16,348.42,322.14,335.81,328.22" style="stroke: #A80036; stroke-width: 1.0;"/></g></svg>