<?xml version="1.0" encoding="UTF-8" standalone="no"?><svg xmlns="http://www.w3.org/2000/svg" xmlns:xlink="http://www.w3.org/1999/xlink" contentScriptType="application/ecmascript" contentStyleType="text/css" height="182px" preserveAspectRatio="none" style="width:482px;height:182px;" version="1.1" viewBox="0 0 482 182" width="482px" zoomAndPan="magnify"><defs><filter height="300%" id="fq1zd7g" width="300%" x="-1" y="-1"><feGaussianBlur result="blurOut" stdDeviation="2.0"/><feColorMatrix in="blurOut" result="blurOut2" type="matrix" values="0 0 0 0 0 0 0 0 0 0 0 0 0 0 0 0 0 0 .4 0"/><feOffset dx="4.0" dy="4.0" in="blurOut2" result="blurOut3"/><feBlend in="SourceGraphic" in2="blurOut3" mode="normal"/></filter></defs><g><!--class TaskRepository--><rect fill="#FEFECE" filter="url(#fq1zd7g)" height="52.9551" style="stroke: #A80036; stroke-width: 1.5;" width="467" x="6" y="121"/><ellipse cx="190.75" cy="137" fill="#ADD1B2" rx="11" ry="11" style="stroke: #A80036; stroke-width: 1.0;"/><path d="M193.2231,143.1431 Q192.6421,143.4419 192.0029,143.5913 Q191.3638,143.7407 190.6582,143.7407 Q188.1514,143.7407 186.8315,142.0889 Q185.5117,140.437 185.5117,137.3159 Q185.5117,134.1865 186.8315,132.5347 Q188.1514,130.8828 190.6582,130.8828 Q191.3638,130.8828 192.0112,131.0322 Q192.6587,131.1816 193.2231,131.4805 L193.2231,134.2031 Q192.5923,133.6221 191.9988,133.3523 Q191.4053,133.0825 190.7744,133.0825 Q189.4297,133.0825 188.7449,134.1492 Q188.0601,135.2158 188.0601,137.3159 Q188.0601,139.4077 188.7449,140.4744 Q189.4297,141.541 190.7744,141.541 Q191.4053,141.541 191.9988,141.2712 Q192.5923,141.0015 193.2231,140.4204 Z "/><text fill="#000000" font-family="sans-serif" font-size="12" lengthAdjust="spacingAndGlyphs" textLength="89" x="211.25" y="141.5352">TaskRepository</text><line style="stroke: #A80036; stroke-width: 1.5;" x1="7" x2="472" y1="153" y2="153"/><ellipse cx="17" cy="164.9775" fill="#84BE84" rx="3" ry="3" style="stroke: #038048; stroke-width: 1.0;"/><text fill="#000000" font-family="sans-serif" font-size="11" lengthAdjust="spacingAndGlyphs" textLength="441" x="26" y="167.6348">createTask(id: string, content: TaskContentType, finishDate: Date | null) : ITaskItem</text><!--class ITaskRepository--><rect fill="#FEFECE" filter="url(#fq1zd7g)" height="52.9551" style="stroke: #A80036; stroke-width: 1.5;" width="467" x="6" y="8"/><ellipse cx="189.25" cy="24" fill="#B4A7E5" rx="11" ry="11" style="stroke: #A80036; stroke-width: 1.0;"/><path d="M185.6777,20.2651 L185.6777,18.1069 L193.0571,18.1069 L193.0571,20.2651 L190.5918,20.2651 L190.5918,28.3418 L193.0571,28.3418 L193.0571,30.5 L185.6777,30.5 L185.6777,28.3418 L188.1431,28.3418 L188.1431,20.2651 Z "/><text fill="#000000" font-family="sans-serif" font-size="12" font-style="italic" lengthAdjust="spacingAndGlyphs" textLength="92" x="209.75" y="28.5352">ITaskRepository</text><line style="stroke: #A80036; stroke-width: 1.5;" x1="7" x2="472" y1="40" y2="40"/><ellipse cx="17" cy="51.9775" fill="#84BE84" rx="3" ry="3" style="stroke: #038048; stroke-width: 1.0;"/><text fill="#000000" font-family="sans-serif" font-size="11" lengthAdjust="spacingAndGlyphs" textLength="441" x="26" y="54.6348">createTask(id: string, content: TaskContentType, finishDate: Date | null) : ITaskItem</text><path d="M239.5,81.34 C239.5,94.85 239.5,109.15 239.5,120.89 " fill="none" style="stroke: #A80036; stroke-width: 1.0; stroke-dasharray: 7.0,7.0;"/><polygon fill="none" points="232.5,81.24,239.5,61.24,246.5,81.24,232.5,81.24" style="stroke: #A80036; stroke-width: 1.0;"/></g></svg>