<?xml version="1.0" encoding="UTF-8" standalone="no"?><svg xmlns="http://www.w3.org/2000/svg" xmlns:xlink="http://www.w3.org/1999/xlink" contentScriptType="application/ecmascript" contentStyleType="text/css" height="216px" preserveAspectRatio="none" style="width:489px;height:216px;" version="1.1" viewBox="0 0 489 216" width="489px" zoomAndPan="magnify"><defs><filter height="300%" id="fdnarsh" width="300%" x="-1" y="-1"><feGaussianBlur result="blurOut" stdDeviation="2.0"/><feColorMatrix in="blurOut" result="blurOut2" type="matrix" values="0 0 0 0 0 0 0 0 0 0 0 0 0 0 0 0 0 0 .4 0"/><feOffset dx="4.0" dy="4.0" in="blurOut2" result="blurOut3"/><feBlend in="SourceGraphic" in2="blurOut3" mode="normal"/></filter></defs><g><!--class TaskUsecase--><rect fill="#FEFECE" filter="url(#fdnarsh)" height="86.8652" style="stroke: #A80036; stroke-width: 1.5;" width="474" x="6" y="121"/><ellipse cx="201.25" cy="137" fill="#ADD1B2" rx="11" ry="11" style="stroke: #A80036; stroke-width: 1.0;"/><path d="M203.7231,143.1431 Q203.1421,143.4419 202.5029,143.5913 Q201.8638,143.7407 201.1582,143.7407 Q198.6514,143.7407 197.3315,142.0889 Q196.0117,140.437 196.0117,137.3159 Q196.0117,134.1865 197.3315,132.5347 Q198.6514,130.8828 201.1582,130.8828 Q201.8638,130.8828 202.5112,131.0322 Q203.1587,131.1816 203.7231,131.4805 L203.7231,134.2031 Q203.0923,133.6221 202.4988,133.3523 Q201.9053,133.0825 201.2744,133.0825 Q199.9297,133.0825 199.2449,134.1492 Q198.5601,135.2158 198.5601,137.3159 Q198.5601,139.4077 199.2449,140.4744 Q199.9297,141.541 201.2744,141.541 Q201.9053,141.541 202.4988,141.2712 Q203.0923,141.0015 203.7231,140.4204 Z "/><text fill="#000000" font-family="sans-serif" font-size="12" lengthAdjust="spacingAndGlyphs" textLength="75" x="221.75" y="141.5352">TaskUsecase</text><line style="stroke: #A80036; stroke-width: 1.5;" x1="7" x2="479" y1="153" y2="153"/><rect fill="none" height="6" style="stroke: #C82930; stroke-width: 1.0;" width="6" x="14" y="161.9775"/><text fill="#000000" font-family="sans-serif" font-size="11" lengthAdjust="spacingAndGlyphs" textLength="70" x="26" y="167.6348">api : ITaskAPI</text><rect fill="none" height="6" style="stroke: #C82930; stroke-width: 1.0;" width="6" x="14" y="174.9326"/><text fill="#000000" font-family="sans-serif" font-size="11" lengthAdjust="spacingAndGlyphs" textLength="120" x="26" y="180.5898">repo : ITaskRepository</text><line style="stroke: #A80036; stroke-width: 1.5;" x1="7" x2="479" y1="186.9102" y2="186.9102"/><ellipse cx="17" cy="198.8877" fill="#84BE84" rx="3" ry="3" style="stroke: #038048; stroke-width: 1.0;"/><text fill="#000000" font-family="sans-serif" font-size="11" lengthAdjust="spacingAndGlyphs" textLength="448" x="26" y="201.5449">createTask(content: TaskContentType, finishDate: Date | null) : Promise&lt;ITaskItem&gt;</text><!--class ITaskUsecase--><rect fill="#FEFECE" filter="url(#fdnarsh)" height="52.9551" style="stroke: #A80036; stroke-width: 1.5;" width="474" x="6" y="8"/><ellipse cx="199.75" cy="24" fill="#B4A7E5" rx="11" ry="11" style="stroke: #A80036; stroke-width: 1.0;"/><path d="M196.1777,20.2651 L196.1777,18.1069 L203.5571,18.1069 L203.5571,20.2651 L201.0918,20.2651 L201.0918,28.3418 L203.5571,28.3418 L203.5571,30.5 L196.1777,30.5 L196.1777,28.3418 L198.6431,28.3418 L198.6431,20.2651 Z "/><text fill="#000000" font-family="sans-serif" font-size="12" font-style="italic" lengthAdjust="spacingAndGlyphs" textLength="78" x="220.25" y="28.5352">ITaskUsecase</text><line style="stroke: #A80036; stroke-width: 1.5;" x1="7" x2="479" y1="40" y2="40"/><ellipse cx="17" cy="51.9775" fill="#84BE84" rx="3" ry="3" style="stroke: #038048; stroke-width: 1.0;"/><text fill="#000000" font-family="sans-serif" font-size="11" lengthAdjust="spacingAndGlyphs" textLength="448" x="26" y="54.6348">createTask(content: TaskContentType, finishDate: Date | null) : Promise&lt;ITaskItem&gt;</text><path d="M243,81.33 C243,94.2 243,108.14 243,120.81 " fill="none" style="stroke: #A80036; stroke-width: 1.0; stroke-dasharray: 7.0,7.0;"/><polygon fill="none" points="236,81.1,243,61.1,250,81.1,236,81.1" style="stroke: #A80036; stroke-width: 1.0;"/></g></svg>