<?xml version="1.0" encoding="UTF-8" standalone="no"?><svg xmlns="http://www.w3.org/2000/svg" xmlns:xlink="http://www.w3.org/1999/xlink" contentScriptType="application/ecmascript" contentStyleType="text/css" height="281px" preserveAspectRatio="none" style="width:334px;height:281px;" version="1.1" viewBox="0 0 334 281" width="334px" zoomAndPan="magnify"><defs><filter height="300%" id="fktz87t" width="300%" x="-1" y="-1"><feGaussianBlur result="blurOut" stdDeviation="2.0"/><feColorMatrix in="blurOut" result="blurOut2" type="matrix" values="0 0 0 0 0 0 0 0 0 0 0 0 0 0 0 0 0 0 .4 0"/><feOffset dx="4.0" dy="4.0" in="blurOut2" result="blurOut3"/><feBlend in="SourceGraphic" in2="blurOut3" mode="normal"/></filter></defs><g><!--class TaskListRepository--><rect fill="#FEFECE" filter="url(#fktz87t)" height="112.7754" style="stroke: #A80036; stroke-width: 1.5;" width="319" x="6" y="160"/><ellipse cx="107.25" cy="176" fill="#ADD1B2" rx="11" ry="11" style="stroke: #A80036; stroke-width: 1.0;"/><path d="M109.7231,182.1431 Q109.1421,182.4419 108.5029,182.5913 Q107.8638,182.7407 107.1582,182.7407 Q104.6514,182.7407 103.3315,181.0889 Q102.0117,179.437 102.0117,176.3159 Q102.0117,173.1865 103.3315,171.5347 Q104.6514,169.8828 107.1582,169.8828 Q107.8638,169.8828 108.5112,170.0322 Q109.1587,170.1816 109.7231,170.4805 L109.7231,173.2031 Q109.0923,172.6221 108.4988,172.3523 Q107.9053,172.0825 107.2744,172.0825 Q105.9297,172.0825 105.2449,173.1492 Q104.5601,174.2158 104.5601,176.3159 Q104.5601,178.4077 105.2449,179.4744 Q105.9297,180.541 107.2744,180.541 Q107.9053,180.541 108.4988,180.2712 Q109.0923,180.0015 109.7231,179.4204 Z "/><text fill="#000000" font-family="sans-serif" font-size="12" lengthAdjust="spacingAndGlyphs" textLength="108" x="127.75" y="180.5352">TaskListRepository</text><line style="stroke: #A80036; stroke-width: 1.5;" x1="7" x2="324" y1="192" y2="192"/><rect fill="none" height="6" style="stroke: #C82930; stroke-width: 1.0;" width="6" x="14" y="200.9775"/><text fill="#000000" font-family="sans-serif" font-size="11" lengthAdjust="spacingAndGlyphs" textLength="155" x="26" y="206.6348">_taskList : Array&lt;ITaskItem&gt;</text><line style="stroke: #A80036; stroke-width: 1.5;" x1="7" x2="324" y1="212.9551" y2="212.9551"/><ellipse cx="17" cy="224.9326" fill="#84BE84" rx="3" ry="3" style="stroke: #038048; stroke-width: 1.0;"/><text fill="#000000" font-family="sans-serif" font-size="11" lengthAdjust="spacingAndGlyphs" textLength="182" x="26" y="227.5898">addTask(t: ITaskItem) : ITaskItem[]</text><ellipse cx="17" cy="237.8877" fill="#84BE84" rx="3" ry="3" style="stroke: #038048; stroke-width: 1.0;"/><text fill="#000000" font-family="sans-serif" font-size="11" lengthAdjust="spacingAndGlyphs" textLength="129" x="26" y="240.5449">delTask(id: string) : void</text><ellipse cx="17" cy="250.8428" fill="#84BE84" rx="3" ry="3" style="stroke: #038048; stroke-width: 1.0;"/><text fill="#000000" font-family="sans-serif" font-size="11" lengthAdjust="spacingAndGlyphs" textLength="188" x="26" y="253.5">getTask(id: string) : ITaskItem | null</text><ellipse cx="17" cy="263.7979" fill="#84BE84" rx="3" ry="3" style="stroke: #038048; stroke-width: 1.0;"/><text fill="#000000" font-family="sans-serif" font-size="11" lengthAdjust="spacingAndGlyphs" textLength="293" x="26" y="266.4551">updateTask(id: string, t: ITaskItem) : Array&lt;ITaskItem&gt;</text><!--class ITaskLiskRepository--><rect fill="#FEFECE" filter="url(#fktz87t)" height="91.8203" style="stroke: #A80036; stroke-width: 1.5;" width="319" x="6" y="8"/><ellipse cx="104.25" cy="24" fill="#B4A7E5" rx="11" ry="11" style="stroke: #A80036; stroke-width: 1.0;"/><path d="M100.6777,20.2651 L100.6777,18.1069 L108.0571,18.1069 L108.0571,20.2651 L105.5918,20.2651 L105.5918,28.3418 L108.0571,28.3418 L108.0571,30.5 L100.6777,30.5 L100.6777,28.3418 L103.1431,28.3418 L103.1431,20.2651 Z "/><text fill="#000000" font-family="sans-serif" font-size="12" font-style="italic" lengthAdjust="spacingAndGlyphs" textLength="114" x="124.75" y="28.5352">ITaskLiskRepository</text><line style="stroke: #A80036; stroke-width: 1.5;" x1="7" x2="324" y1="40" y2="40"/><ellipse cx="17" cy="51.9775" fill="#84BE84" rx="3" ry="3" style="stroke: #038048; stroke-width: 1.0;"/><text fill="#000000" font-family="sans-serif" font-size="11" lengthAdjust="spacingAndGlyphs" textLength="222" x="26" y="54.6348">addTask(t: ITaskItem) : Array&lt;ITaskItem&gt;</text><ellipse cx="17" cy="64.9326" fill="#84BE84" rx="3" ry="3" style="stroke: #038048; stroke-width: 1.0;"/><text fill="#000000" font-family="sans-serif" font-size="11" lengthAdjust="spacingAndGlyphs" textLength="129" x="26" y="67.5898">delTask(id: string) : void</text><ellipse cx="17" cy="77.8877" fill="#84BE84" rx="3" ry="3" style="stroke: #038048; stroke-width: 1.0;"/><text fill="#000000" font-family="sans-serif" font-size="11" lengthAdjust="spacingAndGlyphs" textLength="188" x="26" y="80.5449">getTask(id: string) : ITaskItem | null</text><ellipse cx="17" cy="90.8428" fill="#84BE84" rx="3" ry="3" style="stroke: #038048; stroke-width: 1.0;"/><text fill="#000000" font-family="sans-serif" font-size="11" lengthAdjust="spacingAndGlyphs" textLength="293" x="26" y="93.5">updateTask(id: string, t: ITaskItem) : Array&lt;ITaskItem&gt;</text><path d="M165.5,120.15 C165.5,133.32 165.5,147.05 165.5,159.85 " fill="none" style="stroke: #A80036; stroke-width: 1.0; stroke-dasharray: 7.0,7.0;"/><polygon fill="none" points="158.5,120.14,165.5,100.14,172.5,120.14,158.5,120.14" style="stroke: #A80036; stroke-width: 1.0;"/></g></svg>