<?xml version="1.0" encoding="UTF-8" standalone="no"?><svg xmlns="http://www.w3.org/2000/svg" xmlns:xlink="http://www.w3.org/1999/xlink" contentScriptType="application/ecmascript" contentStyleType="text/css" height="216px" preserveAspectRatio="none" style="width:320px;height:216px;" version="1.1" viewBox="0 0 320 216" width="320px" zoomAndPan="magnify"><defs><filter height="300%" id="fuzc7zg" width="300%" x="-1" y="-1"><feGaussianBlur result="blurOut" stdDeviation="2.0"/><feColorMatrix in="blurOut" result="blurOut2" type="matrix" values="0 0 0 0 0 0 0 0 0 0 0 0 0 0 0 0 0 0 .4 0"/><feOffset dx="4.0" dy="4.0" in="blurOut2" result="blurOut3"/><feBlend in="SourceGraphic" in2="blurOut3" mode="normal"/></filter></defs><g><!--class TaskAPI--><rect fill="#FEFECE" filter="url(#fuzc7zg)" height="86.8652" style="stroke: #A80036; stroke-width: 1.5;" width="305" x="6" y="121"/><ellipse cx="131.25" cy="137" fill="#ADD1B2" rx="11" ry="11" style="stroke: #A80036; stroke-width: 1.0;"/><path d="M133.7231,143.1431 Q133.1421,143.4419 132.5029,143.5913 Q131.8638,143.7407 131.1582,143.7407 Q128.6514,143.7407 127.3315,142.0889 Q126.0117,140.437 126.0117,137.3159 Q126.0117,134.1865 127.3315,132.5347 Q128.6514,130.8828 131.1582,130.8828 Q131.8638,130.8828 132.5112,131.0322 Q133.1587,131.1816 133.7231,131.4805 L133.7231,134.2031 Q133.0923,133.6221 132.4988,133.3523 Q131.9053,133.0825 131.2744,133.0825 Q129.9297,133.0825 129.2449,134.1492 Q128.5601,135.2158 128.5601,137.3159 Q128.5601,139.4077 129.2449,140.4744 Q129.9297,141.541 131.2744,141.541 Q131.9053,141.541 132.4988,141.2712 Q133.0923,141.0015 133.7231,140.4204 Z "/><text fill="#000000" font-family="sans-serif" font-size="12" lengthAdjust="spacingAndGlyphs" textLength="46" x="151.75" y="141.5352">TaskAPI</text><line style="stroke: #A80036; stroke-width: 1.5;" x1="7" x2="310" y1="153" y2="153"/><rect fill="none" height="6" style="stroke: #C82930; stroke-width: 1.0;" width="6" x="14" y="161.9775"/><text fill="#000000" font-family="sans-serif" font-size="11" lengthAdjust="spacingAndGlyphs" text-decoration="underline" textLength="126" x="26" y="167.6348">instance : TaskAPI | null</text><line style="stroke: #000000; stroke-width: 1.0;" x1="26" x2="152" y1="169.6348" y2="169.6348"/><line style="stroke: #A80036; stroke-width: 1.5;" x1="7" x2="310" y1="173.9551" y2="173.9551"/><ellipse cx="17" cy="185.9326" fill="#84BE84" rx="3" ry="3" style="stroke: #038048; stroke-width: 1.0;"/><text fill="#000000" font-family="sans-serif" font-size="11" lengthAdjust="spacingAndGlyphs" textLength="279" x="26" y="188.5898">createTask(content: string | URL) : Promise&lt;object&gt;</text><ellipse cx="17" cy="198.8877" fill="#84BE84" rx="3" ry="3" style="stroke: #038048; stroke-width: 1.0;"/><text fill="#000000" font-family="sans-serif" font-size="11" lengthAdjust="spacingAndGlyphs" text-decoration="underline" textLength="139" x="26" y="201.5449">getInstance() : TaskAPI&lt;&gt;</text><line style="stroke: #000000; stroke-width: 1.0;" x1="26" x2="165" y1="203.5449" y2="203.5449"/><!--class ITaskAPI--><rect fill="#FEFECE" filter="url(#fuzc7zg)" height="52.9551" style="stroke: #A80036; stroke-width: 1.5;" width="305" x="6" y="8"/><ellipse cx="129.75" cy="24" fill="#B4A7E5" rx="11" ry="11" style="stroke: #A80036; stroke-width: 1.0;"/><path d="M126.1777,20.2651 L126.1777,18.1069 L133.5571,18.1069 L133.5571,20.2651 L131.0918,20.2651 L131.0918,28.3418 L133.5571,28.3418 L133.5571,30.5 L126.1777,30.5 L126.1777,28.3418 L128.6431,28.3418 L128.6431,20.2651 Z "/><text fill="#000000" font-family="sans-serif" font-size="12" font-style="italic" lengthAdjust="spacingAndGlyphs" textLength="49" x="150.25" y="28.5352">ITaskAPI</text><line style="stroke: #A80036; stroke-width: 1.5;" x1="7" x2="310" y1="40" y2="40"/><ellipse cx="17" cy="51.9775" fill="#84BE84" rx="3" ry="3" style="stroke: #038048; stroke-width: 1.0;"/><text fill="#000000" font-family="sans-serif" font-size="11" lengthAdjust="spacingAndGlyphs" textLength="279" x="26" y="54.6348">createTask(content: string | URL) : Promise&lt;object&gt;</text><path d="M158.5,81.33 C158.5,94.2 158.5,108.14 158.5,120.81 " fill="none" style="stroke: #A80036; stroke-width: 1.0; stroke-dasharray: 7.0,7.0;"/><polygon fill="none" points="151.5,81.1,158.5,61.1,165.5,81.1,151.5,81.1" style="stroke: #A80036; stroke-width: 1.0;"/></g></svg>