<?xml version="1.0" encoding="UTF-8" standalone="no"?><svg xmlns="http://www.w3.org/2000/svg" xmlns:xlink="http://www.w3.org/1999/xlink" contentScriptType="application/ecmascript" contentStyleType="text/css" height="302px" preserveAspectRatio="none" style="width:334px;height:302px;" version="1.1" viewBox="0 0 334 302" width="334px" zoomAndPan="magnify"><defs><filter height="300%" id="f43bowh" width="300%" x="-1" y="-1"><feGaussianBlur result="blurOut" stdDeviation="2.0"/><feColorMatrix in="blurOut" result="blurOut2" type="matrix" values="0 0 0 0 0 0 0 0 0 0 0 0 0 0 0 0 0 0 .4 0"/><feOffset dx="4.0" dy="4.0" in="blurOut2" result="blurOut3"/><feBlend in="SourceGraphic" in2="blurOut3" mode="normal"/></filter></defs><g><!--class TaskListRepository--><rect fill="#FEFECE" filter="url(#f43bowh)" height="112.7754" style="stroke: #A80036; stroke-width: 1.5;" width="319" x="6" y="181"/><ellipse cx="107.25" cy="197" fill="#ADD1B2" rx="11" ry="11" style="stroke: #A80036; stroke-width: 1.0;"/><path d="M109.7231,203.1431 Q109.1421,203.4419 108.5029,203.5913 Q107.8638,203.7407 107.1582,203.7407 Q104.6514,203.7407 103.3315,202.0889 Q102.0117,200.437 102.0117,197.3159 Q102.0117,194.1865 103.3315,192.5347 Q104.6514,190.8828 107.1582,190.8828 Q107.8638,190.8828 108.5112,191.0322 Q109.1587,191.1816 109.7231,191.4805 L109.7231,194.2031 Q109.0923,193.6221 108.4988,193.3523 Q107.9053,193.0825 107.2744,193.0825 Q105.9297,193.0825 105.2449,194.1492 Q104.5601,195.2158 104.5601,197.3159 Q104.5601,199.4077 105.2449,200.4744 Q105.9297,201.541 107.2744,201.541 Q107.9053,201.541 108.4988,201.2712 Q109.0923,201.0015 109.7231,200.4204 Z "/><text fill="#000000" font-family="sans-serif" font-size="12" lengthAdjust="spacingAndGlyphs" textLength="108" x="127.75" y="201.5352">TaskListRepository</text><line style="stroke: #A80036; stroke-width: 1.5;" x1="7" x2="324" y1="213" y2="213"/><rect fill="none" height="6" style="stroke: #C82930; stroke-width: 1.0;" width="6" x="14" y="221.9775"/><text fill="#000000" font-family="sans-serif" font-size="11" lengthAdjust="spacingAndGlyphs" textLength="155" x="26" y="227.6348">_taskList : Array&lt;ITaskItem&gt;</text><line style="stroke: #A80036; stroke-width: 1.5;" x1="7" x2="324" y1="233.9551" y2="233.9551"/><ellipse cx="17" cy="245.9326" fill="#84BE84" rx="3" ry="3" style="stroke: #038048; stroke-width: 1.0;"/><text fill="#000000" font-family="sans-serif" font-size="11" lengthAdjust="spacingAndGlyphs" textLength="182" x="26" y="248.5898">addTask(t: ITaskItem) : ITaskItem[]</text><ellipse cx="17" cy="258.8877" fill="#84BE84" rx="3" ry="3" style="stroke: #038048; stroke-width: 1.0;"/><text fill="#000000" font-family="sans-serif" font-size="11" lengthAdjust="spacingAndGlyphs" textLength="129" x="26" y="261.5449">delTask(id: string) : void</text><ellipse cx="17" cy="271.8428" fill="#84BE84" rx="3" ry="3" style="stroke: #038048; stroke-width: 1.0;"/><text fill="#000000" font-family="sans-serif" font-size="11" lengthAdjust="spacingAndGlyphs" textLength="188" x="26" y="274.5">getTask(id: string) : ITaskItem | null</text><ellipse cx="17" cy="284.7979" fill="#84BE84" rx="3" ry="3" style="stroke: #038048; stroke-width: 1.0;"/><text fill="#000000" font-family="sans-serif" font-size="11" lengthAdjust="spacingAndGlyphs" textLength="293" x="26" y="287.4551">updateTask(id: string, t: ITaskItem) : Array&lt;ITaskItem&gt;</text><!--class ITaskListRepository--><rect fill="#FEFECE" filter="url(#f43bowh)" height="112.7754" style="stroke: #A80036; stroke-width: 1.5;" width="319" x="6" y="8"/><ellipse cx="105.75" cy="24" fill="#B4A7E5" rx="11" ry="11" style="stroke: #A80036; stroke-width: 1.0;"/><path d="M102.1777,20.2651 L102.1777,18.1069 L109.5571,18.1069 L109.5571,20.2651 L107.0918,20.2651 L107.0918,28.3418 L109.5571,28.3418 L109.5571,30.5 L102.1777,30.5 L102.1777,28.3418 L104.6431,28.3418 L104.6431,20.2651 Z "/><text fill="#000000" font-family="sans-serif" font-size="12" font-style="italic" lengthAdjust="spacingAndGlyphs" textLength="111" x="126.25" y="28.5352">ITaskListRepository</text><line style="stroke: #A80036; stroke-width: 1.5;" x1="7" x2="324" y1="40" y2="40"/><ellipse cx="17" cy="51.9775" fill="none" rx="3" ry="3" style="stroke: #038048; stroke-width: 1.0;"/><text fill="#000000" font-family="sans-serif" font-size="11" lengthAdjust="spacingAndGlyphs" textLength="149" x="26" y="54.6348">taskList : Array&lt;ITaskItem&gt;</text><line style="stroke: #A80036; stroke-width: 1.5;" x1="7" x2="324" y1="60.9551" y2="60.9551"/><ellipse cx="17" cy="72.9326" fill="#84BE84" rx="3" ry="3" style="stroke: #038048; stroke-width: 1.0;"/><text fill="#000000" font-family="sans-serif" font-size="11" lengthAdjust="spacingAndGlyphs" textLength="222" x="26" y="75.5898">addTask(t: ITaskItem) : Array&lt;ITaskItem&gt;</text><ellipse cx="17" cy="85.8877" fill="#84BE84" rx="3" ry="3" style="stroke: #038048; stroke-width: 1.0;"/><text fill="#000000" font-family="sans-serif" font-size="11" lengthAdjust="spacingAndGlyphs" textLength="129" x="26" y="88.5449">delTask(id: string) : void</text><ellipse cx="17" cy="98.8428" fill="#84BE84" rx="3" ry="3" style="stroke: #038048; stroke-width: 1.0;"/><text fill="#000000" font-family="sans-serif" font-size="11" lengthAdjust="spacingAndGlyphs" textLength="188" x="26" y="101.5">getTask(id: string) : ITaskItem | null</text><ellipse cx="17" cy="111.7979" fill="#84BE84" rx="3" ry="3" style="stroke: #038048; stroke-width: 1.0;"/><text fill="#000000" font-family="sans-serif" font-size="11" lengthAdjust="spacingAndGlyphs" textLength="293" x="26" y="114.4551">updateTask(id: string, t: ITaskItem) : Array&lt;ITaskItem&gt;</text><path d="M165.5,141.46 C165.5,154.76 165.5,168.36 165.5,180.97 " fill="none" style="stroke: #A80036; stroke-width: 1.0; stroke-dasharray: 7.0,7.0;"/><polygon fill="none" points="158.5,141.02,165.5,121.02,172.5,141.02,158.5,141.02" style="stroke: #A80036; stroke-width: 1.0;"/></g></svg>