<?xml version="1.0" encoding="UTF-8" standalone="no"?><svg xmlns="http://www.w3.org/2000/svg" xmlns:xlink="http://www.w3.org/1999/xlink" contentScriptType="application/ecmascript" contentStyleType="text/css" height="234px" preserveAspectRatio="none" style="width:215px;height:234px;" version="1.1" viewBox="0 0 215 234" width="215px" zoomAndPan="magnify"><defs><filter height="300%" id="f9hzq41" width="300%" x="-1" y="-1"><feGaussianBlur result="blurOut" stdDeviation="2.0"/><feColorMatrix in="blurOut" result="blurOut2" type="matrix" values="0 0 0 0 0 0 0 0 0 0 0 0 0 0 0 0 0 0 .4 0"/><feOffset dx="4.0" dy="4.0" in="blurOut2" result="blurOut3"/><feBlend in="SourceGraphic" in2="blurOut3" mode="normal"/></filter></defs><g><!--class TaskOwner--><rect fill="#FEFECE" filter="url(#f9hzq41)" height="78.8652" style="stroke: #A80036; stroke-width: 1.5;" width="160" x="26" y="147"/><ellipse cx="69.35" cy="163" fill="#ADD1B2" rx="11" ry="11" style="stroke: #A80036; stroke-width: 1.0;"/><path d="M71.8231,169.1431 Q71.2421,169.4419 70.6029,169.5913 Q69.9638,169.7407 69.2582,169.7407 Q66.7514,169.7407 65.4315,168.0889 Q64.1117,166.437 64.1117,163.3159 Q64.1117,160.1865 65.4315,158.5347 Q66.7514,156.8828 69.2582,156.8828 Q69.9638,156.8828 70.6112,157.0322 Q71.2587,157.1816 71.8231,157.4805 L71.8231,160.2031 Q71.1923,159.6221 70.5988,159.3523 Q70.0053,159.0825 69.3744,159.0825 Q68.0297,159.0825 67.3449,160.1492 Q66.6601,161.2158 66.6601,163.3159 Q66.6601,165.4077 67.3449,166.4744 Q68.0297,167.541 69.3744,167.541 Q70.0053,167.541 70.5988,167.2712 Q71.1923,167.0015 71.8231,166.4204 Z "/><text fill="#000000" font-family="sans-serif" font-size="12" lengthAdjust="spacingAndGlyphs" textLength="65" x="89.65" y="167.5352">TaskOwner</text><line style="stroke: #A80036; stroke-width: 1.5;" x1="27" x2="185" y1="179" y2="179"/><ellipse cx="37" cy="190.9775" fill="none" rx="3" ry="3" style="stroke: #038048; stroke-width: 1.0;"/><text fill="#000000" font-family="sans-serif" font-size="11" lengthAdjust="spacingAndGlyphs" textLength="118" x="46" y="193.6348">friends : ITaskOwner[]</text><ellipse cx="37" cy="203.9326" fill="none" rx="3" ry="3" style="stroke: #038048; stroke-width: 1.0;"/><text fill="#000000" font-family="sans-serif" font-size="11" lengthAdjust="spacingAndGlyphs" textLength="51" x="46" y="206.5898">id : string</text><ellipse cx="37" cy="216.8877" fill="none" rx="3" ry="3" style="stroke: #038048; stroke-width: 1.0;"/><text fill="#000000" font-family="sans-serif" font-size="11" lengthAdjust="spacingAndGlyphs" textLength="134" x="46" y="219.5449">ownedTasks : ITaskItem[]</text><!--class ITaskOwner--><rect fill="#FEFECE" filter="url(#f9hzq41)" height="78.8652" style="stroke: #A80036; stroke-width: 1.5;" width="200" x="6" y="8"/><ellipse cx="67.75" cy="24" fill="#B4A7E5" rx="11" ry="11" style="stroke: #A80036; stroke-width: 1.0;"/><path d="M64.1777,20.2651 L64.1777,18.1069 L71.5571,18.1069 L71.5571,20.2651 L69.0918,20.2651 L69.0918,28.3418 L71.5571,28.3418 L71.5571,30.5 L64.1777,30.5 L64.1777,28.3418 L66.6431,28.3418 L66.6431,20.2651 Z "/><text fill="#000000" font-family="sans-serif" font-size="12" font-style="italic" lengthAdjust="spacingAndGlyphs" textLength="68" x="88.25" y="28.5352">ITaskOwner</text><line style="stroke: #A80036; stroke-width: 1.5;" x1="7" x2="205" y1="40" y2="40"/><ellipse cx="17" cy="51.9775" fill="none" rx="3" ry="3" style="stroke: #038048; stroke-width: 1.0;"/><text fill="#000000" font-family="sans-serif" font-size="11" lengthAdjust="spacingAndGlyphs" textLength="158" x="26" y="54.6348">friends : Array&lt;ITaskOwner&gt;</text><ellipse cx="17" cy="64.9326" fill="none" rx="3" ry="3" style="stroke: #038048; stroke-width: 1.0;"/><text fill="#000000" font-family="sans-serif" font-size="11" lengthAdjust="spacingAndGlyphs" textLength="51" x="26" y="67.5898">id : string</text><ellipse cx="17" cy="77.8877" fill="none" rx="3" ry="3" style="stroke: #038048; stroke-width: 1.0;"/><text fill="#000000" font-family="sans-serif" font-size="11" lengthAdjust="spacingAndGlyphs" textLength="174" x="26" y="80.5449">ownedTasks : Array&lt;ITaskItem&gt;</text><path d="M106,107.3 C106,120.66 106,134.51 106,146.79 " fill="none" style="stroke: #A80036; stroke-width: 1.0; stroke-dasharray: 7.0,7.0;"/><polygon fill="none" points="99,107.03,106,87.03,113,107.03,99,107.03" style="stroke: #A80036; stroke-width: 1.0;"/></g></svg>