<?xml version="1.0" encoding="UTF-8" standalone="no"?><svg xmlns="http://www.w3.org/2000/svg" xmlns:xlink="http://www.w3.org/1999/xlink" contentScriptType="application/ecmascript" contentStyleType="text/css" height="488px" preserveAspectRatio="none" style="width:381px;height:488px;" version="1.1" viewBox="0 0 381 488" width="381px" zoomAndPan="magnify"><defs><filter height="300%" id="fxpvs9y" width="300%" x="-1" y="-1"><feGaussianBlur result="blurOut" stdDeviation="2.0"/><feColorMatrix in="blurOut" result="blurOut2" type="matrix" values="0 0 0 0 0 0 0 0 0 0 0 0 0 0 0 0 0 0 .4 0"/><feOffset dx="4.0" dy="4.0" in="blurOut2" result="blurOut3"/><feBlend in="SourceGraphic" in2="blurOut3" mode="normal"/></filter></defs><g><!--class Task--><rect fill="#FEFECE" filter="url(#fxpvs9y)" height="125.7305" style="stroke: #A80036; stroke-width: 1.5;" width="191" x="95.5" y="168"/><ellipse cx="172.75" cy="184" fill="#ADD1B2" rx="11" ry="11" style="stroke: #A80036; stroke-width: 1.0;"/><path d="M175.2231,190.1431 Q174.6421,190.4419 174.0029,190.5913 Q173.3638,190.7407 172.6582,190.7407 Q170.1514,190.7407 168.8315,189.0889 Q167.5117,187.437 167.5117,184.3159 Q167.5117,181.1865 168.8315,179.5347 Q170.1514,177.8828 172.6582,177.8828 Q173.3638,177.8828 174.0112,178.0322 Q174.6587,178.1816 175.2231,178.4805 L175.2231,181.2031 Q174.5923,180.6221 173.9988,180.3523 Q173.4053,180.0825 172.7744,180.0825 Q171.4297,180.0825 170.7449,181.1492 Q170.0601,182.2158 170.0601,184.3159 Q170.0601,186.4077 170.7449,187.4744 Q171.4297,188.541 172.7744,188.541 Q173.4053,188.541 173.9988,188.2712 Q174.5923,188.0015 175.2231,187.4204 Z "/><text fill="#000000" font-family="sans-serif" font-size="12" lengthAdjust="spacingAndGlyphs" textLength="28" x="193.25" y="188.5352">Task</text><line style="stroke: #A80036; stroke-width: 1.5;" x1="96.5" x2="285.5" y1="200" y2="200"/><ellipse cx="106.5" cy="211.9775" fill="none" rx="3" ry="3" style="stroke: #038048; stroke-width: 1.0;"/><text fill="#000000" font-family="sans-serif" font-size="11" lengthAdjust="spacingAndGlyphs" textLength="57" x="115.5" y="214.6348">content : T</text><ellipse cx="106.5" cy="224.9326" fill="none" rx="3" ry="3" style="stroke: #038048; stroke-width: 1.0;"/><text fill="#000000" font-family="sans-serif" font-size="11" lengthAdjust="spacingAndGlyphs" textLength="51" x="115.5" y="227.5898">id : string</text><ellipse cx="106.5" cy="237.8877" fill="none" rx="3" ry="3" style="stroke: #038048; stroke-width: 1.0;"/><text fill="#000000" font-family="sans-serif" font-size="11" lengthAdjust="spacingAndGlyphs" textLength="135" x="115.5" y="240.5449">owner : ITaskOwner | null</text><ellipse cx="106.5" cy="250.8428" fill="none" rx="3" ry="3" style="stroke: #038048; stroke-width: 1.0;"/><text fill="#000000" font-family="sans-serif" font-size="11" lengthAdjust="spacingAndGlyphs" textLength="106" x="115.5" y="253.5">status : ETaskStatus</text><line style="stroke: #A80036; stroke-width: 1.5;" x1="96.5" x2="285.5" y1="259.8203" y2="259.8203"/><rect fill="#F24D5C" height="6" style="stroke: #C82930; stroke-width: 1.0;" width="6" x="103.5" y="268.7979"/><text fill="#000000" font-family="sans-serif" font-size="11" lengthAdjust="spacingAndGlyphs" textLength="165" x="115.5" y="274.4551">setStatus(s: ETaskStatus) : void</text><ellipse cx="106.5" cy="284.7529" fill="#84BE84" rx="3" ry="3" style="stroke: #038048; stroke-width: 1.0;"/><text fill="#000000" font-family="sans-serif" font-size="11" lengthAdjust="spacingAndGlyphs" textLength="74" x="115.5" y="287.4102">toggle() : void</text><!--class ITaskItem--><rect fill="#FEFECE" filter="url(#fxpvs9y)" height="99.8203" style="stroke: #A80036; stroke-width: 1.5;" width="170" x="6" y="8"/><ellipse cx="58.75" cy="24" fill="#B4A7E5" rx="11" ry="11" style="stroke: #A80036; stroke-width: 1.0;"/><path d="M55.1777,20.2651 L55.1777,18.1069 L62.5571,18.1069 L62.5571,20.2651 L60.0918,20.2651 L60.0918,28.3418 L62.5571,28.3418 L62.5571,30.5 L55.1777,30.5 L55.1777,28.3418 L57.6431,28.3418 L57.6431,20.2651 Z "/><text fill="#000000" font-family="sans-serif" font-size="12" font-style="italic" lengthAdjust="spacingAndGlyphs" textLength="56" x="79.25" y="28.5352">ITaskItem</text><line style="stroke: #A80036; stroke-width: 1.5;" x1="7" x2="175" y1="40" y2="40"/><ellipse cx="17" cy="51.9775" fill="none" rx="3" ry="3" style="stroke: #038048; stroke-width: 1.0;"/><text fill="#000000" font-family="sans-serif" font-size="11" lengthAdjust="spacingAndGlyphs" textLength="144" x="26" y="54.6348">content : TaskContentType</text><ellipse cx="17" cy="64.9326" fill="none" rx="3" ry="3" style="stroke: #038048; stroke-width: 1.0;"/><text fill="#000000" font-family="sans-serif" font-size="11" lengthAdjust="spacingAndGlyphs" textLength="51" x="26" y="67.5898">id : string</text><ellipse cx="17" cy="77.8877" fill="none" rx="3" ry="3" style="stroke: #038048; stroke-width: 1.0;"/><text fill="#000000" font-family="sans-serif" font-size="11" lengthAdjust="spacingAndGlyphs" textLength="106" x="26" y="80.5449">status : ETaskStatus</text><line style="stroke: #A80036; stroke-width: 1.5;" x1="7" x2="175" y1="86.8652" y2="86.8652"/><ellipse cx="17" cy="98.8428" fill="#84BE84" rx="3" ry="3" style="stroke: #038048; stroke-width: 1.0;"/><text fill="#000000" font-family="sans-serif" font-size="11" lengthAdjust="spacingAndGlyphs" textLength="74" x="26" y="101.5">toggle() : void</text><!--class IOwnership--><rect fill="#FEFECE" filter="url(#fxpvs9y)" height="52.9551" style="stroke: #A80036; stroke-width: 1.5;" width="161" x="211.5" y="31.5"/><ellipse cx="255.75" cy="47.5" fill="#B4A7E5" rx="11" ry="11" style="stroke: #A80036; stroke-width: 1.0;"/><path d="M252.1777,43.7651 L252.1777,41.6069 L259.5571,41.6069 L259.5571,43.7651 L257.0918,43.7651 L257.0918,51.8418 L259.5571,51.8418 L259.5571,54 L252.1777,54 L252.1777,51.8418 L254.6431,51.8418 L254.6431,43.7651 Z "/><text fill="#000000" font-family="sans-serif" font-size="12" font-style="italic" lengthAdjust="spacingAndGlyphs" textLength="64" x="276.25" y="52.0352">IOwnership</text><line style="stroke: #A80036; stroke-width: 1.5;" x1="212.5" x2="371.5" y1="63.5" y2="63.5"/><ellipse cx="222.5" cy="75.4775" fill="none" rx="3" ry="3" style="stroke: #038048; stroke-width: 1.0;"/><text fill="#000000" font-family="sans-serif" font-size="11" lengthAdjust="spacingAndGlyphs" textLength="135" x="231.5" y="78.1348">owner : ITaskOwner | null</text><!--class PeriodTask--><rect fill="#FEFECE" filter="url(#fxpvs9y)" height="125.7305" style="stroke: #A80036; stroke-width: 1.5;" width="161" x="110.5" y="354"/><ellipse cx="154.3" cy="370" fill="#ADD1B2" rx="11" ry="11" style="stroke: #A80036; stroke-width: 1.0;"/><path d="M156.7731,376.1431 Q156.1921,376.4419 155.5529,376.5913 Q154.9138,376.7407 154.2082,376.7407 Q151.7014,376.7407 150.3815,375.0889 Q149.0617,373.437 149.0617,370.3159 Q149.0617,367.1865 150.3815,365.5347 Q151.7014,363.8828 154.2082,363.8828 Q154.9138,363.8828 155.5612,364.0322 Q156.2087,364.1816 156.7731,364.4805 L156.7731,367.2031 Q156.1423,366.6221 155.5488,366.3523 Q154.9553,366.0825 154.3244,366.0825 Q152.9797,366.0825 152.2949,367.1492 Q151.6101,368.2158 151.6101,370.3159 Q151.6101,372.4077 152.2949,373.4744 Q152.9797,374.541 154.3244,374.541 Q154.9553,374.541 155.5488,374.2712 Q156.1423,374.0015 156.7731,373.4204 Z "/><text fill="#000000" font-family="sans-serif" font-size="12" lengthAdjust="spacingAndGlyphs" textLength="65" x="174.7" y="374.5352">PeriodTask</text><line style="stroke: #A80036; stroke-width: 1.5;" x1="111.5" x2="270.5" y1="386" y2="386"/><ellipse cx="121.5" cy="397.9775" fill="none" rx="3" ry="3" style="stroke: #038048; stroke-width: 1.0;"/><text fill="#000000" font-family="sans-serif" font-size="11" lengthAdjust="spacingAndGlyphs" textLength="57" x="130.5" y="400.6348">content : T</text><ellipse cx="121.5" cy="410.9326" fill="none" rx="3" ry="3" style="stroke: #038048; stroke-width: 1.0;"/><text fill="#000000" font-family="sans-serif" font-size="11" lengthAdjust="spacingAndGlyphs" textLength="117" x="130.5" y="413.5898">finishDate : Date | null</text><ellipse cx="121.5" cy="423.8877" fill="none" rx="3" ry="3" style="stroke: #038048; stroke-width: 1.0;"/><text fill="#000000" font-family="sans-serif" font-size="11" lengthAdjust="spacingAndGlyphs" textLength="51" x="130.5" y="426.5449">id : string</text><ellipse cx="121.5" cy="436.8428" fill="none" rx="3" ry="3" style="stroke: #038048; stroke-width: 1.0;"/><text fill="#000000" font-family="sans-serif" font-size="11" lengthAdjust="spacingAndGlyphs" textLength="135" x="130.5" y="439.5">owner : ITaskOwner | null</text><ellipse cx="121.5" cy="449.7979" fill="none" rx="3" ry="3" style="stroke: #038048; stroke-width: 1.0;"/><text fill="#000000" font-family="sans-serif" font-size="11" lengthAdjust="spacingAndGlyphs" textLength="106" x="130.5" y="452.4551">status : ETaskStatus</text><line style="stroke: #A80036; stroke-width: 1.5;" x1="111.5" x2="270.5" y1="458.7754" y2="458.7754"/><ellipse cx="121.5" cy="470.7529" fill="#84BE84" rx="3" ry="3" style="stroke: #038048; stroke-width: 1.0;"/><text fill="#000000" font-family="sans-serif" font-size="11" lengthAdjust="spacingAndGlyphs" textLength="74" x="130.5" y="473.4102">toggle() : void</text><path d="M130.01,125.71 C138.13,139.59 146.65,154.17 154.67,167.87 " fill="none" style="stroke: #A80036; stroke-width: 1.0; stroke-dasharray: 7.0,7.0;"/><polygon fill="none" points="123.71,128.8,119.66,108,135.79,121.73,123.71,128.8" style="stroke: #A80036; stroke-width: 1.0;"/><path d="M266.64,101.93 C254.84,121.91 240.58,146.05 227.64,167.97 " fill="none" style="stroke: #A80036; stroke-width: 1.0; stroke-dasharray: 7.0,7.0;"/><polygon fill="none" points="260.68,98.26,276.88,84.6,272.74,105.38,260.68,98.26" style="stroke: #A80036; stroke-width: 1.0;"/><path d="M191,314.48 C191,327.73 191,341.25 191,353.92 " fill="none" style="stroke: #A80036; stroke-width: 1.0;"/><polygon fill="none" points="184,314.04,191,294.04,198,314.04,184,314.04" style="stroke: #A80036; stroke-width: 1.0;"/></g></svg>