<?xml version="1.0" encoding="UTF-8" standalone="no"?><svg xmlns="http://www.w3.org/2000/svg" xmlns:xlink="http://www.w3.org/1999/xlink" contentScriptType="application/ecmascript" contentStyleType="text/css" height="302px" preserveAspectRatio="none" style="width:166px;height:302px;" version="1.1" viewBox="0 0 166 302" width="166px" zoomAndPan="magnify"><defs><filter height="300%" id="fs5igx6" width="300%" x="-1" y="-1"><feGaussianBlur result="blurOut" stdDeviation="2.0"/><feColorMatrix in="blurOut" result="blurOut2" type="matrix" values="0 0 0 0 0 0 0 0 0 0 0 0 0 0 0 0 0 0 .4 0"/><feOffset dx="4.0" dy="4.0" in="blurOut2" result="blurOut3"/><feBlend in="SourceGraphic" in2="blurOut3" mode="normal"/></filter></defs><g><!--class TextTask--><rect fill="#FEFECE" filter="url(#fs5igx6)" height="112.7754" style="stroke: #A80036; stroke-width: 1.5;" width="151" x="6" y="181"/><ellipse cx="50.25" cy="197" fill="#ADD1B2" rx="11" ry="11" style="stroke: #A80036; stroke-width: 1.0;"/><path d="M52.7231,203.1431 Q52.1421,203.4419 51.5029,203.5913 Q50.8638,203.7407 50.1582,203.7407 Q47.6514,203.7407 46.3315,202.0889 Q45.0117,200.437 45.0117,197.3159 Q45.0117,194.1865 46.3315,192.5347 Q47.6514,190.8828 50.1582,190.8828 Q50.8638,190.8828 51.5112,191.0322 Q52.1587,191.1816 52.7231,191.4805 L52.7231,194.2031 Q52.0923,193.6221 51.4988,193.3523 Q50.9053,193.0825 50.2744,193.0825 Q48.9297,193.0825 48.2449,194.1492 Q47.5601,195.2158 47.5601,197.3159 Q47.5601,199.4077 48.2449,200.4744 Q48.9297,201.541 50.2744,201.541 Q50.9053,201.541 51.4988,201.2712 Q52.0923,201.0015 52.7231,200.4204 Z "/><text fill="#000000" font-family="sans-serif" font-size="12" lengthAdjust="spacingAndGlyphs" textLength="54" x="70.75" y="201.5352">TextTask</text><line style="stroke: #A80036; stroke-width: 1.5;" x1="7" x2="156" y1="213" y2="213"/><ellipse cx="17" cy="224.9775" fill="none" rx="3" ry="3" style="stroke: #038048; stroke-width: 1.0;"/><text fill="#000000" font-family="sans-serif" font-size="11" lengthAdjust="spacingAndGlyphs" textLength="125" x="26" y="227.6348">content : TextTaskType</text><ellipse cx="17" cy="237.9326" fill="none" rx="3" ry="3" style="stroke: #038048; stroke-width: 1.0;"/><text fill="#000000" font-family="sans-serif" font-size="11" lengthAdjust="spacingAndGlyphs" textLength="117" x="26" y="240.5898">finishDate : Date | null</text><ellipse cx="17" cy="250.8877" fill="none" rx="3" ry="3" style="stroke: #038048; stroke-width: 1.0;"/><text fill="#000000" font-family="sans-serif" font-size="11" lengthAdjust="spacingAndGlyphs" textLength="51" x="26" y="253.5449">id : string</text><ellipse cx="17" cy="263.8428" fill="none" rx="3" ry="3" style="stroke: #038048; stroke-width: 1.0;"/><text fill="#000000" font-family="sans-serif" font-size="11" lengthAdjust="spacingAndGlyphs" textLength="106" x="26" y="266.5">status : ETaskStatus</text><line style="stroke: #A80036; stroke-width: 1.5;" x1="7" x2="156" y1="272.8203" y2="272.8203"/><ellipse cx="17" cy="284.7979" fill="#84BE84" rx="3" ry="3" style="stroke: #038048; stroke-width: 1.0;"/><text fill="#000000" font-family="sans-serif" font-size="11" lengthAdjust="spacingAndGlyphs" textLength="74" x="26" y="287.4551">toggle() : void</text><!--class PeriodTask--><rect fill="#FEFECE" filter="url(#fs5igx6)" height="112.7754" style="stroke: #A80036; stroke-width: 1.5;" width="143" x="10" y="8"/><ellipse cx="45.7" cy="24" fill="#ADD1B2" rx="11" ry="11" style="stroke: #A80036; stroke-width: 1.0;"/><path d="M48.1731,30.1431 Q47.5921,30.4419 46.9529,30.5913 Q46.3138,30.7407 45.6082,30.7407 Q43.1014,30.7407 41.7815,29.0889 Q40.4617,27.437 40.4617,24.3159 Q40.4617,21.1865 41.7815,19.5347 Q43.1014,17.8828 45.6082,17.8828 Q46.3138,17.8828 46.9612,18.0322 Q47.6087,18.1816 48.1731,18.4805 L48.1731,21.2031 Q47.5423,20.6221 46.9488,20.3523 Q46.3553,20.0825 45.7244,20.0825 Q44.3797,20.0825 43.6949,21.1492 Q43.0101,22.2158 43.0101,24.3159 Q43.0101,26.4077 43.6949,27.4744 Q44.3797,28.541 45.7244,28.541 Q46.3553,28.541 46.9488,28.2712 Q47.5423,28.0015 48.1731,27.4204 Z "/><text fill="#000000" font-family="sans-serif" font-size="12" lengthAdjust="spacingAndGlyphs" textLength="65" x="64.3" y="28.5352">PeriodTask</text><line style="stroke: #A80036; stroke-width: 1.5;" x1="11" x2="152" y1="40" y2="40"/><ellipse cx="21" cy="51.9775" fill="none" rx="3" ry="3" style="stroke: #038048; stroke-width: 1.0;"/><text fill="#000000" font-family="sans-serif" font-size="11" lengthAdjust="spacingAndGlyphs" textLength="57" x="30" y="54.6348">content : T</text><ellipse cx="21" cy="64.9326" fill="none" rx="3" ry="3" style="stroke: #038048; stroke-width: 1.0;"/><text fill="#000000" font-family="sans-serif" font-size="11" lengthAdjust="spacingAndGlyphs" textLength="117" x="30" y="67.5898">finishDate : Date | null</text><ellipse cx="21" cy="77.8877" fill="none" rx="3" ry="3" style="stroke: #038048; stroke-width: 1.0;"/><text fill="#000000" font-family="sans-serif" font-size="11" lengthAdjust="spacingAndGlyphs" textLength="51" x="30" y="80.5449">id : string</text><ellipse cx="21" cy="90.8428" fill="none" rx="3" ry="3" style="stroke: #038048; stroke-width: 1.0;"/><text fill="#000000" font-family="sans-serif" font-size="11" lengthAdjust="spacingAndGlyphs" textLength="106" x="30" y="93.5">status : ETaskStatus</text><line style="stroke: #A80036; stroke-width: 1.5;" x1="11" x2="152" y1="99.8203" y2="99.8203"/><ellipse cx="21" cy="111.7979" fill="#84BE84" rx="3" ry="3" style="stroke: #038048; stroke-width: 1.0;"/><text fill="#000000" font-family="sans-serif" font-size="11" lengthAdjust="spacingAndGlyphs" textLength="74" x="30" y="114.4551">toggle() : void</text><path d="M81.5,141.46 C81.5,154.76 81.5,168.36 81.5,180.97 " fill="none" style="stroke: #A80036; stroke-width: 1.0;"/><polygon fill="none" points="74.5,141.02,81.5,121.02,88.5,141.02,74.5,141.02" style="stroke: #A80036; stroke-width: 1.0;"/></g></svg>