<?xml version="1.0" encoding="UTF-8" standalone="no"?><svg xmlns="http://www.w3.org/2000/svg" xmlns:xlink="http://www.w3.org/1999/xlink" contentScriptType="application/ecmascript" contentStyleType="text/css" height="328px" preserveAspectRatio="none" style="width:176px;height:328px;" version="1.1" viewBox="0 0 176 328" width="176px" zoomAndPan="magnify"><defs><filter height="300%" id="fnjpuq5" width="300%" x="-1" y="-1"><feGaussianBlur result="blurOut" stdDeviation="2.0"/><feColorMatrix in="blurOut" result="blurOut2" type="matrix" values="0 0 0 0 0 0 0 0 0 0 0 0 0 0 0 0 0 0 .4 0"/><feOffset dx="4.0" dy="4.0" in="blurOut2" result="blurOut3"/><feBlend in="SourceGraphic" in2="blurOut3" mode="normal"/></filter></defs><g><!--class TextTask--><rect fill="#FEFECE" filter="url(#fnjpuq5)" height="125.7305" style="stroke: #A80036; stroke-width: 1.5;" width="161" x="6" y="194"/><ellipse cx="55.25" cy="210" fill="#ADD1B2" rx="11" ry="11" style="stroke: #A80036; stroke-width: 1.0;"/><path d="M57.7231,216.1431 Q57.1421,216.4419 56.5029,216.5913 Q55.8638,216.7407 55.1582,216.7407 Q52.6514,216.7407 51.3315,215.0889 Q50.0117,213.437 50.0117,210.3159 Q50.0117,207.1865 51.3315,205.5347 Q52.6514,203.8828 55.1582,203.8828 Q55.8638,203.8828 56.5112,204.0322 Q57.1587,204.1816 57.7231,204.4805 L57.7231,207.2031 Q57.0923,206.6221 56.4988,206.3523 Q55.9053,206.0825 55.2744,206.0825 Q53.9297,206.0825 53.2449,207.1492 Q52.5601,208.2158 52.5601,210.3159 Q52.5601,212.4077 53.2449,213.4744 Q53.9297,214.541 55.2744,214.541 Q55.9053,214.541 56.4988,214.2712 Q57.0923,214.0015 57.7231,213.4204 Z "/><text fill="#000000" font-family="sans-serif" font-size="12" lengthAdjust="spacingAndGlyphs" textLength="54" x="75.75" y="214.5352">TextTask</text><line style="stroke: #A80036; stroke-width: 1.5;" x1="7" x2="166" y1="226" y2="226"/><ellipse cx="17" cy="237.9775" fill="none" rx="3" ry="3" style="stroke: #038048; stroke-width: 1.0;"/><text fill="#000000" font-family="sans-serif" font-size="11" lengthAdjust="spacingAndGlyphs" textLength="125" x="26" y="240.6348">content : TextTaskType</text><ellipse cx="17" cy="250.9326" fill="none" rx="3" ry="3" style="stroke: #038048; stroke-width: 1.0;"/><text fill="#000000" font-family="sans-serif" font-size="11" lengthAdjust="spacingAndGlyphs" textLength="117" x="26" y="253.5898">finishDate : Date | null</text><ellipse cx="17" cy="263.8877" fill="none" rx="3" ry="3" style="stroke: #038048; stroke-width: 1.0;"/><text fill="#000000" font-family="sans-serif" font-size="11" lengthAdjust="spacingAndGlyphs" textLength="51" x="26" y="266.5449">id : string</text><ellipse cx="17" cy="276.8428" fill="none" rx="3" ry="3" style="stroke: #038048; stroke-width: 1.0;"/><text fill="#000000" font-family="sans-serif" font-size="11" lengthAdjust="spacingAndGlyphs" textLength="135" x="26" y="279.5">owner : ITaskOwner | null</text><ellipse cx="17" cy="289.7979" fill="none" rx="3" ry="3" style="stroke: #038048; stroke-width: 1.0;"/><text fill="#000000" font-family="sans-serif" font-size="11" lengthAdjust="spacingAndGlyphs" textLength="106" x="26" y="292.4551">status : ETaskStatus</text><line style="stroke: #A80036; stroke-width: 1.5;" x1="7" x2="166" y1="298.7754" y2="298.7754"/><ellipse cx="17" cy="310.7529" fill="#84BE84" rx="3" ry="3" style="stroke: #038048; stroke-width: 1.0;"/><text fill="#000000" font-family="sans-serif" font-size="11" lengthAdjust="spacingAndGlyphs" textLength="74" x="26" y="313.4102">toggle() : void</text><!--class PeriodTask--><rect fill="#FEFECE" filter="url(#fnjpuq5)" height="125.7305" style="stroke: #A80036; stroke-width: 1.5;" width="161" x="6" y="8"/><ellipse cx="49.8" cy="24" fill="#ADD1B2" rx="11" ry="11" style="stroke: #A80036; stroke-width: 1.0;"/><path d="M52.2731,30.1431 Q51.6921,30.4419 51.0529,30.5913 Q50.4138,30.7407 49.7082,30.7407 Q47.2014,30.7407 45.8815,29.0889 Q44.5617,27.437 44.5617,24.3159 Q44.5617,21.1865 45.8815,19.5347 Q47.2014,17.8828 49.7082,17.8828 Q50.4138,17.8828 51.0612,18.0322 Q51.7087,18.1816 52.2731,18.4805 L52.2731,21.2031 Q51.6423,20.6221 51.0488,20.3523 Q50.4553,20.0825 49.8244,20.0825 Q48.4797,20.0825 47.7949,21.1492 Q47.1101,22.2158 47.1101,24.3159 Q47.1101,26.4077 47.7949,27.4744 Q48.4797,28.541 49.8244,28.541 Q50.4553,28.541 51.0488,28.2712 Q51.6423,28.0015 52.2731,27.4204 Z "/><text fill="#000000" font-family="sans-serif" font-size="12" lengthAdjust="spacingAndGlyphs" textLength="65" x="70.2" y="28.5352">PeriodTask</text><line style="stroke: #A80036; stroke-width: 1.5;" x1="7" x2="166" y1="40" y2="40"/><ellipse cx="17" cy="51.9775" fill="none" rx="3" ry="3" style="stroke: #038048; stroke-width: 1.0;"/><text fill="#000000" font-family="sans-serif" font-size="11" lengthAdjust="spacingAndGlyphs" textLength="57" x="26" y="54.6348">content : T</text><ellipse cx="17" cy="64.9326" fill="none" rx="3" ry="3" style="stroke: #038048; stroke-width: 1.0;"/><text fill="#000000" font-family="sans-serif" font-size="11" lengthAdjust="spacingAndGlyphs" textLength="117" x="26" y="67.5898">finishDate : Date | null</text><ellipse cx="17" cy="77.8877" fill="none" rx="3" ry="3" style="stroke: #038048; stroke-width: 1.0;"/><text fill="#000000" font-family="sans-serif" font-size="11" lengthAdjust="spacingAndGlyphs" textLength="51" x="26" y="80.5449">id : string</text><ellipse cx="17" cy="90.8428" fill="none" rx="3" ry="3" style="stroke: #038048; stroke-width: 1.0;"/><text fill="#000000" font-family="sans-serif" font-size="11" lengthAdjust="spacingAndGlyphs" textLength="135" x="26" y="93.5">owner : ITaskOwner | null</text><ellipse cx="17" cy="103.7979" fill="none" rx="3" ry="3" style="stroke: #038048; stroke-width: 1.0;"/><text fill="#000000" font-family="sans-serif" font-size="11" lengthAdjust="spacingAndGlyphs" textLength="106" x="26" y="106.4551">status : ETaskStatus</text><line style="stroke: #A80036; stroke-width: 1.5;" x1="7" x2="166" y1="112.7754" y2="112.7754"/><ellipse cx="17" cy="124.7529" fill="#84BE84" rx="3" ry="3" style="stroke: #038048; stroke-width: 1.0;"/><text fill="#000000" font-family="sans-serif" font-size="11" lengthAdjust="spacingAndGlyphs" textLength="74" x="26" y="127.4102">toggle() : void</text><path d="M86.5,154.48 C86.5,167.73 86.5,181.25 86.5,193.92 " fill="none" style="stroke: #A80036; stroke-width: 1.0;"/><polygon fill="none" points="79.5,154.04,86.5,134.04,93.5,154.04,79.5,154.04" style="stroke: #A80036; stroke-width: 1.0;"/></g></svg>